<svg width="84" height="83" viewBox="0 0 84 83" fill="none" xmlns="http://www.w3.org/2000/svg">
<g clip-path="url(#clip0)">
<path d="M21.3672 22.4143L14.0898 22.9699C12.0648 23.1245 10.2612 24.1732 9.14137 25.847L0.748488 38.3896C-0.100857 39.6589 -0.235879 41.2474 0.387061 42.6389C1.01017 44.0305 2.29066 45.0002 3.81233 45.2332L10.4757 46.2528C12.0344 38.0793 15.7658 29.9259 21.3672 22.4143V22.4143Z" fill="#5A5A5A"/>
<path d="M37.1897 72.649L38.2218 79.233C38.4576 80.7365 39.439 82.0018 40.8471 82.6173C41.433 82.8734 42.0531 82.9999 42.6702 82.9999C43.5369 82.9999 44.3976 82.7504 45.1478 82.2602L57.8419 73.9674C59.5358 72.8607 60.5971 71.0785 60.7533 69.0779L61.3155 61.8871C53.7133 67.4219 45.4618 71.1089 37.1897 72.649V72.649Z" fill="#5A5A5A"/>
<path d="M34.6837 68.0854C34.915 68.0854 35.1476 68.0666 35.3798 68.0284C38.8454 67.4558 42.1857 66.4912 45.3721 65.2287L17.9853 38.168C16.7076 41.3163 15.7315 44.6169 15.152 48.0414C14.9236 49.3913 15.3818 50.7664 16.3611 51.7342L31.6424 66.8336C32.4555 67.6369 33.5529 68.0854 34.6837 68.0854Z" fill="#5A5A5A"/>
<path d="M77.3022 36.799C84.0039 23.9967 84.2522 10.4678 83.9019 4.1229C83.782 1.94886 82.0278 0.215604 79.8274 0.0971028C78.7819 0.0406891 77.5427 0 76.1461 0C68.9658 0 57.6043 1.07461 46.7576 6.61823C38.1375 11.0238 26.8342 20.7245 20.1654 33.4731C20.2442 33.5338 20.3211 33.5984 20.3936 33.67L49.9246 62.8495C49.9972 62.9211 50.0623 62.997 50.1238 63.0748C63.0259 56.4853 72.8435 45.3165 77.3022 36.799V36.799ZM48.8409 17.5466C53.6382 12.8064 61.4444 12.8059 66.242 17.5466C68.5661 19.8428 69.8459 22.8961 69.8459 26.1437C69.8459 29.3912 68.5661 32.4445 66.242 34.7407C63.8436 37.1106 60.692 38.2958 57.5415 38.2961C54.3901 38.2963 51.2399 37.1112 48.8409 34.7407C46.5168 32.4445 45.2368 29.3912 45.2368 26.1437C45.2368 22.8961 46.5168 19.8428 48.8409 17.5466V17.5466Z" fill="#5A5A5A"/>
<path d="M52.3209 31.3019C55.1994 34.1461 59.8834 34.1462 62.7619 31.3019C64.1562 29.9239 64.9242 28.0921 64.9242 26.1436C64.9242 24.195 64.1562 22.3632 62.7619 20.9854C61.3227 19.5632 59.432 18.8522 57.5414 18.8522C55.6509 18.8522 53.7602 19.5632 52.3211 20.9854C50.9267 22.3632 50.1586 24.195 50.1586 26.1436C50.1586 28.0921 50.9265 29.9241 52.3209 31.3019Z" fill="#5A5A5A"/>
<path d="M2.51095 68.3997C3.14078 68.3997 3.77062 68.1623 4.25099 67.6874L12.2856 59.7484C13.2467 58.7987 13.2467 57.2592 12.2856 56.3095C11.3247 55.3599 9.76645 55.3599 8.80537 56.3095L0.770735 64.2485C-0.190343 65.1982 -0.190343 66.7377 0.770735 67.6874C1.25127 68.1622 1.88111 68.3997 2.51095 68.3997Z" fill="#5A5A5A"/>
<path d="M19.649 63.5851C18.6881 62.6355 17.1298 62.6355 16.1687 63.5851L0.721419 78.8485C-0.239659 79.7982 -0.239659 81.3377 0.721419 82.2873C1.20196 82.7622 1.83179 82.9995 2.46163 82.9995C3.09147 82.9995 3.7213 82.7622 4.20168 82.2872L19.6488 67.0239C20.6101 66.0743 20.6101 64.5348 19.649 63.5851V63.5851Z" fill="#5A5A5A"/>
<path d="M23.5316 70.8607L15.4972 78.7997C14.5361 79.7493 14.5361 81.2889 15.4972 82.2385C15.9777 82.7134 16.6076 82.9509 17.2372 82.9509C17.8669 82.9509 18.4969 82.7135 18.9773 82.2385L27.0119 74.2996C27.973 73.3499 27.973 71.8104 27.0119 70.8607C26.051 69.9111 24.4927 69.9111 23.5316 70.8607Z" fill="#5A5A5A"/>
</g>
<defs>
<clipPath id="clip0">
<rect width="84" height="83" fill="white"/>
</clipPath>
</defs>
</svg>
