<svg width="25" height="25" viewBox="0 0 25 25" fill="none" xmlns="http://www.w3.org/2000/svg">
<g clip-path="url(#clip0)">
<path d="M6.35929 6.75128L4.19339 6.91861C3.59071 6.9652 3.05394 7.28106 2.72064 7.78521L0.222764 11.5631C-0.0300169 11.9454 -0.0702021 12.4239 0.115197 12.843C0.300645 13.2622 0.681745 13.5543 1.13462 13.6244L3.11776 13.9315C3.58167 11.4697 4.69221 9.01381 6.35929 6.75128V6.75128Z" fill="#455A64"/>
<path d="M11.0684 21.8822L11.3755 23.8653C11.4457 24.3182 11.7378 24.6993 12.1569 24.8847C12.3312 24.9619 12.5158 25 12.6994 25C12.9574 25 13.2136 24.9248 13.4368 24.7772L17.2148 22.2793C17.719 21.946 18.0349 21.4092 18.0813 20.8066L18.2487 18.6407C15.9861 20.3078 13.5303 21.4183 11.0684 21.8822V21.8822Z" fill="#455A64"/>
<path d="M10.3226 20.5077C10.3915 20.5077 10.4607 20.502 10.5298 20.4905C11.5612 20.318 12.5554 20.0275 13.5037 19.6472L5.35288 11.4964C4.97261 12.4447 4.68208 13.4388 4.50962 14.4703C4.44165 14.8769 4.57803 15.2911 4.86948 15.5826L9.41749 20.1306C9.65948 20.3726 9.98609 20.5077 10.3226 20.5077Z" fill="#455A64"/>
<path d="M23.0065 11.084C25.001 7.22792 25.0749 3.15295 24.9707 1.24184C24.935 0.587007 24.4129 0.0649409 23.758 0.0292478C23.4468 0.0122558 23.078 0 22.6624 0C20.5254 0 17.144 0.323679 13.9158 1.99344C11.3503 3.32043 7.98622 6.24233 6.00146 10.0822C6.0249 10.1006 6.0478 10.12 6.06938 10.1416L14.8584 18.9306C14.88 18.9521 14.8993 18.975 14.9177 18.9984C18.7576 17.0136 21.6795 13.6496 23.0065 11.084V11.084ZM14.5358 5.28512C15.9636 3.85734 18.2869 3.8572 19.7147 5.28512C20.4064 5.97676 20.7873 6.89643 20.7873 7.8746C20.7873 8.85276 20.4064 9.77243 19.7147 10.4641C19.0009 11.1779 18.0629 11.5349 17.1253 11.535C16.1874 11.535 15.2498 11.1781 14.5358 10.4641C13.8441 9.77243 13.4632 8.85276 13.4632 7.8746C13.4632 6.89643 13.8441 5.97676 14.5358 5.28512V5.28512Z" fill="#455A64"/>
<path d="M15.5718 9.42825C16.4285 10.2849 17.8225 10.285 18.6792 9.42825C19.0942 9.01321 19.3228 8.46145 19.3228 7.87454C19.3228 7.28762 19.0942 6.73586 18.6792 6.32087C18.2509 5.89251 17.6882 5.67834 17.1255 5.67834C16.5628 5.67834 16.0001 5.89251 15.5718 6.32087C15.1568 6.73586 14.9282 7.28762 14.9282 7.87454C14.9282 8.46145 15.1568 9.01326 15.5718 9.42825Z" fill="url(#paint0_linear)"/>
<path d="M0.747827 20.6023C0.935278 20.6023 1.12273 20.5308 1.2657 20.3877L3.65696 17.9965C3.94299 17.7104 3.94299 17.2467 3.65696 16.9607C3.37097 16.6746 2.9072 16.6746 2.62117 16.9607L0.229907 19.3519C-0.0561279 19.638 -0.0561279 20.1017 0.229907 20.3877C0.372925 20.5308 0.560376 20.6023 0.747827 20.6023Z" fill="url(#paint1_linear)"/>
<path d="M5.84797 19.1521C5.56199 18.8661 5.09822 18.8661 4.81218 19.1521L0.21477 23.7496C-0.0712646 24.0356 -0.0712646 24.4993 0.21477 24.7853C0.357788 24.9284 0.545239 24.9999 0.73269 24.9999C0.920142 24.9999 1.10759 24.9284 1.25056 24.7853L5.84792 20.1879C6.13401 19.9019 6.13401 19.4382 5.84797 19.1521V19.1521Z" fill="url(#paint2_linear)"/>
<path d="M7.00344 21.3436L4.61223 23.7348C4.3262 24.0209 4.3262 24.4846 4.61223 24.7706C4.75525 24.9136 4.9427 24.9852 5.1301 24.9852C5.3175 24.9852 5.505 24.9137 5.64797 24.7706L8.03923 22.3793C8.32527 22.0933 8.32527 21.6296 8.03923 21.3436C7.75325 21.0575 7.28948 21.0575 7.00344 21.3436Z" fill="url(#paint3_linear)"/>
</g>
<defs>
<linearGradient id="paint0_linear" x1="19.3228" y1="7.87456" x2="14.9282" y2="7.87456" gradientUnits="userSpaceOnUse">
<stop stop-color="#DE6A1E"/>
<stop offset="1" stop-color="#FDB15D"/>
</linearGradient>
<linearGradient id="paint1_linear" x1="3.87148" y1="18.6742" x2="0.0153809" y2="18.6742" gradientUnits="userSpaceOnUse">
<stop stop-color="#DE6A1E"/>
<stop offset="1" stop-color="#FDB15D"/>
</linearGradient>
<linearGradient id="paint2_linear" x1="6.06249" y1="21.9687" x2="0.000244167" y2="21.9687" gradientUnits="userSpaceOnUse">
<stop stop-color="#DE6A1E"/>
<stop offset="1" stop-color="#FDB15D"/>
</linearGradient>
<linearGradient id="paint3_linear" x1="8.25376" y1="23.0571" x2="4.39771" y2="23.0571" gradientUnits="userSpaceOnUse">
<stop stop-color="#DE6A1E"/>
<stop offset="1" stop-color="#FDB15D"/>
</linearGradient>
<clipPath id="clip0">
<rect width="25" height="25" fill="white"/>
</clipPath>
</defs>
</svg>
