<svg width="84" height="84" viewBox="0 0 84 84" fill="none" xmlns="http://www.w3.org/2000/svg">
<g clip-path="url(#clip0)">
<path d="M68.9411 49.105L40.9787 47.124C40.2746 47.0741 39.8862 47.9251 40.3855 48.4243L62.2606 70.2995C66.9557 65.6043 70.3018 59.5603 71.6681 52.7986C72.0305 51.0052 70.7613 49.2908 68.9411 49.105V49.105Z" fill="#5A5A5A"/>
<path d="M34.4531 49.5469L27.9909 19.0183C27.6796 17.5481 26.3821 16.5552 24.9621 16.5552C24.6547 16.5552 24.3415 16.6018 24.0314 16.7001C10.0979 21.1168 0 34.1519 0 49.5469C0 68.5749 15.4252 84 34.4531 84C43.9671 84 52.5804 80.1437 58.8151 73.9089L34.4531 49.5469Z" fill="#5A5A5A"/>
<path d="M49.9839 0.00278525C48.5635 -0.0149335 47.1627 0.0539728 45.7864 0.203926C43.9609 0.40277 42.7056 2.13396 43.0859 3.93028L49.1974 32.8017C49.4058 33.7857 50.2258 34.5224 51.2264 34.6246L80.6069 37.6226C82.4181 37.8075 83.9938 36.3894 84 34.5688L84.0002 34.5342C84.0436 15.5812 68.9353 0.239363 49.9839 0.00278525V0.00278525Z" fill="#5A5A5A"/>
</g>
<defs>
<clipPath id="clip0">
<rect width="84" height="84" fill="white"/>
</clipPath>
</defs>
</svg>
