<svg width="25" height="26" viewBox="0 0 25 26" fill="none" xmlns="http://www.w3.org/2000/svg">
<g clip-path="url(#clip0)">
<path d="M20.5182 15.1992L12.1961 14.586C11.9865 14.5705 11.8709 14.8339 12.0195 14.9885L18.5299 21.7593C19.9273 20.3061 20.9232 18.4353 21.3298 16.3424C21.4377 15.7873 21.0599 15.2566 20.5182 15.1992V15.1992Z" fill="url(#paint0_linear)"/>
<path d="M10.2539 15.336L8.33061 5.88665C8.23799 5.4316 7.85181 5.12427 7.4292 5.12427C7.3377 5.12427 7.24448 5.13869 7.1522 5.16911C3.00532 6.53619 0 10.5709 0 15.336C0 21.2256 4.59082 26 10.2539 26C13.0854 26 15.6489 24.8064 17.5045 22.8766L10.2539 15.336Z" fill="#455A64"/>
<path d="M14.8762 0.000843209C14.4535 -0.00464117 14.0366 0.016687 13.627 0.063101C13.0836 0.124648 12.7101 0.660492 12.8232 1.2165L14.6421 10.1529C14.7042 10.4575 14.9482 10.6855 15.246 10.7171L23.9902 11.6451C24.5293 11.7023 24.9982 11.2634 25.0001 10.6998L25.0001 10.6891C25.013 4.82273 20.5165 0.0740698 14.8762 0.000843209V0.000843209Z" fill="#455A64"/>
</g>
<defs>
<linearGradient id="paint0_linear" x1="21.3482" y1="18.1723" x2="11.9524" y2="18.1723" gradientUnits="userSpaceOnUse">
<stop stop-color="#DE6A1E"/>
<stop offset="1" stop-color="#FDB15D"/>
</linearGradient>
<clipPath id="clip0">
<rect width="25" height="26" fill="white"/>
</clipPath>
</defs>
</svg>
