<svg width="84" height="84" viewBox="0 0 84 84" fill="none" xmlns="http://www.w3.org/2000/svg">
<g clip-path="url(#clip0)">
<path d="M60.4578 35.7311L55.7454 33.7827C55.8905 32.2488 55.8893 30.7041 55.7423 29.1785L60.4528 27.2229C62.5417 26.3557 63.536 23.9515 62.6696 21.8638L60.3309 16.2277C59.4652 14.1416 57.062 13.1469 54.9699 14.0112L50.261 15.966C49.2811 14.7821 48.1886 13.6911 47.0021 12.7122L48.9495 8.00181C49.3693 6.98857 49.369 5.87296 48.9487 4.86021C48.5284 3.84746 47.7383 3.05963 46.727 2.64259L41.0885 0.310132C39 -0.552994 36.597 0.444498 35.7316 2.53415L33.7835 7.24615C32.2565 7.10095 30.713 7.10177 29.1787 7.24861L27.2234 2.53923C26.3562 0.45024 23.9522 -0.544135 21.8645 0.322601L16.2283 2.66113C14.1423 3.52688 13.1473 5.93021 14.0119 8.02232L15.9668 12.7309C14.7797 13.7131 13.688 14.8063 12.7125 15.9896L8.0023 14.0422C6.98938 13.6227 5.87393 13.6229 4.86135 14.0427C3.84909 14.4625 3.06127 15.2514 2.64324 16.2633L0.31078 21.9032C-0.552018 23.9917 0.444982 26.3946 2.53479 27.2601L7.2468 29.2084C7.1016 30.7356 7.10242 32.2789 7.24926 33.8131L2.53972 35.7669C1.52811 36.1867 0.740456 36.9754 0.321772 37.9874C-0.0974047 39.0004 -0.0967485 40.1157 0.323248 41.1273L2.66194 46.7636C3.0821 47.7758 3.8714 48.5637 4.88464 48.9819C5.8969 49.3997 7.01137 49.3986 8.02231 48.9787L12.7314 47.0251C13.7131 48.2117 14.8058 49.3029 15.9901 50.2794L14.0427 54.9898C13.623 56.0027 13.6232 57.1181 14.0432 58.1307C14.463 59.143 15.2518 59.9308 16.2639 60.349L21.9037 62.681C23.9906 63.5433 26.3932 62.5471 27.2608 60.4571L29.2092 55.7446C30.7433 55.8897 32.2876 55.8883 33.8132 55.7417L35.7675 60.4524C36.1874 61.4638 36.976 62.2516 37.9881 62.6703C38.5507 62.9031 39.1449 63.0065 39.7353 62.9804C40.2078 62.9594 40.678 62.8555 41.1279 62.669L46.7644 60.3305C48.8527 59.4634 49.8464 57.0588 48.9794 54.9699L47.0257 50.2607C48.2093 49.2813 49.2996 48.1893 50.2796 47.0018L54.9904 48.9495C56.0033 49.369 57.1188 49.3689 58.1317 48.9484C59.1444 48.5279 59.9323 47.7381 60.3493 46.7268L62.6814 41.0884C63.5441 39.0013 62.5479 36.5987 60.4578 35.7311V35.7311ZM26.9556 20.5561C26.956 20.5559 26.9563 20.5558 26.9565 20.5558C32.9882 18.0534 39.9317 20.9246 42.4343 26.9558C43.6466 29.8779 43.6485 33.0971 42.4399 36.0205C41.2311 38.9441 38.9562 41.2219 36.0341 42.434C34.7252 42.977 33.3726 43.2671 32.0323 43.3263C27.1978 43.5404 22.5168 40.756 20.5564 36.0343C18.0548 30.0039 20.9256 23.0607 26.9556 20.5561V20.5561Z" fill="#5A5A5A"/>
<path d="M84 67.4234C84.0023 66.0642 82.901 64.9615 81.5432 64.9584L78.2446 64.953C77.9698 63.7207 77.4871 62.55 76.8138 61.4821L79.1499 59.1548C80.1128 58.1955 80.1157 56.6372 79.1565 55.6745C78.1974 54.7118 76.6393 54.7087 75.6762 55.6681L73.3397 57.9962C72.2743 57.3194 71.1057 56.8331 69.8749 56.5544L69.8804 53.2561C69.8827 51.8969 68.7802 50.7939 67.4236 50.7911C66.0645 50.7888 64.9609 51.8888 64.9586 53.2479L64.953 56.5467C63.7209 56.8215 62.5502 57.304 61.4823 57.9773L59.1551 55.6412C58.1955 54.6782 56.6376 54.6754 55.6749 55.6347C54.712 56.5939 54.709 58.1522 55.6683 59.1149L57.9963 61.4516C57.3198 62.5169 56.8336 63.6856 56.5547 64.9164L53.2563 64.9108C51.8972 64.9085 50.7936 66.0086 50.7913 67.3677C50.7891 68.6683 51.7961 69.7349 53.074 69.8263C53.1316 69.8304 53.1897 69.8325 53.2481 69.8327L56.5469 69.8383C56.8217 71.0705 57.3043 72.2411 57.9775 73.3091L55.6414 75.6365C54.6785 76.5958 54.6756 78.1539 55.6348 79.1167C56.0708 79.5543 56.6304 79.7935 57.2016 79.8345C57.8872 79.8836 58.5899 79.6466 59.1151 79.1233L61.4497 76.7974C62.5152 77.4743 63.6855 77.9588 64.9164 78.2377L64.9109 81.5353C64.9087 82.836 65.9157 83.9026 67.1936 83.9939C67.2512 83.998 67.3093 84.0002 67.3677 84.0003C68.7268 84.0026 69.8304 82.9026 69.8327 81.5435L69.8381 78.2447C71.0702 77.9699 72.241 77.4874 73.3088 76.8141L75.636 79.1502C76.072 79.5878 76.6316 79.827 77.2027 79.868C77.8884 79.917 78.5911 79.6801 79.1163 79.1568C80.0791 78.1975 80.0821 76.6394 79.1228 75.6765L76.7948 73.3398C77.4714 72.2744 77.9577 71.1058 78.2366 69.875L81.535 69.8804C82.8941 69.8824 83.9978 68.7825 84 67.4234V67.4234ZM71.7716 71.7857C70.5989 72.9543 69.0411 73.5962 67.3844 73.5934C65.729 73.5913 64.1739 72.9441 63.0053 71.7715C61.8367 70.5988 61.1945 69.0412 61.1975 67.3854C61.1975 67.3852 61.1973 67.3849 61.1973 67.3846C61.1996 65.7292 61.8469 64.1739 63.0194 63.0053C64.1921 61.8367 65.7499 61.1947 67.4066 61.1975C67.5552 61.1976 67.7027 61.2031 67.8494 61.2136C69.3377 61.32 70.7219 61.952 71.7857 63.0194C72.9543 64.1921 73.5964 65.7497 73.5936 67.4064C73.5912 69.0618 72.944 70.6171 71.7716 71.7857Z" fill="#5A5A5A"/>
</g>
<defs>
<clipPath id="clip0">
<rect width="84" height="84" fill="white"/>
</clipPath>
</defs>
</svg>
