<svg width="26" height="26" viewBox="0 0 26 26" fill="none" xmlns="http://www.w3.org/2000/svg">
<path d="M18.7133 11.0593L17.2547 10.4562C17.2996 9.98143 17.2992 9.50333 17.2537 9.03112L18.7118 8.42581C19.3583 8.15738 19.6661 7.41324 19.3979 6.76705L18.674 5.02253C18.4061 4.37685 17.6622 4.06896 17.0147 4.33648L15.5572 4.94153C15.2538 4.5751 14.9157 4.2374 14.5484 3.93439L15.1512 2.47642C15.2812 2.1628 15.2811 1.81749 15.151 1.50402C15.0209 1.19055 14.7763 0.946702 14.4633 0.817617L12.718 0.0956655C12.0716 -0.171493 11.3278 0.137255 11.06 0.784051L10.457 2.24253C9.98431 2.19759 9.50656 2.19784 9.03166 2.24329L8.42646 0.785625C8.15803 0.139032 7.41394 -0.16875 6.76775 0.0995248L5.02322 0.823355C4.37754 1.09133 4.06956 1.83521 4.33717 2.48277L4.94228 3.94018C4.57483 4.24421 4.23693 4.58256 3.93499 4.94884L2.47707 4.34607C2.16355 4.21623 1.81829 4.21628 1.50487 4.34623C1.19155 4.47618 0.947704 4.72033 0.818314 5.03355L0.0963623 6.77924C-0.170694 7.42568 0.137901 8.16942 0.784748 8.43734L2.24322 9.04036C2.19828 9.51308 2.19854 9.99077 2.24399 10.4656L0.786271 11.0704C0.473156 11.2003 0.229357 11.4444 0.0997646 11.7577C-0.0299805 12.0712 -0.0297774 12.4164 0.100222 12.7295L0.824103 14.4741C0.954153 14.7874 1.19846 15.0313 1.51208 15.1607C1.8254 15.2901 2.17035 15.2897 2.48327 15.1598L3.94083 14.5551C4.2447 14.9224 4.5829 15.2601 4.94949 15.5623L4.34672 17.0203C4.21682 17.3338 4.21687 17.6791 4.34687 17.9925C4.47682 18.3058 4.72098 18.5497 5.03424 18.6791L6.77989 19.4009C7.42582 19.6678 8.1695 19.3595 8.43803 18.7126L9.04111 17.254C9.51596 17.2989 9.99396 17.2984 10.4662 17.253L11.0711 18.7111C11.201 19.0242 11.4451 19.268 11.7584 19.3976C11.9325 19.4697 12.1164 19.5017 12.2992 19.4936C12.4455 19.4871 12.591 19.455 12.7302 19.3972L14.4749 18.6734C15.1213 18.405 15.4288 17.6607 15.1605 17.0142L14.5558 15.5566C14.9221 15.2534 15.2596 14.9154 15.5629 14.5478L17.021 15.1507C17.3345 15.2806 17.6798 15.2805 17.9933 15.1504C18.3068 15.0202 18.5506 14.7758 18.6797 14.4627L19.4016 12.7175C19.6686 12.0715 19.3602 11.3278 18.7133 11.0593V11.0593ZM8.34358 6.36228C8.34368 6.36223 8.34378 6.36218 8.34384 6.36218C10.2108 5.58762 12.36 6.47633 13.1346 8.34314C13.5098 9.2476 13.5104 10.244 13.1363 11.1489C12.7622 12.0538 12.058 12.7588 11.1536 13.134C10.7485 13.3021 10.3298 13.3919 9.91494 13.4102C8.41853 13.4765 6.96965 12.6146 6.36287 11.1531C5.58857 9.2866 6.47713 7.1375 8.34358 6.36228V6.36228Z" fill="#455A64"/>
<path d="M25.9999 20.8692C26.0006 20.4485 25.6597 20.1072 25.2394 20.1062L24.2184 20.1045C24.1334 19.7231 23.984 19.3607 23.7756 19.0302L24.4986 18.3098C24.7967 18.0129 24.7976 17.5306 24.5006 17.2326C24.2038 16.9346 23.7215 16.9337 23.4234 17.2306L22.7002 17.9512C22.3704 17.7417 22.0087 17.5912 21.6278 17.505L21.6295 16.4841C21.6302 16.0633 21.289 15.7219 20.8691 15.7211C20.4484 15.7204 20.1068 16.0608 20.1061 16.4815L20.1044 17.5026C19.723 17.5876 19.3606 17.737 19.0301 17.9454L18.3098 17.2223C18.0127 16.9242 17.5305 16.9234 17.2325 17.2203C16.9345 17.5172 16.9336 17.9995 17.2305 18.2975L17.9511 19.0208C17.7417 19.3505 17.5912 19.7122 17.5049 20.0932L16.4839 20.0915C16.0633 20.0908 15.7217 20.4312 15.7209 20.8519C15.7203 21.2545 16.032 21.5846 16.4275 21.6129C16.4453 21.6142 16.4633 21.6148 16.4814 21.6149L17.5024 21.6166C17.5875 21.998 17.7369 22.3604 17.9453 22.6909L17.2222 23.4113C16.9241 23.7082 16.9232 24.1905 17.2202 24.4885C17.3551 24.624 17.5283 24.698 17.7051 24.7107C17.9173 24.7259 18.1348 24.6526 18.2974 24.4906L19.02 23.7706C19.3498 23.9802 19.712 24.1301 20.093 24.2164L20.0913 25.2371C20.0906 25.6397 20.4023 25.9699 20.7979 25.9981C20.8157 25.9994 20.8337 26.0001 20.8517 26.0001C21.2724 26.0008 21.614 25.6604 21.6147 25.2397L21.6164 24.2186C21.9978 24.1336 22.3601 23.9842 22.6907 23.7758L23.411 24.4989C23.5459 24.6343 23.7191 24.7084 23.8959 24.7211C24.1082 24.7362 24.3257 24.6629 24.4882 24.5009C24.7862 24.204 24.7872 23.7217 24.4902 23.4237L23.7697 22.7004C23.9791 22.3707 24.1296 22.009 24.2159 21.628L25.2369 21.6297C25.6575 21.6303 25.9991 21.2898 25.9999 20.8692V20.8692ZM22.2149 22.2194C21.8519 22.5811 21.3697 22.7798 20.8569 22.7789C20.3445 22.7783 19.8632 22.578 19.5015 22.215C19.1398 21.852 18.941 21.3699 18.9419 20.8574C18.9419 20.8573 18.9419 20.8572 18.9419 20.8571C18.9426 20.3448 19.1429 19.8634 19.5058 19.5017C19.8688 19.1399 20.351 18.9412 20.8638 18.9421C20.9098 18.9421 20.9554 18.9438 21.0008 18.9471C21.4615 18.98 21.89 19.1756 22.2192 19.506C22.5809 19.869 22.7797 20.3511 22.7788 20.8639C22.7781 21.3763 22.5777 21.8577 22.2149 22.2194Z" fill="url(#paint0_linear)"/>
<defs>
<linearGradient id="paint0_linear" x1="25.9999" y1="20.8606" x2="15.7209" y2="20.8606" gradientUnits="userSpaceOnUse">
<stop stop-color="#DE6A1E"/>
<stop offset="1" stop-color="#FDB15D"/>
</linearGradient>
</defs>
</svg>
