<svg width="462" height="409" viewBox="0 0 462 409" fill="none" xmlns="http://www.w3.org/2000/svg">
<path d="M405.438 91.1731C405.438 91.1731 406.009 91.2131 406.936 91.6421C407.843 92.0641 409.128 92.9861 409.921 94.6641C410.307 95.4931 410.571 96.4971 410.53 97.5831C410.485 98.6601 410.197 99.8281 409.526 100.855C409.207 101.376 408.791 101.855 408.307 102.273C407.829 102.698 407.272 103.056 406.66 103.318C405.446 103.87 404.006 104.014 402.625 103.716C401.248 103.395 400.008 102.65 399.145 101.632C398.703 101.134 398.353 100.571 398.101 99.9831C397.842 99.3991 397.671 98.7881 397.604 98.1801C397.437 96.9641 397.674 95.7861 398.094 94.7921C398.521 93.7931 399.189 92.9981 399.892 92.4131C401.326 91.2351 402.882 90.9511 403.882 90.9561C404.905 90.9651 405.438 91.1731 405.438 91.1731C405.431 91.2181 404.884 91.0631 403.887 91.0981C402.909 91.1351 401.415 91.4541 400.059 92.6101C399.394 93.1841 398.768 93.9531 398.373 94.9111C397.986 95.8641 397.77 96.9861 397.938 98.1371C398.005 98.7121 398.171 99.2901 398.42 99.8421C398.661 100.398 398.995 100.928 399.415 101.398C400.234 102.358 401.405 103.057 402.705 103.361C404.011 103.641 405.367 103.509 406.517 102.991C407.097 102.746 407.625 102.409 408.08 102.009C408.541 101.616 408.937 101.165 409.244 100.674C409.888 99.7051 410.172 98.5981 410.229 97.5711C410.281 96.5361 410.043 95.5741 409.687 94.7711C408.955 93.1461 407.74 92.2201 406.871 91.7681C405.987 91.3101 405.425 91.2161 405.438 91.1731Z" fill="#E0E0E0"/>
<path d="M410.52 84.3911C410.516 84.3941 410.511 84.3191 410.506 84.1691C410.502 84.0031 410.497 83.7811 410.49 83.4931C410.481 82.8741 410.469 81.9811 410.453 80.8221L410.498 80.8781C409.02 80.5561 407.077 80.1321 404.727 79.6191L404.83 79.5691C404.37 80.5481 403.859 81.6351 403.313 82.7981L403.286 82.8561L403.221 82.8591C402.022 82.9101 400.747 83.1171 399.459 83.5271L399.39 83.5491L399.338 83.4981C398.547 82.7151 397.691 81.8671 396.801 80.9861L396.962 81.0041C395.393 82.0031 393.729 83.0631 391.981 84.1771L392.039 84.0081C392.412 85.0481 392.822 86.1951 393.243 87.3691L393.274 87.4551L393.212 87.5221C392.407 88.3921 391.635 89.4561 391.023 90.6401L390.979 90.7241H390.884C389.778 90.7281 388.558 90.7321 387.316 90.7371L387.474 90.6111C387.07 92.4221 386.635 94.3751 386.189 96.3761L386.096 96.1861C387.1 96.6621 388.203 97.1841 389.321 97.7141L389.415 97.7591L389.419 97.8641C389.466 99.0561 389.675 100.353 390.075 101.611L390.107 101.713L390.032 101.789C389.243 102.582 388.383 103.447 387.514 104.32L387.538 104.099C388.54 105.678 389.613 107.371 390.701 109.087L390.488 109.014C391.55 108.636 392.697 108.227 393.852 107.816L393.956 107.779L394.037 107.854C394.923 108.676 395.984 109.441 397.142 110.042L397.143 110.043H397.144C397.188 110.115 397.047 109.882 397.243 110.204V110.208V110.215V110.229V110.257V110.313V110.425V110.65L397.244 111.099L397.246 111.994C397.247 112.59 397.248 113.183 397.25 113.773L397.108 113.596C399.056 114.033 400.978 114.465 402.872 114.89L402.67 114.988C403.186 113.903 403.696 112.829 404.202 111.765L404.248 111.667L404.356 111.663C405.642 111.614 406.906 111.391 408.104 111.013L408.206 110.981L408.282 111.056C409.137 111.908 409.979 112.748 410.81 113.577L410.595 113.554C412.299 112.477 413.964 111.424 415.587 110.398L415.519 110.595C415.114 109.453 414.716 108.332 414.326 107.23L414.293 107.137L414.36 107.065C415.245 106.112 415.981 105.059 416.558 103.955L416.602 103.87H416.697C417.921 103.869 419.107 103.869 420.265 103.868L420.118 103.986C420.577 101.959 421.01 100.047 421.423 98.2251L421.499 98.3811C420.366 97.8401 419.304 97.3321 418.279 96.8421L418.207 96.8081L418.204 96.7291C418.153 95.3671 417.917 94.1141 417.56 92.9661L417.538 92.8961L417.589 92.8451C418.507 91.9291 419.335 91.1031 420.116 90.3241L420.101 90.4571C418.885 88.5191 417.849 86.8671 416.962 85.4541L417.058 85.4871C415.712 85.9571 414.607 86.3421 413.687 86.6631L413.653 86.6751L413.627 86.6511C412.679 85.7651 411.873 85.2271 411.335 84.8851C411.071 84.7261 410.869 84.6041 410.721 84.5151C410.58 84.4341 410.516 84.3931 410.52 84.3911C410.524 84.3881 410.599 84.4221 410.737 84.4891C410.878 84.5611 411.091 84.6711 411.367 84.8341C411.918 85.1601 412.739 85.6861 413.707 86.5651L413.648 86.5531C414.564 86.2201 415.663 85.8211 417.003 85.3341L417.064 85.3121L417.099 85.3671C417.999 86.7731 419.049 88.4151 420.282 90.3431L420.328 90.4151L420.267 90.4761C419.491 91.2611 418.669 92.0921 417.757 93.0141L417.786 92.8941C418.156 94.0591 418.405 95.3321 418.463 96.7191L418.389 96.6061C419.416 97.0911 420.481 97.5931 421.616 98.1291L421.716 98.1761L421.692 98.2851C421.287 100.108 420.861 102.023 420.41 104.051L420.384 104.169H420.263C419.104 104.173 417.918 104.178 416.695 104.183L416.834 104.098C416.248 105.228 415.499 106.307 414.596 107.284L414.63 107.119C415.023 108.22 415.424 109.34 415.831 110.481L415.876 110.607L415.763 110.679C414.142 111.708 412.479 112.764 410.777 113.845L410.66 113.919L410.562 113.821C409.73 112.993 408.886 112.155 408.03 111.304L408.207 111.347C406.98 111.735 405.685 111.966 404.367 112.017L404.521 111.915C404.016 112.979 403.507 114.054 402.992 115.14L402.93 115.27L402.789 115.239C400.895 114.815 398.973 114.384 397.025 113.948L396.883 113.916V113.771C396.882 113.181 396.88 112.587 396.879 111.992L396.877 111.097L396.876 110.648V110.423V110.311V110.255V110.227V110.213V110.206V110.202C397.072 110.523 396.93 110.291 396.973 110.363H396.972L396.97 110.362C395.781 109.745 394.694 108.961 393.786 108.118L393.97 108.156C392.815 108.567 391.668 108.975 390.606 109.353L390.47 109.402L390.393 109.28C389.306 107.563 388.234 105.869 387.234 104.289L387.158 104.169L387.259 104.068C388.129 103.195 388.99 102.332 389.78 101.54L389.737 101.717C389.329 100.427 389.117 99.0981 389.071 97.8771L389.17 98.0261C388.054 97.4941 386.952 96.9701 385.949 96.4921L385.827 96.4341L385.857 96.3021C386.308 94.3021 386.748 92.3501 387.157 90.5401L387.186 90.4131H387.315C388.557 90.4121 389.777 90.4121 390.883 90.4111L390.744 90.4951C391.374 89.2861 392.166 88.2021 392.991 87.3171L392.96 87.4691C392.544 86.2931 392.138 85.1451 391.769 84.1031L391.731 83.9951L391.828 83.9341C393.581 82.8291 395.251 81.7761 396.824 80.7851L396.912 80.7301L396.985 80.8031C397.87 81.6901 398.722 82.5421 399.508 83.3291L399.388 83.3001C400.699 82.8911 401.996 82.6901 403.214 82.6471L403.122 82.7081C403.678 81.5491 404.198 80.4661 404.666 79.4911L404.698 79.4241L404.77 79.4401C407.114 79.9801 409.052 80.4271 410.526 80.7661L410.572 80.7771V80.8231C410.561 81.9711 410.553 82.8561 410.548 83.4701C410.543 83.7621 410.538 83.9871 410.535 84.1551C410.528 84.3081 410.524 84.3881 410.52 84.3911Z" fill="#E0E0E0"/>
<path d="M445.461 372.446C445.461 372.446 445.449 372.071 445.444 371.357C445.44 370.635 445.434 369.58 445.426 368.201C445.417 365.428 445.403 361.362 445.385 356.141C445.364 345.705 445.334 330.663 445.298 312.197L445.462 312.361C417.523 312.374 381.075 312.391 341.334 312.41H341.326L341.539 312.197C341.534 333.52 341.529 353.894 341.524 372.446L341.326 372.248C371.822 372.287 397.829 372.321 416.224 372.344C425.428 372.367 432.726 372.385 437.734 372.398C440.233 372.409 442.157 372.417 443.469 372.422C444.116 372.427 444.609 372.431 444.952 372.434C445.284 372.438 445.461 372.446 445.461 372.446C445.461 372.446 445.301 372.454 444.974 372.458C444.637 372.461 444.151 372.465 443.514 372.47C442.211 372.476 440.3 372.484 437.819 372.494C432.822 372.507 425.539 372.525 416.354 372.548C397.927 372.572 371.874 372.605 341.325 372.644H341.127V372.446C341.122 353.894 341.117 333.52 341.112 312.197V311.984H341.325H341.333C381.074 312.003 417.523 312.02 445.461 312.033H445.626V312.197C445.589 330.706 445.56 345.782 445.539 356.243C445.521 361.448 445.507 365.502 445.497 368.266C445.489 369.632 445.483 370.677 445.479 371.392C445.472 372.094 445.461 372.446 445.461 372.446Z" fill="#E0E0E0"/>
<path d="M445.5 319.492C445.5 319.61 422.207 319.705 393.481 319.705C364.745 319.705 341.457 319.61 341.457 319.492C341.457 319.374 364.745 319.279 393.481 319.279C422.207 319.279 445.5 319.374 445.5 319.492Z" fill="#E0E0E0"/>
<path d="M382.511 329.426H350.344V361.593H382.511V329.426Z" fill="#F5F5F5"/>
<path d="M437.909 334.732C437.909 334.747 437.746 334.761 437.436 334.775C437.079 334.786 436.63 334.799 436.079 334.815C434.842 334.832 433.152 334.855 431.09 334.883C426.825 334.899 421.031 334.921 414.63 334.945C408.226 334.921 402.432 334.899 398.167 334.883C396.104 334.855 394.414 334.832 393.178 334.815C392.627 334.799 392.179 334.786 391.822 334.775C391.512 334.761 391.349 334.747 391.349 334.732C391.349 334.717 391.512 334.703 391.822 334.689C392.179 334.678 392.628 334.665 393.178 334.649C394.414 334.632 396.104 334.609 398.167 334.581C402.432 334.565 408.226 334.543 414.63 334.518C421.031 334.542 426.825 334.564 431.09 334.581C433.153 334.609 434.843 334.632 436.079 334.649C436.63 334.665 437.079 334.678 437.436 334.689C437.746 334.703 437.909 334.717 437.909 334.732Z" fill="#E0E0E0"/>
<path d="M438.945 341.917C438.945 341.932 438.779 341.946 438.462 341.96C438.099 341.97 437.639 341.984 437.075 342C435.813 342.017 434.085 342.04 431.975 342.068C427.617 342.084 421.693 342.106 415.148 342.13C408.601 342.106 402.676 342.084 398.318 342.068C396.208 342.04 394.479 342.017 393.218 342C392.654 341.984 392.195 341.97 391.832 341.96C391.515 341.946 391.348 341.932 391.348 341.917C391.348 341.902 391.515 341.888 391.832 341.874C392.195 341.864 392.654 341.85 393.218 341.834C394.48 341.817 396.208 341.794 398.318 341.766C402.676 341.75 408.6 341.728 415.148 341.704C421.693 341.728 427.617 341.75 431.975 341.766C434.085 341.794 435.814 341.817 437.075 341.834C437.639 341.85 438.098 341.864 438.462 341.874C438.778 341.888 438.945 341.903 438.945 341.917Z" fill="#E0E0E0"/>
<path d="M438.945 349.103C438.945 349.118 438.779 349.132 438.462 349.146C438.099 349.156 437.639 349.17 437.075 349.186C435.813 349.203 434.085 349.226 431.975 349.254C427.617 349.27 421.693 349.292 415.148 349.316C408.601 349.292 402.676 349.27 398.318 349.254C396.208 349.226 394.479 349.203 393.218 349.186C392.654 349.17 392.195 349.156 391.832 349.146C391.515 349.132 391.348 349.118 391.348 349.103C391.348 349.088 391.515 349.074 391.832 349.06C392.195 349.05 392.654 349.036 393.218 349.02C394.48 349.003 396.208 348.98 398.318 348.952C402.676 348.936 408.6 348.914 415.148 348.89C421.693 348.914 427.617 348.936 431.975 348.952C434.085 348.98 435.814 349.003 437.075 349.02C437.639 349.036 438.098 349.049 438.462 349.06C438.778 349.074 438.945 349.088 438.945 349.103Z" fill="#E0E0E0"/>
<path d="M438.945 356.288C438.945 356.303 438.779 356.317 438.462 356.331C438.099 356.341 437.639 356.355 437.075 356.371C435.813 356.388 434.085 356.411 431.975 356.439C427.617 356.455 421.693 356.477 415.148 356.501C408.601 356.477 402.676 356.455 398.318 356.439C396.208 356.411 394.479 356.388 393.218 356.371C392.654 356.355 392.195 356.341 391.832 356.331C391.515 356.317 391.348 356.303 391.348 356.288C391.348 356.273 391.515 356.259 391.832 356.245C392.195 356.235 392.654 356.221 393.218 356.205C394.48 356.188 396.208 356.165 398.318 356.137C402.676 356.121 408.6 356.099 415.148 356.075C421.693 356.099 427.617 356.121 431.975 356.137C434.085 356.165 435.814 356.188 437.075 356.205C437.639 356.221 438.098 356.235 438.462 356.245C438.778 356.259 438.945 356.273 438.945 356.288Z" fill="#E0E0E0"/>
<path d="M144.338 86.743C168.24 86.743 187.616 67.3668 187.616 43.465C187.616 19.5632 168.24 0.187012 144.338 0.187012C120.436 0.187012 101.06 19.5632 101.06 43.465C101.06 67.3668 120.436 86.743 144.338 86.743Z" fill="#F5F5F5"/>
<path d="M163.988 44.797C163.988 44.833 163.447 44.867 162.459 44.898C161.377 44.92 159.965 44.948 158.253 44.983C154.684 45.033 149.711 45.066 144.097 45.075H143.819V44.797C143.818 43.899 143.818 42.952 143.817 41.991C143.817 35.722 143.848 30.047 143.899 25.939C143.935 23.959 143.965 22.32 143.988 21.075C144.021 19.927 144.058 19.292 144.097 19.292C144.136 19.292 144.173 19.927 144.206 21.075C144.229 22.32 144.259 23.959 144.295 25.939C144.346 30.047 144.377 35.722 144.377 41.991C144.376 42.952 144.375 43.899 144.375 44.797L144.097 44.519C149.71 44.528 154.683 44.561 158.253 44.611C159.965 44.646 161.377 44.674 162.459 44.696C163.447 44.727 163.988 44.761 163.988 44.797Z" fill="#E0E0E0"/>
<path d="M144.23 14.5659C144.385 14.5659 144.51 12.9385 144.51 10.9309C144.51 8.92334 144.385 7.2959 144.23 7.2959C144.075 7.2959 143.95 8.92334 143.95 10.9309C143.95 12.9385 144.075 14.5659 144.23 14.5659Z" fill="#E0E0E0"/>
<path d="M161.611 15.8673C163.011 14.4681 164.056 13.2451 163.947 13.1358C163.838 13.0264 162.615 14.0721 161.215 15.4713C159.816 16.8706 158.771 18.0935 158.88 18.2029C158.989 18.3122 160.212 17.2666 161.611 15.8673Z" fill="#E0E0E0"/>
<path d="M175.479 25.73C175.55 25.871 174.177 26.697 172.497 27.72C170.814 28.74 169.449 29.579 169.357 29.451C169.267 29.329 170.501 28.276 172.207 27.242C173.908 26.205 175.412 25.594 175.479 25.73Z" fill="#E0E0E0"/>
<path d="M177.279 44.7011C180.017 44.7011 182.236 44.5758 182.236 44.4211C182.236 44.2665 180.017 44.1411 177.279 44.1411C174.541 44.1411 172.322 44.2665 172.322 44.4211C172.322 44.5758 174.541 44.7011 177.279 44.7011Z" fill="#E0E0E0"/>
<path d="M108.812 44.04C111.398 44.04 113.494 43.9146 113.494 43.76C113.494 43.6053 111.398 43.48 108.812 43.48C106.226 43.48 104.13 43.6053 104.13 43.76C104.13 43.9146 106.226 44.04 108.812 44.04Z" fill="#E0E0E0"/>
<path d="M118.356 57.6761C118.457 57.7931 116.873 59.2301 114.818 60.8851C112.762 62.5411 111.021 63.7821 110.929 63.6581C110.836 63.5341 112.42 62.0971 114.467 60.4491C116.513 58.8011 118.254 57.5591 118.356 57.6761Z" fill="#E0E0E0"/>
<path d="M130.35 68.437C130.479 68.531 129.304 70.338 127.942 72.611C126.574 74.881 125.53 76.766 125.387 76.697C125.252 76.633 126.079 74.619 127.462 72.323C128.839 70.024 130.23 68.348 130.35 68.437Z" fill="#E0E0E0"/>
<path d="M144.23 82.3171C144.385 82.3171 144.51 80.0978 144.51 77.3601C144.51 74.6224 144.385 72.4031 144.23 72.4031C144.075 72.4031 143.95 74.6224 143.95 77.3601C143.95 80.0978 144.075 82.3171 144.23 82.3171Z" fill="#E0E0E0"/>
<path d="M165.599 75.7119C165.521 75.8369 163.581 74.7209 161.512 72.9119C159.436 71.1089 158.067 69.3399 158.18 69.2449C158.301 69.1379 159.837 70.7159 161.88 72.4899C163.915 74.2709 165.688 75.5779 165.599 75.7119Z" fill="#E0E0E0"/>
<path d="M172.344 62.0228C174.047 63.7263 175.517 65.0186 175.626 64.9092C175.735 64.7999 174.443 63.3303 172.74 61.6269C171.036 59.9234 169.567 58.6311 169.457 58.7405C169.348 58.8498 170.64 60.3194 172.344 62.0228Z" fill="#E0E0E0"/>
<path d="M115.004 27.928C116.494 29.4186 117.791 30.5383 117.901 30.429C118.01 30.3197 116.89 29.0226 115.4 27.532C113.909 26.0414 112.612 24.9217 112.503 25.031C112.393 25.1403 113.513 26.4374 115.004 27.928Z" fill="#E0E0E0"/>
<path d="M127.431 14.9515C128.894 16.4083 130.169 17.5005 130.278 17.3909C130.387 17.2813 129.289 16.0115 127.826 14.5546C126.362 13.0978 125.088 12.0056 124.978 12.1152C124.869 12.2248 125.967 13.4946 127.431 14.9515Z" fill="#E0E0E0"/>
<g opacity="0.8">
<g opacity="0.8">
<g opacity="0.8">
<path opacity="0.8" fill-rule="evenodd" clip-rule="evenodd" d="M379.739 21.2939C382.027 22.4859 384.115 23.9669 385.965 25.6799L392.617 23.3119L398.869 33.1809L393.887 38.1849C394.645 40.5889 395.094 43.1099 395.194 45.6889L401.571 48.7169L399.013 60.1169L391.955 60.1329C390.764 62.4219 389.281 64.5099 387.568 66.3599L389.936 73.0129L380.068 79.2649L375.063 74.2829C372.659 75.0409 370.138 75.4879 367.559 75.5879L364.532 81.9649L353.131 79.4079L353.116 72.3489C350.827 71.1579 348.74 69.6759 346.89 67.9619L340.236 70.3299L333.983 60.4609L338.967 55.4569C338.209 53.0529 337.762 50.5329 337.66 47.9539L331.285 44.9259L333.842 33.5259L340.9 33.5109C342.091 31.2219 343.574 29.1339 345.287 27.2839L342.919 20.6309L352.787 14.3789L357.792 19.3619C360.196 18.6039 362.716 18.1559 365.296 18.0559L368.323 11.6799L379.722 14.2369L379.739 21.2939ZM369.688 34.7089C362.935 33.1939 356.231 37.4399 354.716 44.1949C353.201 50.9489 357.449 57.6519 364.202 59.1669C370.957 60.6819 377.659 56.4349 379.174 49.6809C380.689 42.9269 376.443 36.2239 369.688 34.7089Z" fill="#EBEBEB"/>
</g>
</g>
</g>
<path d="M44.701 121.583H118.674C118.674 121.583 112.133 109.679 93.0921 111.412C74.9071 113.067 73.982 105.556 64.736 104.631C55.488 103.706 47.783 110.795 44.701 121.583Z" fill="#F5F5F5"/>
<path d="M204.797 256.075H264.673C264.673 256.075 259.378 246.44 243.966 247.842C229.247 249.181 228.498 243.102 221.014 242.353C213.529 241.605 207.292 247.343 204.797 256.075Z" fill="#F5F5F5"/>
<path d="M461.145 403.82C461.145 403.964 358.097 404.08 231.011 404.08C103.88 404.08 0.85498 403.963 0.85498 403.82C0.85498 403.676 103.881 403.56 231.011 403.56C358.097 403.56 461.145 403.676 461.145 403.82Z" fill="#263238"/>
<path d="M436.192 104.125H290.909V201.401H436.192V104.125Z" fill="white"/>
<path d="M436.191 201.401C436.191 201.401 436.176 200.793 436.169 199.631C436.164 198.462 436.156 196.744 436.146 194.499C436.134 189.997 436.116 183.392 436.093 174.935C436.067 158.034 436.029 133.741 435.984 104.125L436.192 104.333C396.159 104.347 345.656 104.366 290.921 104.385H290.909L291.169 104.125C291.161 138.78 291.154 171.734 291.147 201.4L290.909 201.162C333.677 201.21 369.966 201.251 395.576 201.28C408.391 201.307 418.531 201.329 425.479 201.344C428.948 201.357 431.619 201.366 433.433 201.373C434.331 201.379 435.016 201.384 435.487 201.387C435.949 201.391 436.191 201.401 436.191 201.401C436.191 201.401 435.967 201.41 435.514 201.415C435.049 201.418 434.374 201.423 433.487 201.429C431.684 201.436 429.029 201.445 425.581 201.458C418.646 201.473 408.524 201.495 395.732 201.522C370.084 201.551 333.741 201.592 290.909 201.64H290.67V201.401C290.663 171.735 290.656 138.78 290.648 104.126V103.866H290.909H290.921C345.656 103.886 396.159 103.904 436.192 103.918H436.401V104.126C436.355 133.797 436.318 158.134 436.292 175.065C436.269 183.502 436.251 190.091 436.239 194.582C436.229 196.81 436.221 198.516 436.216 199.675C436.206 200.822 436.191 201.401 436.191 201.401Z" fill="#DE6A1E"/>
<path d="M290.909 112.806C290.909 112.662 323.407 112.546 363.487 112.546C403.58 112.546 436.072 112.663 436.072 112.806C436.072 112.949 403.581 113.066 363.487 113.066C323.407 113.066 290.909 112.95 290.909 112.806Z" fill="#DE6A1E"/>
<g opacity="0.3">
<path opacity="0.3" d="M295.476 109.591C296.119 109.591 296.64 109.07 296.64 108.427C296.64 107.784 296.119 107.263 295.476 107.263C294.833 107.263 294.312 107.784 294.312 108.427C294.312 109.07 294.833 109.591 295.476 109.591Z" fill="#DE6A1E"/>
</g>
<g opacity="0.3">
<path opacity="0.3" d="M299.466 109.591C300.109 109.591 300.63 109.07 300.63 108.427C300.63 107.784 300.109 107.263 299.466 107.263C298.823 107.263 298.302 107.784 298.302 108.427C298.302 109.07 298.823 109.591 299.466 109.591Z" fill="#DE6A1E"/>
</g>
<g opacity="0.3">
<path opacity="0.3" d="M303.399 109.591C304.042 109.591 304.563 109.07 304.563 108.427C304.563 107.784 304.042 107.263 303.399 107.263C302.756 107.263 302.235 107.784 302.235 108.427C302.235 109.07 302.756 109.591 303.399 109.591Z" fill="#DE6A1E"/>
</g>
<g opacity="0.3">
<path opacity="0.3" d="M342.153 122.95H303.399V161.704H342.153V122.95Z" fill="#DE6A1E"/>
</g>
<path d="M416.268 133.904C416.268 134.048 401.153 134.164 382.513 134.164C363.866 134.164 348.755 134.047 348.755 133.904C348.755 133.761 363.866 133.644 382.513 133.644C401.154 133.644 416.268 133.76 416.268 133.904Z" fill="#DE6A1E"/>
<path d="M416.268 141.106C416.268 141.25 401.153 141.366 382.513 141.366C363.866 141.366 348.755 141.249 348.755 141.106C348.755 140.962 363.866 140.846 382.513 140.846C401.154 140.846 416.268 140.962 416.268 141.106Z" fill="#DE6A1E"/>
<path d="M416.268 148.308C416.268 148.452 401.153 148.568 382.513 148.568C363.866 148.568 348.755 148.451 348.755 148.308C348.755 148.165 363.866 148.048 382.513 148.048C401.154 148.047 416.268 148.164 416.268 148.308Z" fill="#DE6A1E"/>
<path d="M388.656 155.509C388.656 155.545 388.098 155.579 387.088 155.61C385.985 155.631 384.546 155.659 382.812 155.693C379.202 155.74 374.214 155.769 368.706 155.769C363.196 155.769 358.208 155.74 354.597 155.693C352.863 155.659 351.424 155.632 350.321 155.61C349.312 155.579 348.753 155.545 348.753 155.509C348.753 155.473 349.311 155.439 350.321 155.408C351.424 155.387 352.862 155.359 354.597 155.325C358.207 155.278 363.195 155.249 368.706 155.249C374.214 155.249 379.202 155.278 382.812 155.325C384.546 155.359 385.985 155.386 387.088 155.408C388.098 155.439 388.656 155.473 388.656 155.509Z" fill="#DE6A1E"/>
<g opacity="0.3">
<path opacity="0.3" d="M324.036 174.77H305.824V192.983H324.036V174.77Z" fill="#DE6A1E"/>
</g>
<g opacity="0.3">
<path opacity="0.3" d="M357.065 174.77H338.853V192.983H357.065V174.77Z" fill="#DE6A1E"/>
</g>
<g opacity="0.3">
<path opacity="0.3" d="M390.095 174.77H371.882V192.983H390.095V174.77Z" fill="#DE6A1E"/>
</g>
<g opacity="0.3">
<path opacity="0.3" d="M423.124 174.77H404.911V192.983H423.124V174.77Z" fill="#DE6A1E"/>
</g>
<path d="M154.632 139.169H25.2101V191.738H154.632V139.169Z" fill="white"/>
<path d="M154.632 191.738C154.632 191.738 154.622 191.415 154.617 190.799C154.613 190.176 154.608 189.265 154.601 188.072C154.593 185.673 154.581 182.149 154.565 177.61C154.547 168.537 154.52 155.412 154.487 139.169L154.631 139.313C121.708 139.329 75.878 139.35 25.218 139.374H25.21L25.415 139.169C25.412 157.578 25.409 175.348 25.406 191.738L25.21 191.542C62.71 191.579 95.039 191.612 118.003 191.634C129.494 191.657 138.639 191.676 144.922 191.688C148.06 191.699 150.481 191.707 152.127 191.713C152.943 191.718 153.565 191.722 153.992 191.725C154.412 191.73 154.632 191.738 154.632 191.738C154.632 191.738 154.428 191.746 154.015 191.75C153.593 191.753 152.979 191.757 152.173 191.762C150.536 191.768 148.129 191.776 145.009 191.787C138.737 191.8 129.607 191.818 118.135 191.841C95.138 191.864 62.763 191.896 25.209 191.934H25.013V191.738C25.01 175.348 25.007 157.578 25.004 139.169V138.964H25.209H25.218C75.879 138.988 121.708 139.009 154.631 139.025H154.775V139.169C154.742 155.449 154.715 168.603 154.697 177.697C154.682 182.222 154.67 185.735 154.661 188.127C154.654 189.309 154.649 190.212 154.645 190.828C154.642 191.435 154.632 191.738 154.632 191.738Z" fill="#DE6A1E"/>
<path d="M25.3401 146.259C25.3401 146.146 54.2681 146.054 89.9451 146.054C125.634 146.054 154.557 146.146 154.557 146.259C154.557 146.372 125.635 146.464 89.9451 146.464C54.2681 146.463 25.3401 146.372 25.3401 146.259Z" fill="#DE6A1E"/>
<g opacity="0.3">
<path opacity="0.3" d="M29.819 144.027C30.3376 144.027 30.758 143.607 30.758 143.088C30.758 142.569 30.3376 142.149 29.819 142.149C29.3004 142.149 28.88 142.569 28.88 143.088C28.88 143.607 29.3004 144.027 29.819 144.027Z" fill="#DE6A1E"/>
</g>
<g opacity="0.3">
<path opacity="0.3" d="M33.037 144.027C33.5556 144.027 33.976 143.607 33.976 143.088C33.976 142.569 33.5556 142.149 33.037 142.149C32.5184 142.149 32.098 142.569 32.098 143.088C32.098 143.607 32.5184 144.027 33.037 144.027Z" fill="#DE6A1E"/>
</g>
<g opacity="0.3">
<path opacity="0.3" d="M36.209 144.027C36.7276 144.027 37.148 143.607 37.148 143.088C37.148 142.569 36.7276 142.149 36.209 142.149C35.6904 142.149 35.27 142.569 35.27 143.088C35.27 143.607 35.6904 144.027 36.209 144.027Z" fill="#DE6A1E"/>
</g>
<g opacity="0.3">
<path opacity="0.3" d="M67.469 154.803H36.209V186.063H67.469V154.803Z" fill="#DE6A1E"/>
</g>
<path d="M145.678 163.18C145.678 163.293 129.592 163.385 109.753 163.385C89.907 163.385 73.824 163.293 73.824 163.18C73.824 163.067 89.907 162.975 109.753 162.975C129.591 162.975 145.678 163.067 145.678 163.18Z" fill="#DE6A1E"/>
<path d="M145.678 169.548C145.678 169.661 129.592 169.753 109.753 169.753C89.907 169.753 73.824 169.661 73.824 169.548C73.824 169.435 89.907 169.343 109.753 169.343C129.591 169.344 145.678 169.435 145.678 169.548Z" fill="#DE6A1E"/>
<path d="M120.079 175.917C120.079 175.931 119.917 175.945 119.609 175.958C119.256 175.968 118.81 175.981 118.261 175.996C117.036 176.012 115.356 176.034 113.304 176.061C109.07 176.077 103.313 176.098 96.951 176.121C90.588 176.098 84.83 176.077 80.596 176.061C78.544 176.034 76.865 176.012 75.64 175.996C75.091 175.98 74.645 175.968 74.292 175.958C73.984 175.945 73.822 175.931 73.822 175.917C73.822 175.903 73.984 175.889 74.292 175.876C74.645 175.866 75.091 175.853 75.64 175.838C76.865 175.822 78.544 175.8 80.596 175.773C84.83 175.757 90.588 175.736 96.951 175.713C103.312 175.736 109.069 175.757 113.304 175.773C115.356 175.8 117.035 175.822 118.261 175.838C118.81 175.854 119.256 175.866 119.609 175.876C119.917 175.889 120.079 175.903 120.079 175.917Z" fill="#DE6A1E"/>
<path d="M249.732 73.11C247.563 71.664 244.584 72.539 242.415 73.986C240.246 75.433 238.392 77.416 235.962 78.361C231.397 80.135 225.415 78.033 221.867 81.409C219.616 83.552 219.386 87.069 217.666 89.657C214.768 94.017 207.815 95.655 207.218 100.856C206.87 103.89 209.271 106.799 212.204 107.65C215.137 108.501 218.363 107.603 220.906 105.912C223.876 103.938 226.209 100.894 229.594 99.77C233.053 98.622 237.322 99.583 240.051 97.168C242.785 94.748 242.372 90.311 244.328 87.228C245.37 85.587 247.012 84.442 248.483 83.172C249.954 81.902 251.355 80.33 251.601 78.402C251.848 76.472 251.057 73.184 249.732 73.11Z" fill="#F5F5F5"/>
<path d="M193.384 285.56C193.507 285.485 193.912 285.889 194.29 286.463C194.667 287.037 194.878 287.569 194.761 287.652C194.644 287.735 194.238 287.331 193.855 286.749C193.472 286.168 193.261 285.635 193.384 285.56Z" fill="#263238"/>
<path d="M189.098 276.54C189.234 276.494 189.767 277.486 190.289 278.755C190.81 280.025 191.127 281.105 190.998 281.168C190.869 281.231 190.335 280.239 189.807 278.952C189.279 277.667 188.962 276.586 189.098 276.54Z" fill="#263238"/>
<path d="M186.779 266.818C186.922 266.8 187.241 267.88 187.492 269.23C187.742 270.581 187.832 271.703 187.692 271.738C187.552 271.772 187.233 270.693 186.98 269.325C186.726 267.959 186.637 266.836 186.779 266.818Z" fill="#263238"/>
<path d="M186.428 256.83C186.572 256.84 186.673 257.962 186.654 259.335C186.635 260.708 186.502 261.827 186.359 261.833C186.215 261.839 186.114 260.718 186.133 259.328C186.152 257.938 186.285 256.819 186.428 256.83Z" fill="#263238"/>
<path d="M188.045 246.966C188.183 247.005 188.061 248.125 187.772 249.467C187.482 250.81 187.132 251.88 186.99 251.858C186.848 251.836 186.97 250.716 187.263 249.357C187.556 247.997 187.906 246.927 188.045 246.966Z" fill="#263238"/>
<path d="M191.641 237.647C191.768 237.714 191.417 238.784 190.855 240.036C190.293 241.289 189.729 242.263 189.594 242.212C189.459 242.162 189.811 241.092 190.38 239.823C190.949 238.554 191.514 237.579 191.641 237.647Z" fill="#263238"/>
<path d="M197.151 229.313C197.262 229.404 196.688 230.373 195.869 231.476C195.052 232.581 194.282 233.405 194.177 233.337C194.042 233.247 194.624 232.285 195.45 231.168C196.278 230.052 197.04 229.222 197.151 229.313Z" fill="#263238"/>
<path d="M202.337 223.895C203.29 222.895 203.979 222.003 203.875 221.904C203.771 221.805 202.914 222.536 201.961 223.537C201.008 224.537 200.319 225.429 200.423 225.528C200.527 225.627 201.384 224.896 202.337 223.895Z" fill="#263238"/>
<path d="M209.325 216.756C210.295 215.772 210.998 214.892 210.896 214.791C210.794 214.69 209.925 215.407 208.955 216.391C207.985 217.375 207.281 218.254 207.384 218.355C207.486 218.456 208.355 217.74 209.325 216.756Z" fill="#263238"/>
<path d="M217.487 207.254C217.602 207.34 216.982 208.28 216.102 209.353C215.221 210.426 214.421 211.218 214.313 211.123C214.206 211.027 214.826 210.088 215.698 209.024C216.571 207.96 217.372 207.168 217.487 207.254Z" fill="#263238"/>
<path d="M222.591 198.67C222.722 198.724 222.393 199.813 221.751 201.051C221.111 202.29 220.419 203.19 220.298 203.116C220.173 203.04 220.659 202.031 221.288 200.812C221.92 199.595 222.457 198.614 222.591 198.67Z" fill="#263238"/>
<path d="M225.025 189.006C225.166 189.015 225.202 190.154 224.971 191.531C224.744 192.909 224.341 193.974 224.204 193.938C224.063 193.901 224.234 192.797 224.457 191.446C224.683 190.096 224.879 188.996 225.025 189.006Z" fill="#263238"/>
<path d="M224.283 179.067C224.42 179.032 224.811 180.102 225.024 181.481C225.24 182.861 225.192 183.999 225.051 184.006C224.905 184.015 224.721 182.913 224.509 181.56C224.301 180.208 224.141 179.103 224.283 179.067Z" fill="#263238"/>
<path d="M220.354 169.92C220.47 169.84 221.205 170.711 221.863 171.943C222.524 173.173 222.846 174.265 222.716 174.318C222.58 174.374 222.052 173.392 221.404 172.189C220.76 170.984 220.232 170.002 220.354 169.92Z" fill="#263238"/>
<path d="M213.376 162.823C213.453 162.705 214.463 163.237 215.536 164.135C216.611 165.031 217.312 165.933 217.21 166.029C217.104 166.131 216.253 165.409 215.202 164.534C214.155 163.656 213.294 162.945 213.376 162.823Z" fill="#263238"/>
<path d="M204.286 158.764C204.316 158.626 205.449 158.764 206.772 159.218C208.096 159.669 209.076 160.253 209.016 160.38C208.955 160.513 207.898 160.151 206.604 159.711C205.31 159.266 204.253 158.906 204.286 158.764Z" fill="#263238"/>
<path d="M194.35 158.312C194.325 158.174 195.426 157.863 196.824 157.792C198.223 157.717 199.349 157.907 199.339 158.047C199.33 158.194 198.215 158.238 196.851 158.312C195.488 158.381 194.375 158.457 194.35 158.312Z" fill="#263238"/>
<path d="M185.125 161.988C185.043 161.875 185.901 161.118 187.137 160.456C188.371 159.79 189.479 159.495 189.527 159.627C189.579 159.764 188.584 160.266 187.383 160.915C186.181 161.558 185.21 162.108 185.125 161.988Z" fill="#263238"/>
<path d="M178.259 169.177C178.138 169.105 178.626 168.071 179.486 166.967C180.344 165.86 181.225 165.132 181.324 165.231C181.429 165.334 180.733 166.206 179.897 167.286C179.057 168.363 178.384 169.253 178.259 169.177Z" fill="#263238"/>
<path d="M174.89 178.52C174.75 178.507 174.752 177.36 175.085 175.998C175.414 174.634 175.933 173.614 176.063 173.665C176.201 173.717 175.911 174.794 175.591 176.121C175.266 177.446 175.036 178.536 174.89 178.52Z" fill="#263238"/>
<path d="M176.077 188.366C175.947 188.417 175.43 187.396 175.1 186.034C174.765 184.672 174.759 183.527 174.898 183.513C175.044 183.497 175.279 184.586 175.606 185.911C175.927 187.237 176.215 188.314 176.077 188.366Z" fill="#263238"/>
<path d="M181.148 196.935C181.042 197.027 180.213 196.248 179.399 195.114C178.582 193.982 178.112 192.943 178.234 192.873C178.36 192.799 179.02 193.7 179.821 194.81C180.62 195.922 181.259 196.839 181.148 196.935Z" fill="#263238"/>
<path d="M188.512 203.677C188.43 203.793 187.44 203.238 186.358 202.363C185.273 201.489 184.524 200.636 184.621 200.532C184.72 200.425 185.616 201.096 186.685 201.958C187.752 202.821 188.596 203.558 188.512 203.677Z" fill="#263238"/>
<path d="M197.18 208.647C197.123 208.779 196.071 208.375 194.832 207.745C193.592 207.115 192.647 206.503 192.72 206.379C192.793 206.255 193.844 206.658 195.068 207.281C196.292 207.904 197.237 208.516 197.18 208.647Z" fill="#263238"/>
<path d="M206.696 211.676C206.671 211.816 205.538 211.729 204.19 211.381C202.841 211.036 201.806 210.57 201.851 210.435C201.897 210.296 202.99 210.536 204.32 210.876C205.648 211.219 206.722 211.533 206.696 211.676Z" fill="#263238"/>
<path d="M216.656 212.189C216.672 212.33 215.559 212.568 214.165 212.593C212.77 212.621 211.65 212.429 211.66 212.288C211.669 212.142 212.786 212.1 214.155 212.072C215.523 212.049 216.64 212.044 216.656 212.189Z" fill="#263238"/>
<path d="M226.281 209.616C226.342 209.743 225.367 210.332 224.052 210.804C222.738 211.279 221.61 211.443 221.576 211.306C221.54 211.164 222.588 210.779 223.875 210.314C225.164 209.852 226.219 209.483 226.281 209.616Z" fill="#263238"/>
<path d="M234.623 204.154C234.718 204.258 233.96 205.105 232.853 205.953C231.748 206.804 230.732 207.316 230.656 207.197C230.577 207.074 231.45 206.376 232.536 205.54C233.624 204.707 234.525 204.045 234.623 204.154Z" fill="#263238"/>
<path d="M241.133 196.588C241.253 196.664 240.743 197.68 239.905 198.794C239.069 199.91 238.235 200.683 238.129 200.589C238.019 200.493 238.666 199.58 239.488 198.481C240.313 197.385 241.01 196.509 241.133 196.588Z" fill="#263238"/>
<path d="M245.464 187.594C245.599 187.636 245.37 188.75 244.847 190.042C244.326 191.335 243.72 192.297 243.593 192.233C243.462 192.168 243.852 191.119 244.364 189.847C244.878 188.576 245.325 187.55 245.464 187.594Z" fill="#263238"/>
<path d="M247.4 177.798C247.542 177.808 247.579 178.942 247.389 180.32C247.202 181.7 246.86 182.782 246.721 182.753C246.578 182.724 246.689 181.61 246.873 180.25C247.061 178.891 247.255 177.788 247.4 177.798Z" fill="#263238"/>
<path d="M247.143 167.808C247.286 167.789 247.488 168.896 247.596 170.282C247.703 171.668 247.673 172.794 247.53 172.796C247.386 172.799 247.183 171.691 247.077 170.322C246.97 168.954 247 167.828 247.143 167.808Z" fill="#263238"/>
<path d="M244.971 158.048C245.108 158.003 245.513 159.055 245.876 160.396C246.239 161.738 246.419 162.85 246.278 162.88C246.138 162.91 245.732 161.859 245.373 160.531C245.014 159.205 244.835 158.092 244.971 158.048Z" fill="#263238"/>
<path d="M241.143 148.807C241.269 148.742 241.873 149.696 242.475 150.947C243.036 152.218 243.383 153.292 243.25 153.346C243.117 153.4 242.559 152.425 242.003 151.167C241.406 149.927 241.013 148.874 241.143 148.807Z" fill="#263238"/>
<path d="M237.702 142.119C237.003 140.927 236.336 140.019 236.212 140.092C236.088 140.165 236.554 141.19 237.253 142.382C237.952 143.574 238.619 144.481 238.743 144.409C238.867 144.336 238.401 143.311 237.702 142.119Z" fill="#263238"/>
<path d="M231.258 131.408C231.386 131.342 232.03 132.266 232.697 133.471C233.364 134.677 233.804 135.713 233.68 135.785C233.556 135.857 232.911 134.934 232.241 133.721C231.57 132.51 231.13 131.474 231.258 131.408Z" fill="#263238"/>
<path d="M227.352 122.212C227.49 122.171 227.99 123.179 228.468 124.463C228.947 125.748 229.227 126.837 229.096 126.895C228.964 126.953 228.465 125.945 227.98 124.643C227.495 123.343 227.214 122.254 227.352 122.212Z" fill="#263238"/>
<path d="M225.65 112.378C225.796 112.373 225.948 113.482 226.094 114.845C226.238 116.209 226.323 117.324 226.18 117.35C226.041 117.376 225.722 116.286 225.576 114.9C225.428 113.515 225.509 112.382 225.65 112.378Z" fill="#263238"/>
<path d="M226.476 102.428C226.619 102.459 226.492 103.572 226.295 104.929C226.095 106.287 225.898 107.389 225.752 107.378C225.611 107.368 225.577 106.233 225.779 104.854C225.981 103.475 226.338 102.397 226.476 102.428Z" fill="#263238"/>
<path d="M229.736 92.9921C229.866 93.0581 229.466 94.102 228.939 95.368C228.409 96.633 227.947 97.652 227.809 97.605C227.674 97.561 227.921 96.4521 228.459 95.1671C228.994 93.8821 229.61 92.9281 229.736 92.9921Z" fill="#263238"/>
<path d="M235.311 84.713C235.419 84.811 234.76 85.714 233.921 86.799C233.08 87.882 232.371 88.747 232.249 88.667C232.13 88.59 232.655 87.581 233.509 86.48C234.361 85.377 235.206 84.617 235.311 84.713Z" fill="#263238"/>
<path d="M242.817 78.1319C242.898 78.2539 242.034 78.9649 240.948 79.8039C239.861 80.6409 238.953 81.2959 238.856 81.1869C238.761 81.0819 239.526 80.2409 240.63 79.3919C241.732 78.5399 242.739 78.0129 242.817 78.1319Z" fill="#263238"/>
<path d="M251.718 73.6049C251.766 73.7429 250.753 74.2179 249.495 74.7639C248.235 75.3069 247.195 75.7189 247.127 75.5889C247.061 75.4639 248.009 74.8369 249.288 74.2859C250.566 73.7319 251.672 73.4709 251.718 73.6049Z" fill="#263238"/>
<path d="M258.97 71.772C258.99 71.914 258.461 72.131 257.787 72.255C257.113 72.379 256.541 72.366 256.51 72.225C256.478 72.085 257.008 71.869 257.693 71.742C258.378 71.616 258.95 71.629 258.97 71.772Z" fill="#263238"/>
<path d="M279.377 42.327C279.377 42.327 291.122 33.949 307.377 39.359C307.377 39.359 308.713 52.815 295.678 63.516" fill="#DE6A1E"/>
<path d="M242.351 67.1901C242.851 67.9401 255.596 88.4321 255.596 88.4321L293.87 64.8521C300.552 60.7351 302.28 51.7811 297.608 45.4741C293.348 39.7231 285.319 38.3371 279.377 42.3271L242.351 67.1901Z" fill="#DE6A1E"/>
<path d="M255.597 88.4319L254.74 102.849C254.74 102.849 279.543 90.8369 273.353 77.4929L255.597 88.4319Z" fill="#263238"/>
<path d="M260.08 55.285C260.08 55.285 243.265 47.865 229.415 58.747L242.351 67.19L260.08 55.285Z" fill="#263238"/>
<path d="M259.961 67.2L236.025 82.172C236.025 82.172 236.847 84.747 237.491 84.532C238.03 84.352 256.016 73.732 261.848 70.284C262.802 69.72 263.021 68.443 262.318 67.586C261.742 66.883 260.733 66.718 259.961 67.2Z" fill="#263238"/>
<path d="M282.007 63.5162C286.239 63.5162 289.67 60.0853 289.67 55.8532C289.67 51.621 286.239 48.1902 282.007 48.1902C277.775 48.1902 274.344 51.621 274.344 55.8532C274.344 60.0853 277.775 63.5162 282.007 63.5162Z" fill="#FAFAFA"/>
<path d="M289.671 55.8531C289.611 55.8571 289.643 55.1701 289.333 54.0071C289.026 52.8661 288.252 51.1941 286.533 49.9081C285.681 49.2801 284.612 48.7481 283.383 48.5381C282.162 48.3361 280.786 48.3791 279.48 48.8811C278.174 49.3531 276.928 50.2441 276.043 51.4741C275.133 52.6881 274.621 54.2461 274.606 55.8521C274.621 57.4591 275.132 59.0171 276.043 60.2311C276.928 61.4621 278.174 62.3531 279.481 62.8251C280.787 63.3271 282.163 63.3711 283.385 63.1681C284.615 62.9581 285.684 62.4261 286.535 61.7971C288.254 60.5111 289.028 58.8401 289.335 57.6991C289.643 56.5361 289.611 55.8501 289.671 55.8531C289.689 55.8531 289.698 56.0211 289.699 56.3451C289.706 56.6671 289.665 57.1481 289.53 57.7491C289.276 58.9351 288.53 60.7021 286.757 62.0911C285.879 62.7701 284.761 63.3511 283.463 63.5931C282.174 63.8271 280.714 63.7971 279.316 63.2761C277.919 62.7851 276.583 61.8441 275.631 60.5331C274.653 59.2401 274.099 57.5701 274.085 55.8521C274.1 54.1341 274.654 52.4651 275.632 51.1721C276.584 49.8621 277.92 48.9201 279.317 48.4301C280.714 47.9091 282.174 47.8791 283.463 48.1131C284.761 48.3551 285.879 48.9371 286.757 49.6151C288.531 51.0041 289.276 52.7711 289.531 53.9571C289.666 54.5581 289.707 55.0391 289.7 55.3611C289.698 55.6851 289.689 55.8541 289.671 55.8531Z" fill="#263238"/>
<path d="M299.001 60.961C298.902 60.971 298.786 59.474 298.199 57.144C297.914 55.978 297.465 54.619 296.867 53.152C296.243 51.696 295.456 50.139 294.472 48.597C293.471 47.066 292.376 45.707 291.305 44.539C290.214 43.39 289.16 42.421 288.215 41.682C286.334 40.189 285.017 39.467 285.067 39.381C285.084 39.35 285.422 39.511 286.021 39.832C286.323 39.988 286.686 40.191 287.086 40.462C287.489 40.728 287.963 41.011 288.439 41.39C289.427 42.102 290.524 43.058 291.653 44.209C292.762 45.379 293.89 46.755 294.909 48.314C295.911 49.884 296.7 51.478 297.31 52.97C297.894 54.472 298.314 55.866 298.556 57.059C298.706 57.649 298.768 58.198 298.845 58.675C298.927 59.151 298.963 59.565 298.981 59.905C299.029 60.583 299.037 60.958 299.001 60.961Z" fill="#263238"/>
<path d="M296.936 62.064C296.837 62.074 296.717 60.551 296.12 58.182C295.83 56.995 295.374 55.612 294.768 54.119C294.136 52.637 293.338 51.051 292.342 49.479C291.329 47.918 290.22 46.531 289.136 45.338C288.032 44.164 286.965 43.172 286.008 42.414C284.103 40.883 282.77 40.138 282.82 40.053C282.838 40.022 283.18 40.189 283.786 40.521C284.092 40.682 284.459 40.892 284.864 41.17C285.271 41.444 285.752 41.735 286.234 42.124C287.233 42.855 288.343 43.834 289.486 45.01C290.607 46.205 291.749 47.609 292.78 49.198C293.794 50.798 294.594 52.42 295.212 53.938C295.804 55.467 296.23 56.884 296.478 58.097C296.63 58.697 296.695 59.255 296.774 59.74C296.858 60.224 296.895 60.646 296.914 60.991C296.962 61.68 296.972 62.061 296.936 62.064Z" fill="#263238"/>
<path d="M390.438 246.759H383.469V269.276H390.438V246.759Z" fill="#DE6A1E"/>
<path d="M403.268 237.492H396.298V269.276H403.268V237.492Z" fill="#DE6A1E"/>
<path d="M416.922 233.164H409.952V269.276H416.922V233.164Z" fill="#DE6A1E"/>
<path d="M430.575 228.599H423.606V269.276H430.575V228.599Z" fill="#DE6A1E"/>
<path d="M148.519 275.972C148.519 275.972 149.09 276.012 150.017 276.441C150.924 276.863 152.209 277.785 153.002 279.463C153.388 280.292 153.652 281.296 153.611 282.382C153.566 283.46 153.278 284.627 152.607 285.654C152.288 286.175 151.872 286.654 151.388 287.072C150.91 287.497 150.353 287.855 149.741 288.117C148.527 288.669 147.087 288.813 145.706 288.516C144.329 288.195 143.089 287.45 142.226 286.432C141.784 285.934 141.434 285.371 141.182 284.783C140.923 284.199 140.752 283.588 140.685 282.98C140.518 281.764 140.756 280.586 141.175 279.592C141.602 278.593 142.27 277.798 142.973 277.213C144.407 276.035 145.963 275.751 146.963 275.756C147.985 275.764 148.519 275.972 148.519 275.972C148.512 276.016 147.965 275.862 146.968 275.897C145.99 275.934 144.496 276.253 143.14 277.409C142.475 277.983 141.849 278.752 141.454 279.71C141.067 280.663 140.851 281.786 141.02 282.937C141.087 283.512 141.253 284.09 141.502 284.642C141.743 285.198 142.077 285.728 142.497 286.198C143.316 287.157 144.487 287.857 145.787 288.161C147.093 288.441 148.449 288.309 149.599 287.791C150.179 287.546 150.708 287.209 151.162 286.809C151.623 286.416 152.019 285.965 152.326 285.473C152.97 284.505 153.254 283.397 153.311 282.37C153.363 281.335 153.125 280.373 152.769 279.57C152.037 277.945 150.822 277.019 149.953 276.567C149.067 276.109 148.506 276.016 148.519 275.972Z" fill="#263238"/>
<path d="M153.6 269.19C153.596 269.193 153.591 269.118 153.586 268.968C153.582 268.802 153.577 268.58 153.57 268.292C153.562 267.672 153.549 266.78 153.533 265.621L153.578 265.677C152.1 265.355 150.157 264.931 147.807 264.418L147.91 264.368C147.45 265.346 146.939 266.434 146.392 267.597L146.365 267.655L146.3 267.658C145.101 267.709 143.826 267.915 142.538 268.326L142.469 268.348L142.417 268.297C141.626 267.514 140.77 266.667 139.88 265.785L140.041 265.802C138.472 266.801 136.808 267.861 135.06 268.975L135.118 268.806C135.491 269.846 135.901 270.992 136.322 272.167L136.353 272.253L136.291 272.32C135.486 273.19 134.714 274.254 134.102 275.438L134.058 275.522H133.963C132.857 275.526 131.637 275.53 130.395 275.535L130.553 275.408C130.149 277.219 129.714 279.172 129.267 281.173L129.175 280.983C130.179 281.459 131.282 281.981 132.4 282.511L132.494 282.556L132.498 282.661C132.545 283.853 132.754 285.15 133.154 286.408L133.186 286.509L133.111 286.585C132.322 287.378 131.462 288.243 130.593 289.116L130.617 288.895C131.619 290.474 132.692 292.167 133.78 293.883L133.567 293.81C134.629 293.432 135.776 293.023 136.93 292.612L137.034 292.575L137.115 292.65C138.001 293.472 139.062 294.237 140.22 294.838L140.222 294.839L140.223 294.84C140.267 294.912 140.126 294.68 140.322 295.001V295.005V295.012V295.026V295.054V295.11V295.222V295.447L140.323 295.896L140.325 296.791C140.326 297.386 140.327 297.98 140.329 298.57L140.187 298.393C142.135 298.83 144.057 299.262 145.951 299.687L145.749 299.785C146.265 298.7 146.775 297.626 147.281 296.562L147.327 296.464L147.435 296.46C148.721 296.411 149.985 296.188 151.183 295.81L151.285 295.778L151.36 295.853C152.215 296.705 153.057 297.545 153.888 298.374L153.673 298.35C155.377 297.273 157.042 296.22 158.665 295.194L158.597 295.391C158.192 294.249 157.795 293.128 157.404 292.026L157.371 291.933L157.438 291.861C158.323 290.908 159.059 289.855 159.636 288.751L159.68 288.666H159.775C160.999 288.665 162.185 288.665 163.343 288.664L163.196 288.782C163.655 286.756 164.089 284.843 164.501 283.021L164.577 283.177C163.445 282.636 162.382 282.128 161.357 281.638L161.285 281.604L161.282 281.525C161.231 280.163 160.995 278.911 160.638 277.762L160.616 277.693L160.667 277.642C161.585 276.726 162.413 275.9 163.194 275.121L163.179 275.254C161.963 273.316 160.927 271.664 160.04 270.251L160.136 270.284C158.79 270.753 157.685 271.139 156.765 271.46L156.731 271.472L156.705 271.448C155.757 270.562 154.951 270.024 154.413 269.682C154.149 269.523 153.947 269.401 153.799 269.312C153.66 269.233 153.596 269.193 153.6 269.19C153.604 269.188 153.679 269.221 153.817 269.288C153.958 269.36 154.171 269.47 154.447 269.633C154.998 269.959 155.819 270.485 156.787 271.364L156.728 271.352C157.644 271.019 158.743 270.62 160.083 270.133L160.144 270.111L160.179 270.166C161.078 271.572 162.129 273.214 163.362 275.142L163.408 275.214L163.347 275.275C162.571 276.06 161.749 276.891 160.837 277.813L160.866 277.693C161.236 278.858 161.485 280.131 161.543 281.518L161.469 281.405C162.496 281.89 163.561 282.392 164.696 282.928L164.796 282.975L164.772 283.084C164.367 284.907 163.941 286.822 163.49 288.85L163.464 288.968H163.343C162.185 288.973 160.998 288.977 159.775 288.982L159.914 288.897C159.328 290.027 158.579 291.105 157.676 292.083L157.71 291.918C158.103 293.019 158.504 294.139 158.911 295.28L158.956 295.406L158.843 295.478C157.222 296.507 155.56 297.563 153.857 298.644L153.74 298.718L153.642 298.62C152.809 297.792 151.966 296.954 151.11 296.103L151.287 296.146C150.06 296.534 148.765 296.765 147.447 296.816L147.601 296.714C147.096 297.778 146.587 298.853 146.072 299.938L146.01 300.068L145.869 300.037C143.975 299.613 142.053 299.182 140.105 298.746L139.963 298.714V298.569C139.962 297.978 139.96 297.385 139.959 296.79L139.957 295.895L139.956 295.446L139.955 295.221V295.109V295.053V295.025V295.011V295.004V295C140.151 295.321 140.009 295.089 140.052 295.16H140.051L140.05 295.159C138.861 294.542 137.774 293.758 136.866 292.915L137.05 292.953C135.895 293.364 134.748 293.772 133.686 294.15L133.55 294.198L133.473 294.076C132.386 292.359 131.314 290.665 130.314 289.085L130.238 288.964L130.338 288.863C131.208 287.99 132.07 287.127 132.859 286.335L132.816 286.512C132.408 285.222 132.196 283.893 132.15 282.673L132.248 282.822C131.132 282.29 130.03 281.766 129.026 281.288L128.904 281.23L128.934 281.098C129.385 279.098 129.825 277.146 130.234 275.336L130.263 275.209H130.392C131.634 275.208 132.854 275.208 133.96 275.207L133.821 275.291C134.451 274.082 135.243 272.998 136.068 272.113L136.037 272.265C135.621 271.089 135.215 269.941 134.846 268.899L134.808 268.791L134.905 268.73C136.658 267.625 138.328 266.572 139.901 265.581L139.989 265.526L140.062 265.599C140.947 266.486 141.799 267.338 142.585 268.125L142.465 268.096C143.776 267.687 145.073 267.486 146.291 267.443L146.199 267.504C146.755 266.345 147.275 265.262 147.743 264.287L147.775 264.22L147.846 264.237C150.19 264.777 152.128 265.223 153.602 265.563L153.648 265.574L153.647 265.62C153.636 266.768 153.628 267.653 153.622 268.267C153.617 268.559 153.613 268.784 153.61 268.952C153.609 269.108 153.604 269.188 153.6 269.19Z" fill="#263238"/>
<path fill-rule="evenodd" clip-rule="evenodd" d="M142.718 224.331C143.997 224.997 145.164 225.825 146.198 226.782L149.916 225.458L153.411 230.974L150.626 233.771C151.05 235.115 151.301 236.524 151.356 237.965L154.92 239.657L153.49 246.028L149.545 246.037C148.879 247.316 148.051 248.483 147.093 249.517L148.417 253.236L142.902 256.731L140.105 253.946C138.761 254.37 137.352 254.62 135.911 254.676L134.219 258.24L127.847 256.811L127.839 252.866C126.56 252.2 125.393 251.372 124.359 250.414L120.64 251.738L117.145 246.222L119.931 243.425C119.507 242.081 119.257 240.673 119.201 239.231L115.638 237.538L117.067 231.166L121.012 231.158C121.678 229.879 122.506 228.711 123.464 227.678L122.14 223.959L127.655 220.464L130.452 223.249C131.796 222.825 133.204 222.575 134.646 222.519L136.338 218.955L142.709 220.384L142.718 224.331ZM137.1 231.828C133.326 230.981 129.578 233.355 128.732 237.13C127.885 240.905 130.259 244.651 134.034 245.498C137.809 246.345 141.556 243.971 142.402 240.196C143.249 236.421 140.875 232.675 137.1 231.828Z" fill="#DE6A1E"/>
<g opacity="0.8">
<g opacity="0.8">
<g opacity="0.8">
<path opacity="0.8" fill-rule="evenodd" clip-rule="evenodd" d="M142.718 224.331C143.997 224.997 145.164 225.825 146.198 226.782L149.916 225.458L153.411 230.974L150.626 233.771C151.05 235.115 151.301 236.524 151.356 237.965L154.92 239.657L153.49 246.028L149.545 246.037C148.879 247.316 148.051 248.483 147.093 249.517L148.417 253.236L142.902 256.731L140.105 253.946C138.761 254.37 137.352 254.62 135.911 254.676L134.219 258.24L127.847 256.811L127.839 252.866C126.56 252.2 125.393 251.372 124.359 250.414L120.64 251.738L117.145 246.222L119.931 243.425C119.507 242.081 119.257 240.673 119.201 239.231L115.638 237.538L117.067 231.166L121.012 231.158C121.678 229.879 122.506 228.711 123.464 227.678L122.14 223.959L127.655 220.464L130.452 223.249C131.796 222.825 133.204 222.575 134.646 222.519L136.338 218.955L142.709 220.384L142.718 224.331ZM137.1 231.828C133.326 230.981 129.578 233.355 128.732 237.13C127.885 240.905 130.259 244.651 134.034 245.498C137.809 246.345 141.556 243.971 142.402 240.196C143.249 236.421 140.875 232.675 137.1 231.828Z" fill="white"/>
</g>
</g>
</g>
<path fill-rule="evenodd" clip-rule="evenodd" d="M119.678 261.865C120.422 262.253 121.102 262.735 121.704 263.292L123.868 262.521L125.902 265.732L124.281 267.36C124.528 268.142 124.674 268.963 124.706 269.802L126.781 270.787L125.949 274.496L123.652 274.501C123.265 275.246 122.782 275.925 122.225 276.527L122.995 278.692L119.784 280.726L118.156 279.105C117.374 279.352 116.554 279.497 115.714 279.53L114.729 281.605L111.019 280.773L111.014 278.476C110.269 278.088 109.59 277.606 108.988 277.049L106.823 277.819L104.789 274.608L106.41 272.98C106.163 272.198 106.018 271.378 105.985 270.539L103.911 269.554L104.743 265.845L107.04 265.84C107.427 265.095 107.91 264.416 108.467 263.814L107.696 261.649L110.907 259.615L112.535 261.236C113.317 260.989 114.137 260.844 114.977 260.811L115.962 258.737L119.671 259.569L119.678 261.865ZM116.408 266.23C114.211 265.737 112.029 267.119 111.536 269.317C111.043 271.514 112.425 273.695 114.623 274.188C116.821 274.681 119.001 273.299 119.494 271.102C119.987 268.904 118.605 266.723 116.408 266.23Z" fill="#DE6A1E"/>
<g opacity="0.4">
<g opacity="0.4">
<g opacity="0.4">
<path opacity="0.4" fill-rule="evenodd" clip-rule="evenodd" d="M119.678 261.865C120.422 262.253 121.102 262.735 121.704 263.292L123.868 262.521L125.902 265.732L124.281 267.36C124.528 268.142 124.674 268.963 124.706 269.802L126.781 270.787L125.949 274.496L123.652 274.501C123.265 275.246 122.782 275.925 122.225 276.527L122.995 278.692L119.784 280.726L118.156 279.105C117.374 279.352 116.554 279.497 115.714 279.53L114.729 281.605L111.019 280.773L111.014 278.476C110.269 278.088 109.59 277.606 108.988 277.049L106.823 277.819L104.789 274.608L106.41 272.98C106.163 272.198 106.018 271.378 105.985 270.539L103.911 269.554L104.743 265.845L107.04 265.84C107.427 265.095 107.91 264.416 108.467 263.814L107.696 261.649L110.907 259.615L112.535 261.236C113.317 260.989 114.137 260.844 114.977 260.811L115.962 258.737L119.671 259.569L119.678 261.865ZM116.408 266.23C114.211 265.737 112.029 267.119 111.536 269.317C111.043 271.514 112.425 273.695 114.623 274.188C116.821 274.681 119.001 273.299 119.494 271.102C119.987 268.904 118.605 266.723 116.408 266.23Z" fill="white"/>
</g>
</g>
</g>
<path d="M340.533 225.065C344.742 223.972 347.868 219.66 347.597 215.32C347.475 213.363 346.747 211.458 346.831 209.5C346.961 206.459 348.979 203.889 350.497 201.252C352.015 198.614 353.034 195.136 351.265 192.66C350.117 191.054 348.09 190.33 346.699 188.929C345.338 187.558 344.692 185.656 343.963 183.867C343.234 182.078 342.289 180.232 340.61 179.276C338.931 178.32 336.356 178.744 335.674 180.552" fill="#263238"/>
<path d="M322.367 175.736C325.363 173.834 326.086 169.423 324.463 166.268C322.84 163.113 319.395 161.197 315.892 160.632C310.822 159.814 305.401 161.611 301.823 165.295C299.889 167.286 298.323 169.883 295.702 170.795C293.398 171.597 290.849 170.873 288.429 171.186C285.186 171.606 282.406 173.912 280.743 176.728C279.08 179.544 278.394 182.828 278.01 186.076C277.657 189.057 277.425 192.328 275.357 194.503C273.34 196.624 270.155 197.074 267.647 198.583C262.929 201.422 261.4 208.455 264.513 212.998C265.506 214.446 266.931 215.774 267.046 217.526C267.151 219.126 266.117 220.55 265.633 222.078C264.387 226.012 267.607 230.687 271.728 230.923C273.808 231.043 276.037 230.232 277.901 231.161C279.753 232.085 280.443 234.319 281.627 236.016C283.957 239.354 288.832 240.613 292.487 238.821C294.017 238.071 295.462 236.832 297.162 236.946C298.859 237.06 300.195 238.509 301.864 238.832C304.05 239.255 306.125 237.645 307.425 235.837C308.724 234.03 309.63 231.9 311.294 230.42C313.472 228.483 316.532 228.004 319.288 227.055C325.371 224.96 330.455 220.132 332.86 214.165C335.266 208.198 334.952 201.194 332.022 195.466" fill="#263238"/>
<path d="M328.947 179.67C331.419 179.937 333.275 182.051 333.221 184.537L330.364 249.209C330.245 256.847 319.08 261.139 310.902 260.949C302.644 260.757 302.377 256.707 302.274 249.44C302.101 237.3 302.116 232.742 302.111 232.812C302.111 232.812 291.68 231.056 289.548 217.437C288.488 210.664 288.853 199.563 289.444 190.489C289.977 182.322 295.411 172.313 303.547 173.192L328.947 179.67Z" fill="#FFBE9D"/>
<path d="M292.441 199.302C292.406 200.224 293.159 201.014 294.121 201.067C295.081 201.121 295.89 200.419 295.924 199.497C295.958 198.575 295.206 197.784 294.246 197.731C293.284 197.677 292.475 198.38 292.441 199.302Z" fill="#263238"/>
<path d="M291.84 196.268C292.056 196.496 293.381 195.52 295.26 195.529C297.137 195.511 298.514 196.481 298.718 196.251C298.818 196.149 298.598 195.738 297.999 195.299C297.409 194.863 296.402 194.437 295.231 194.439C294.061 194.443 293.075 194.872 292.508 195.311C291.93 195.755 291.734 196.166 291.84 196.268Z" fill="#263238"/>
<path d="M311.17 199.302C311.135 200.224 311.887 201.014 312.85 201.067C313.81 201.121 314.619 200.419 314.653 199.497C314.688 198.575 313.935 197.784 312.975 197.731C312.013 197.677 311.204 198.38 311.17 199.302Z" fill="#263238"/>
<path d="M310.309 196.66C310.525 196.888 311.852 195.912 313.73 195.921C315.607 195.903 316.984 196.873 317.188 196.643C317.288 196.541 317.071 196.13 316.469 195.692C315.879 195.255 314.872 194.83 313.701 194.832C312.531 194.836 311.545 195.265 310.978 195.704C310.401 196.146 310.203 196.557 310.309 196.66Z" fill="#263238"/>
<path d="M303.459 210.579C303.468 210.472 302.301 210.268 300.408 210.022C299.928 209.971 299.474 209.875 299.394 209.548C299.282 209.201 299.484 208.684 299.717 208.126C300.171 206.966 300.646 205.75 301.144 204.476C303.126 199.279 304.562 195.005 304.352 194.927C304.142 194.849 302.365 198.998 300.383 204.196C299.906 205.478 299.45 206.699 299.016 207.868C298.833 208.413 298.52 209.031 298.763 209.751C298.891 210.11 299.243 210.371 299.551 210.454C299.858 210.548 300.128 210.554 300.366 210.569C302.27 210.675 303.451 210.686 303.459 210.579Z" fill="#263238"/>
<path d="M302.112 232.811C302.112 232.811 311.27 233.422 320.357 227.987C320.357 227.987 315.736 237.586 302.112 236.282V232.811Z" fill="#EB996E"/>
<path d="M304.243 215.109C304.921 214.217 306.106 213.729 307.281 213.858C308.096 213.947 308.919 214.342 309.413 215.008C309.907 215.673 310.009 216.616 309.557 217.248C309.048 217.96 307.988 218.122 307.092 217.865C306.196 217.608 305.425 217.016 304.694 216.426C304.492 216.263 304.285 216.093 304.159 215.869C304.033 215.646 304.006 215.354 304.163 215.17" fill="#DE6A1E"/>
<path d="M308.986 211.891C308.68 211.873 308.672 213.912 306.923 215.356C305.178 216.804 303.004 216.57 302.987 216.856C302.958 216.984 303.47 217.253 304.388 217.28C305.288 217.313 306.603 217.027 307.673 216.143C308.74 215.258 309.2 214.074 309.272 213.238C309.351 212.385 309.125 211.88 308.986 211.891Z" fill="#263238"/>
<path d="M309.471 193.368C309.655 193.879 311.532 193.641 313.735 193.912C315.945 194.138 317.721 194.788 318.014 194.33C318.145 194.111 317.836 193.63 317.119 193.134C316.408 192.639 315.272 192.167 313.949 192.016C312.626 191.868 311.414 192.076 310.61 192.401C309.8 192.725 309.391 193.125 309.471 193.368Z" fill="#263238"/>
<path d="M292.543 190.832C292.873 191.259 294.168 190.819 295.725 190.802C297.281 190.73 298.599 191.095 298.903 190.649C299.036 190.432 298.83 190.005 298.255 189.599C297.688 189.195 296.74 188.864 295.67 188.894C294.601 188.926 293.673 189.31 293.131 189.746C292.579 190.184 292.398 190.623 292.543 190.832Z" fill="#263238"/>
<path d="M320.01 175.242C323.129 173.144 327.169 172.178 330.802 173.221C334.435 174.264 337.445 177.537 337.567 181.237C337.647 183.642 336.608 186.199 337.676 188.368C338.692 190.432 341.195 191.272 342.97 192.768C345.757 195.117 346.581 199.416 344.851 202.592C343.365 205.321 340.239 207.321 339.977 210.403C339.731 213.302 342.174 215.749 342.769 218.599C343.425 221.744 341.684 224.996 339.19 227.082C336.696 229.168 333.544 230.317 330.463 231.426C328.06 232.291 325.485 233.169 322.991 232.603C320.019 231.929 317.799 229.173 317.391 226.217C316.983 223.261 318.201 220.229 320.226 217.998C321.975 216.072 324.427 214.436 324.847 211.894C325.501 207.935 320.784 204.681 321.075 200.681C321.225 198.618 322.679 196.91 323.891 195.214C325.102 193.518 326.159 191.384 325.415 189.447C324.449 186.93 321.14 186.274 319.142 184.428C317.471 182.884 316.797 180.386 317.472 178.237C318.147 176.088 320.138 174.39 322.408 174.029" fill="#263238"/>
<path d="M321.474 172.172C321.484 174.897 320.228 177.601 318.138 179.35C316.048 181.099 313.165 181.86 310.484 181.37C308.404 180.99 306.124 179.938 304.324 181.047C302.43 182.213 302.352 185.067 300.672 186.525C298.272 188.608 294.455 186.654 291.408 187.557C289.055 188.255 287.585 190.504 286.022 192.396C284.459 194.288 282.117 196.087 279.764 195.389C279.914 193.274 280.068 191.136 280.698 189.111C281.328 187.086 282.486 185.153 284.263 183.996C285.237 183.362 286.368 182.975 287.272 182.245C289.225 180.668 289.678 177.924 290.884 175.722C292.439 172.884 295.442 170.892 298.661 170.563C301.339 170.289 304.099 171.093 306.71 170.435C308.64 169.949 310.326 168.696 312.281 168.324C316.089 167.6 319.628 170.333 322.389 173.053" fill="#263238"/>
<path d="M346.343 204.719C346.276 204.698 346.748 204.202 346.645 203.149C346.56 202.121 345.702 200.656 343.904 200.017C343.035 199.666 342.014 199.461 340.911 199.211C339.815 198.948 338.592 198.625 337.521 197.814C336.417 197.02 335.825 195.578 335.757 194.171C335.669 192.751 335.894 191.323 335.967 189.885C335.996 189.167 335.978 188.462 335.86 187.79C335.722 187.124 335.445 186.518 335.057 186.002C334.239 184.982 332.955 184.528 331.779 184.121C330.583 183.736 329.411 183.296 328.44 182.681C327.458 182.085 326.641 181.383 325.98 180.671C324.647 179.245 323.946 177.8 323.575 176.792C323.39 176.284 323.278 175.879 323.226 175.6C323.169 175.322 323.148 175.175 323.165 175.171C323.212 175.159 323.347 175.739 323.763 176.717C324.184 177.685 324.918 179.066 326.245 180.417C327.553 181.796 329.487 182.995 331.931 183.666C333.113 184.067 334.499 184.517 335.453 185.68C335.901 186.263 336.215 186.956 336.367 187.688C336.499 188.421 336.516 189.166 336.486 189.908C336.408 191.386 336.186 192.798 336.264 194.136C336.331 195.464 336.838 196.708 337.814 197.434C338.77 198.178 339.936 198.516 341.009 198.79C342.096 199.056 343.139 199.285 344.042 199.676C344.942 200.053 345.702 200.605 346.153 201.26C346.614 201.904 346.813 202.579 346.845 203.131C346.873 203.688 346.735 204.113 346.599 204.365C346.466 204.622 346.35 204.725 346.343 204.719Z" fill="#455A64"/>
<path d="M266.146 213.216C266.142 213.224 266.068 213.189 265.923 213.111C265.781 213.033 265.587 212.87 265.412 212.596C265.071 212.037 265.052 210.958 265.69 209.907C265.994 209.382 266.481 208.853 267.148 208.512C267.798 208.159 268.551 207.89 269.337 207.589C270.116 207.283 270.957 206.931 271.627 206.291C272.3 205.654 272.721 204.729 272.936 203.708C273.165 202.686 273.233 201.57 273.418 200.407C273.592 199.253 273.96 198.001 274.769 196.975C276.355 194.885 278.953 193.775 280.891 191.817C281.845 190.831 282.562 189.587 283.018 188.21C283.491 186.838 283.752 185.361 283.981 183.85C284.402 180.86 284.827 177.508 286.84 174.771C287.822 173.414 289.32 172.407 290.948 172.117C292.573 171.796 294.176 172.034 295.689 172.235C297.206 172.446 298.697 172.672 300.119 172.494C301.545 172.334 302.812 171.644 303.738 170.625C305.597 168.621 306.664 165.922 308.948 164.541C311.158 163.175 313.741 163.002 315.827 163.593C317.947 164.185 319.507 165.625 320.354 167.113C321.233 168.606 321.509 170.113 321.53 171.312C321.555 172.522 321.314 173.446 321.095 174.035C320.878 174.629 320.694 174.909 320.694 174.909C320.667 174.897 320.814 174.599 320.995 174.003C321.179 173.411 321.383 172.498 321.328 171.318C321.277 170.149 320.976 168.689 320.105 167.263C319.26 165.84 317.758 164.493 315.728 163.949C313.73 163.404 311.257 163.599 309.18 164.907C308.148 165.562 307.307 166.53 306.552 167.618C305.783 168.695 305.078 169.896 304.086 170.956C303.591 171.482 303.014 171.964 302.347 172.319C301.674 172.651 300.943 172.91 300.182 172.988C298.662 173.182 297.132 172.946 295.619 172.742C294.108 172.542 292.553 172.324 291.048 172.626C289.544 172.899 288.184 173.808 287.255 175.085C286.311 176.354 285.716 177.849 285.309 179.353C284.9 180.861 284.721 182.406 284.484 183.928C284.25 185.447 283.982 186.952 283.487 188.374C283.011 189.797 282.248 191.117 281.233 192.154C279.18 194.189 276.607 195.274 275.111 197.239C274.348 198.195 273.998 199.342 273.813 200.475C273.62 201.609 273.542 202.733 273.293 203.792C273.061 204.846 272.595 205.851 271.853 206.533C271.113 207.219 270.229 207.566 269.438 207.863C268.639 208.155 267.897 208.405 267.262 208.733C266.622 209.045 266.168 209.518 265.86 210.014C265.227 211.001 265.214 212.015 265.502 212.548C265.811 213.079 266.176 213.181 266.146 213.216Z" fill="#455A64"/>
<path d="M232.735 306.951L256.887 304.737C256.887 304.737 271.75 265.59 290.072 256.098L301.94 276.829L276.535 324.564H226.93L232.735 306.951Z" fill="#DE6A1E"/>
<path opacity="0.3" d="M232.735 306.951L256.887 304.737C256.887 304.737 271.75 265.59 290.072 256.098L301.94 276.829L276.535 324.564H226.93L232.735 306.951Z" fill="black"/>
<path d="M244.325 314.104C243.078 316.191 242.167 317.942 242.29 318.016C242.413 318.089 243.524 316.457 244.772 314.371C246.019 312.284 246.93 310.533 246.807 310.459C246.684 310.385 245.573 312.017 244.325 314.104Z" fill="#FAFAFA"/>
<path d="M256.429 314.266C257.947 316.154 259.268 317.612 259.38 317.522C259.492 317.432 258.352 315.828 256.834 313.94C255.317 312.052 253.996 310.595 253.884 310.685C253.772 310.775 254.912 312.378 256.429 314.266Z" fill="#FAFAFA"/>
<path d="M262.36 308.555C262.504 308.555 262.62 307.137 262.62 305.388C262.62 303.639 262.504 302.221 262.36 302.221C262.216 302.221 262.1 303.639 262.1 305.388C262.1 307.137 262.216 308.555 262.36 308.555Z" fill="#FAFAFA"/>
<path d="M251.576 321.353C252.773 322.136 253.807 322.672 253.885 322.552C253.964 322.432 253.057 321.7 251.86 320.918C250.664 320.135 249.63 319.599 249.551 319.719C249.473 319.839 250.379 320.571 251.576 321.353Z" fill="#FAFAFA"/>
<path d="M266.046 290.923C267.099 288.574 267.846 286.621 267.715 286.563C267.584 286.504 266.624 288.361 265.571 290.711C264.519 293.06 263.772 295.013 263.903 295.072C264.034 295.13 264.993 293.273 266.046 290.923Z" fill="#FAFAFA"/>
<path d="M275.594 272.488C276.746 271.615 277.609 270.814 277.523 270.7C277.436 270.585 276.432 271.2 275.28 272.073C274.128 272.946 273.265 273.747 273.351 273.861C273.438 273.975 274.442 273.361 275.594 272.488Z" fill="#FAFAFA"/>
<path d="M313.641 321.469L326.096 271.162C328.265 262.403 336.862 256.833 345.743 258.433C354.884 260.08 361.042 268.719 359.618 277.897L351.992 327.065C350.118 337.367 341.927 345.353 331.581 346.968L321.68 348.513L313.641 321.469Z" fill="#DE6A1E"/>
<path d="M352.895 255.183C352.831 255.303 351.5 253.674 348.451 252.95C346.953 252.603 345.071 252.515 343.09 252.987C341.109 253.451 339.075 254.52 337.263 256.026C333.612 259.086 331.625 263.062 330.276 265.848C329.608 267.263 329.101 268.426 328.738 269.225C328.377 270.025 328.163 270.462 328.13 270.448C328.097 270.435 328.247 269.972 328.551 269.148C328.856 268.325 329.313 267.138 329.941 265.696C330.576 264.258 331.386 262.558 332.502 260.786C333.611 259.016 335.066 257.188 336.93 255.627C338.796 254.076 340.911 252.979 342.982 252.521C345.051 252.056 347.002 252.188 348.541 252.594C350.086 253.011 351.222 253.673 351.916 254.223C352.262 254.502 352.518 254.731 352.672 254.908C352.831 255.076 352.908 255.17 352.895 255.183Z" fill="#263238"/>
<path d="M282.329 266.503C282.342 266.515 282.222 266.676 281.981 266.97C281.701 267.305 281.348 267.728 280.915 268.246C279.993 269.356 278.677 270.978 277.178 273.073C274.2 277.238 270.448 283.459 268.674 291.126C266.936 298.797 266.851 305.98 266.556 311.125C266.432 313.705 266.31 315.793 266.2 317.234C266.14 317.907 266.092 318.456 266.053 318.892C266.013 319.271 265.983 319.469 265.965 319.468C265.947 319.467 265.942 319.266 265.948 318.886C265.961 318.449 265.977 317.899 265.997 317.223C266.044 315.709 266.109 313.638 266.188 311.11C266.39 305.965 266.413 298.755 268.167 291.008C269.966 283.239 273.812 276.985 276.881 272.855C278.427 270.776 279.791 269.184 280.763 268.112C281.244 267.572 281.641 267.173 281.904 266.899C282.17 266.627 282.316 266.491 282.329 266.503Z" fill="#263238"/>
<path d="M362.15 266.394C360.784 257.399 355.815 255.239 350.669 252.438C348.987 251.522 340.876 249.44 334.446 247.873C333.832 243.975 332.731 237.003 332.489 235.53C332.15 233.461 299.732 238.633 299.322 239.409C299.05 239.923 298.304 248.002 297.831 253.385L290.07 256.098L279.94 268.977L274.668 276.464C271.611 280.804 269.292 285.655 268.138 290.837C266.861 296.571 266.684 302.166 266.684 308.257L265.118 341.283L332.944 360.462L338.195 327.007L355.693 303.188C357.19 293.555 363.831 277.455 362.15 266.394Z" fill="#DE6A1E"/>
<path d="M304.263 254.424C304.191 254.432 304.025 253.556 303.812 252.133C303.6 250.71 303.342 248.739 303.089 246.559C302.971 245.48 302.859 244.453 302.753 243.483C302.666 242.539 302.546 241.688 302.573 240.94C302.594 240.198 302.799 239.59 303.056 239.25C303.318 238.91 303.542 238.818 303.556 238.84C303.584 238.874 303.411 239.021 303.228 239.357C303.049 239.696 302.917 240.243 302.941 240.942C302.959 241.635 303.115 242.481 303.229 243.427C303.348 244.395 303.474 245.421 303.606 246.498C303.859 248.678 304.058 250.655 304.177 252.089C304.296 253.523 304.335 254.416 304.263 254.424Z" fill="#263238"/>
<path d="M312.911 252.38C312.847 252.399 312.539 251.608 312.189 250.283C311.838 248.96 311.468 247.096 311.274 245.012C311.083 242.927 311.105 241.027 311.208 239.662C311.31 238.296 311.468 237.462 311.534 237.468C311.694 237.481 311.401 240.844 311.793 244.964C312.162 249.085 313.067 252.338 312.911 252.38Z" fill="#263238"/>
<path d="M329.006 250.041C328.834 250.023 329.553 246.662 328.822 242.582C328.138 238.492 326.33 235.57 326.485 235.495C326.536 235.463 327.054 236.144 327.674 237.377C328.295 238.606 328.972 240.411 329.335 242.493C329.693 244.575 329.663 246.502 329.492 247.868C329.323 249.238 329.065 250.054 329.006 250.041Z" fill="#263238"/>
<path d="M282.949 279.456C282.831 279.38 283.955 277.45 285.606 275.253C287.254 273.052 288.791 271.434 288.898 271.526C289.01 271.622 287.66 273.38 286.023 275.565C284.382 277.748 283.072 279.537 282.949 279.456Z" fill="#FAFAFA"/>
<path d="M295.543 263.941C296.918 265.74 298.126 267.128 298.24 267.041C298.354 266.954 297.332 265.425 295.956 263.626C294.581 261.827 293.374 260.439 293.26 260.526C293.146 260.613 294.168 262.142 295.543 263.941Z" fill="#FAFAFA"/>
<path d="M314.193 259.222C314.287 259.337 312.788 260.705 311.003 262.45C309.212 264.191 307.806 265.653 307.693 265.556C307.587 265.466 308.83 263.836 310.639 262.077C312.444 260.314 314.106 259.113 314.193 259.222Z" fill="#FAFAFA"/>
<path d="M307.226 247.801C308.506 248.96 309.622 249.814 309.719 249.708C309.815 249.601 308.855 248.575 307.575 247.415C306.294 246.256 305.178 245.402 305.082 245.508C304.985 245.615 305.945 246.641 307.226 247.801Z" fill="#FAFAFA"/>
<path d="M320.317 243.229C322.206 242.825 323.713 242.383 323.682 242.243C323.652 242.102 322.097 242.316 320.208 242.721C318.319 243.125 316.812 243.567 316.842 243.708C316.872 243.848 318.428 243.634 320.317 243.229Z" fill="#FAFAFA"/>
<path d="M326.078 260.903C326.176 262.836 326.371 264.397 326.514 264.39C326.658 264.382 326.695 262.81 326.597 260.877C326.499 258.944 326.304 257.384 326.16 257.391C326.017 257.398 325.98 258.971 326.078 260.903Z" fill="#FAFAFA"/>
<path d="M319.652 270.992C320.485 273.275 321.269 275.086 321.404 275.037C321.538 274.988 320.973 273.097 320.141 270.814C319.308 268.531 318.524 266.72 318.39 266.769C318.255 266.819 318.82 268.709 319.652 270.992Z" fill="#FAFAFA"/>
<path d="M305.629 278.321C306.557 280.711 307.419 282.607 307.553 282.555C307.687 282.503 307.042 280.523 306.113 278.133C305.185 275.743 304.323 273.847 304.189 273.899C304.055 273.951 304.7 275.931 305.629 278.321Z" fill="#FAFAFA"/>
<path d="M293.374 286.885C293.853 289.228 294.357 291.105 294.497 291.076C294.638 291.047 294.363 289.124 293.883 286.781C293.403 284.437 292.9 282.561 292.76 282.59C292.619 282.619 292.894 284.542 293.374 286.885Z" fill="#FAFAFA"/>
<path d="M276.896 287.68C277.923 289.79 278.861 291.449 278.99 291.386C279.119 291.323 278.391 289.562 277.363 287.452C276.335 285.343 275.398 283.683 275.269 283.746C275.14 283.809 275.868 285.57 276.896 287.68Z" fill="#FAFAFA"/>
<path d="M274.621 303.624C276.927 302.485 278.746 301.457 278.682 301.328C278.619 301.199 276.697 302.019 274.391 303.158C272.084 304.297 270.266 305.325 270.329 305.454C270.393 305.583 272.314 304.764 274.621 303.624Z" fill="#FAFAFA"/>
<path d="M278.86 317.055C278.73 317.105 278.003 315.504 277.449 313.415C276.889 311.327 276.723 309.576 276.86 309.555C277.006 309.531 277.399 311.22 277.952 313.281C278.498 315.342 278.999 317.003 278.86 317.055Z" fill="#FAFAFA"/>
<path d="M272.398 325.453C274.103 327.014 275.565 328.194 275.662 328.088C275.759 327.982 274.455 326.63 272.749 325.069C271.043 323.508 269.581 322.329 269.484 322.434C269.387 322.54 270.692 323.892 272.398 325.453Z" fill="#FAFAFA"/>
<path d="M296.072 320.563C296.11 320.713 293.814 321.368 291.134 322.55C288.447 323.719 286.409 324.963 286.325 324.833C286.247 324.725 288.19 323.264 290.925 322.073C293.654 320.87 296.046 320.432 296.072 320.563Z" fill="#FAFAFA"/>
<path d="M288.659 311.664C289.335 313.601 289.992 315.134 290.127 315.087C290.263 315.04 289.826 313.43 289.15 311.492C288.475 309.554 287.818 308.022 287.682 308.069C287.547 308.116 287.984 309.726 288.659 311.664Z" fill="#FAFAFA"/>
<path d="M299.479 306.392C301.113 303.8 302.339 301.636 302.217 301.56C302.096 301.483 300.673 303.522 299.039 306.114C297.405 308.707 296.179 310.87 296.301 310.947C296.422 311.023 297.845 308.984 299.479 306.392Z" fill="#FAFAFA"/>
<path d="M315.225 302.865C315.116 302.949 313.501 300.998 311.902 298.324C310.295 295.653 309.334 293.311 309.459 293.254C309.595 293.19 310.757 295.412 312.348 298.056C313.932 300.704 315.346 302.776 315.225 302.865Z" fill="#FAFAFA"/>
<path d="M323.021 290.023C323.048 290.158 321.357 290.597 319.214 290.699C317.071 290.809 315.345 290.54 315.359 290.403C315.371 290.254 317.085 290.287 319.189 290.179C321.291 290.079 322.995 289.876 323.021 290.023Z" fill="#FAFAFA"/>
<path d="M336.629 278.037C339.398 276.718 341.592 275.544 341.53 275.414C341.469 275.284 339.174 276.249 336.405 277.568C333.637 278.887 331.442 280.061 331.504 280.191C331.566 280.32 333.86 279.356 336.629 278.037Z" fill="#FAFAFA"/>
<path d="M344.517 261.943C343.42 264.156 342.635 266.001 342.763 266.065C342.892 266.129 343.886 264.387 344.983 262.174C346.08 259.961 346.865 258.116 346.736 258.052C346.608 257.988 345.614 259.731 344.517 261.943Z" fill="#FAFAFA"/>
<path d="M354.523 273.389C354.378 273.422 353.795 271.358 353.004 268.84C352.218 266.319 351.522 264.291 351.659 264.235C351.788 264.182 352.708 266.141 353.501 268.684C354.299 271.225 354.66 273.359 354.523 273.389Z" fill="#FAFAFA"/>
<path d="M356.365 283.07C356.414 283.199 354.484 284.035 351.977 284.674C349.471 285.32 347.377 285.516 347.358 285.379C347.335 285.232 349.371 284.809 351.848 284.17C354.326 283.538 356.314 282.93 356.365 283.07Z" fill="#FAFAFA"/>
<path d="M336.213 294.892C336.062 294.861 336.49 292.427 336.612 289.398C336.748 286.368 336.528 283.907 336.681 283.889C336.812 283.867 337.27 286.338 337.132 289.42C337.008 292.502 336.342 294.926 336.213 294.892Z" fill="#FAFAFA"/>
<path d="M332.193 307.055C332.101 307.156 330.342 305.663 328.534 303.478C326.719 301.297 325.576 299.294 325.693 299.222C325.819 299.14 327.143 300.993 328.935 303.145C330.72 305.303 332.298 306.946 332.193 307.055Z" fill="#FAFAFA"/>
<path d="M348.259 306.515C350.618 305.53 352.485 304.624 352.43 304.492C352.374 304.359 350.418 305.05 348.059 306.035C345.7 307.021 343.833 307.927 343.888 308.059C343.944 308.192 345.901 307.5 348.259 306.515Z" fill="#FAFAFA"/>
<path d="M344.959 321.85C344.928 324.888 345.02 327.352 345.163 327.353C345.307 327.355 345.448 324.893 345.479 321.856C345.509 318.818 345.418 316.354 345.274 316.353C345.131 316.351 344.989 318.813 344.959 321.85Z" fill="#FAFAFA"/>
<path d="M329.647 326.074C329.511 326.056 329.761 323.493 330.535 320.421C331.302 317.346 332.291 314.969 332.419 315.018C332.561 315.068 331.799 317.502 331.04 320.548C330.273 323.591 329.796 326.096 329.647 326.074Z" fill="#FAFAFA"/>
<path d="M330.362 332.081C330.371 332.232 327.877 332.47 324.838 332.976C321.797 333.473 319.36 334.049 319.319 333.904C319.28 333.773 321.679 332.965 324.753 332.462C327.825 331.95 330.357 331.944 330.362 332.081Z" fill="#FAFAFA"/>
<path d="M316.165 324.803C314.424 326.606 313.097 328.148 313.2 328.248C313.303 328.347 314.798 326.967 316.539 325.164C318.281 323.361 319.608 321.819 319.505 321.719C319.402 321.62 317.907 323 316.165 324.803Z" fill="#FAFAFA"/>
<path d="M302.087 339.043C301.939 339.072 301.495 337.273 300.736 335.13C299.986 332.983 299.205 331.303 299.339 331.233C299.458 331.165 300.461 332.767 301.228 334.957C302.001 337.143 302.222 339.021 302.087 339.043Z" fill="#FAFAFA"/>
<path d="M315.01 343.277C317.722 344.481 319.968 345.35 320.027 345.219C320.085 345.088 317.933 344.005 315.221 342.801C312.509 341.598 310.263 340.728 310.205 340.859C310.147 340.99 312.298 342.073 315.01 343.277Z" fill="#FAFAFA"/>
<path d="M289.704 339.736C289.048 341.711 288.627 343.348 288.763 343.393C288.899 343.439 289.541 341.874 290.197 339.9C290.853 337.925 291.274 336.287 291.138 336.242C291.002 336.197 290.36 337.761 289.704 339.736Z" fill="#FAFAFA"/>
<path d="M309.359 346.896C309.331 347.048 306.487 346.587 302.951 346.406C299.415 346.211 296.539 346.367 296.527 346.213C296.511 346.081 299.4 345.689 302.979 345.886C306.557 346.07 309.388 346.766 309.359 346.896Z" fill="#FAFAFA"/>
<path d="M313.641 317.408C313.624 317.408 313.616 317.274 313.615 317.014C313.608 316.755 313.634 316.365 313.776 315.879C313.906 315.4 314.219 314.789 314.863 314.391C315.496 313.98 316.371 313.839 317.304 313.988L317.1 314.107C318.196 310.272 319.944 304.669 321.694 298.39C323.333 292.513 324.437 287.098 325.214 283.174C325.588 281.275 325.896 279.707 326.129 278.524C326.35 277.427 326.489 276.822 326.525 276.829C326.56 276.835 326.489 277.451 326.329 278.559C326.171 279.668 325.916 281.268 325.576 283.241C324.892 287.185 323.84 292.632 322.196 298.528C320.441 304.824 318.63 310.404 317.433 314.208L317.386 314.357L317.228 314.328C316.401 314.174 315.572 314.278 315.005 314.625C314.419 314.956 314.106 315.491 313.956 315.94C313.65 316.853 313.706 317.416 313.641 317.408Z" fill="#263238"/>
<path d="M336.064 331.316C335.978 331.356 335.363 330.001 334.092 327.983C332.827 325.965 330.819 323.326 328.132 320.876C325.436 318.434 322.618 316.687 320.488 315.62C318.358 314.547 316.951 314.064 316.983 313.975C316.995 313.941 317.354 314.037 317.996 314.24C318.641 314.434 319.552 314.788 320.649 315.289C322.844 316.282 325.744 318.009 328.483 320.491C331.214 322.981 333.209 325.702 334.407 327.793C335.009 328.837 335.449 329.71 335.704 330.334C335.967 330.953 336.097 331.302 336.064 331.316Z" fill="#263238"/>
<g opacity="0.2">
<path opacity="0.2" d="M317.545 313.238C321.369 313.513 324.501 313.801 328.091 315.146C331.681 316.492 334.999 319.067 336.319 322.666C336.635 323.529 336.785 324.618 336.132 325.264C335.652 325.738 334.873 325.794 334.237 325.569C333.601 325.344 333.077 324.889 332.581 324.431C330.376 322.392 328.092 320.59 325.815 318.631C323.539 316.672 320.233 314.611 317.264 314.157" fill="black"/>
</g>
<path d="M310.336 306.859C310.35 306.886 309.988 307.118 309.293 307.463C308.599 307.809 307.555 308.241 306.217 308.623C303.561 309.399 299.591 309.823 295.439 308.745C291.286 307.666 288.023 305.363 286.081 303.393C285.097 302.408 284.396 301.523 283.958 300.883C283.518 300.243 283.315 299.865 283.341 299.848C283.424 299.786 284.335 301.254 286.337 303.128C288.312 304.997 291.526 307.19 295.571 308.241C299.615 309.29 303.489 308.938 306.124 308.266C308.784 307.604 310.294 306.764 310.336 306.859Z" fill="#263238"/>
<g opacity="0.2">
<path opacity="0.2" d="M283.883 300.621C285.566 304.283 287.544 307.967 290.737 310.426C292.577 311.844 294.73 313.035 297.053 313.074C300.391 313.129 303.258 310.851 305.805 308.694C297.554 309.985 288.254 306.242 283.883 300.621Z" fill="black"/>
</g>
<path d="M320.855 251.616C320.696 251.607 320.888 248.181 320.476 243.992C320.085 239.799 319.247 236.473 319.401 236.434C319.466 236.417 319.758 237.228 320.094 238.579C320.431 239.929 320.79 241.825 320.994 243.942C321.195 246.059 321.203 247.988 321.128 249.378C321.055 250.769 320.922 251.621 320.855 251.616Z" fill="#263238"/>
<path d="M202.237 385.44C202.237 385.44 191.369 387.789 181.666 386.334C172.569 384.97 152.2 386.381 152.207 398.371C152.215 411.744 179.376 408.439 189.974 406.32C200.572 404.2 211.124 402.28 211.124 402.28L202.237 385.44Z" fill="#DE6A1E"/>
<path d="M176.524 397.941C177.109 400.542 177.697 402.626 177.837 402.594C177.977 402.563 177.616 400.428 177.032 397.827C176.447 395.225 175.859 393.141 175.719 393.173C175.579 393.204 175.94 395.339 176.524 397.941Z" fill="#263238"/>
<path d="M180.642 397.969C181.007 400.624 181.417 402.76 181.559 402.74C181.702 402.721 181.522 400.553 181.158 397.898C180.793 395.243 180.383 393.107 180.241 393.127C180.098 393.146 180.278 395.314 180.642 397.969Z" fill="#263238"/>
<path d="M184.375 397.198C184.655 399.518 184.998 401.385 185.141 401.368C185.284 401.35 185.173 399.456 184.893 397.136C184.613 394.816 184.27 392.949 184.127 392.967C183.984 392.984 184.095 394.878 184.375 397.198Z" fill="#263238"/>
<path d="M190.753 399.947C190.627 400.002 189.855 398.442 189.355 396.367C188.847 394.293 188.819 392.553 188.956 392.544C189.106 392.53 189.364 394.214 189.862 396.244C190.35 398.276 190.892 399.891 190.753 399.947Z" fill="#263238"/>
<path d="M191.958 395.059C191.956 395.029 192.459 394.944 193.378 394.965C194.293 394.991 195.638 395.139 197.194 395.711C197.586 395.858 197.993 396.047 198.369 396.344C198.74 396.63 199.09 397.097 199.105 397.669C199.117 398.852 197.818 399.705 196.644 399.457C195.457 399.231 194.554 398.361 193.807 397.437C193.05 396.491 192.505 395.336 192.202 394.094C191.606 391.599 192.049 389.019 193.398 387.169C193.595 386.947 193.865 386.734 194.205 386.684C194.534 386.628 194.891 386.756 195.109 386.966C195.554 387.389 195.71 387.923 195.79 388.425C195.916 389.406 195.847 390.335 195.646 391.144C195.255 392.777 194.44 393.908 193.812 394.574C193.492 394.907 193.216 395.137 193.019 395.277C192.82 395.416 192.712 395.481 192.701 395.467C192.671 395.43 193.08 395.126 193.661 394.439C194.226 393.751 194.96 392.63 195.287 391.063C195.456 390.287 195.499 389.406 195.363 388.488C195.294 388.057 195.12 387.588 194.808 387.31C194.5 387.027 194.06 387.106 193.759 387.486C192.585 389.138 192.13 391.635 192.709 393.972C192.995 395.144 193.506 396.233 194.21 397.123C194.904 398.002 195.759 398.799 196.73 398.985C197.659 399.214 198.693 398.489 198.674 397.679C198.672 397.276 198.432 396.914 198.115 396.655C197.799 396.391 197.427 396.203 197.062 396.055C195.569 395.457 194.263 395.254 193.366 395.168C192.465 395.084 191.959 395.1 191.958 395.059Z" fill="#263238"/>
<path d="M210.049 400.51C210.051 400.519 209.958 400.548 209.775 400.597C209.563 400.65 209.295 400.717 208.96 400.8C208.204 400.972 207.15 401.212 205.809 401.518C203.067 402.121 199.091 402.967 194.151 403.921C189.21 404.867 183.309 405.952 176.692 406.853C173.393 407.296 169.86 407.698 166.203 407.376C164.377 407.242 162.519 406.928 160.708 406.325C159.812 406.002 158.911 405.652 158.071 405.154C157.23 404.656 156.42 404.112 155.755 403.288L155.795 403.333C155.459 403.008 155.108 402.636 154.85 402.199C153.74 400.423 153.704 398.219 154.297 396.347C154.906 394.435 156.268 392.911 157.782 391.792C159.316 390.674 161.022 389.896 162.734 389.338C163.601 389.092 164.445 388.794 165.304 388.6C166.167 388.428 167.011 388.199 167.862 388.081C174.673 387.005 180.869 387.552 186.017 387.554C188.598 387.602 190.929 387.532 192.972 387.407C195.012 387.253 196.762 387.021 198.176 386.749C198.876 386.602 199.501 386.471 200.05 386.355C200.574 386.206 201.023 386.078 201.4 385.97C201.743 385.875 202.018 385.8 202.234 385.74C202.423 385.691 202.521 385.67 202.524 385.678C202.527 385.687 202.435 385.724 202.251 385.79C202.039 385.862 201.769 385.954 201.431 386.07C201.057 386.191 200.61 386.336 200.089 386.504C199.54 386.634 198.915 386.781 198.216 386.947C196.8 387.252 195.044 387.514 192.994 387.697C190.943 387.851 188.6 387.946 186.014 387.922C180.855 387.965 174.664 387.463 167.942 388.554C167.101 388.673 166.272 388.903 165.421 389.075C164.575 389.269 163.747 389.565 162.895 389.809C161.216 390.361 159.558 391.126 158.086 392.203C156.632 393.281 155.354 394.73 154.791 396.506C154.235 398.258 154.283 400.32 155.291 401.922C155.524 402.319 155.842 402.652 156.143 402.946L156.16 402.963L156.183 402.992C156.734 403.676 157.538 404.244 158.331 404.706C159.133 405.184 160.005 405.523 160.873 405.838C162.63 406.426 164.45 406.738 166.245 406.872C169.845 407.196 173.33 406.813 176.63 406.383C183.234 405.511 189.138 404.465 194.084 403.565C199.03 402.657 203.015 401.866 205.769 401.324C207.118 401.059 208.178 400.85 208.939 400.701C209.278 400.638 209.55 400.588 209.765 400.548C209.951 400.514 210.047 400.502 210.049 400.51Z" fill="#263238"/>
<path d="M170.306 406.949C170.229 406.95 170.167 405.885 170.043 404.171C169.92 402.457 169.716 400.093 169.369 397.497C169.02 394.901 168.595 392.566 168.263 390.88C167.931 389.194 167.712 388.151 167.786 388.131C167.851 388.114 168.197 389.125 168.622 390.799C169.048 392.472 169.534 394.813 169.885 397.427C170.234 400.041 170.381 402.427 170.41 404.153C170.441 405.882 170.374 406.949 170.306 406.949Z" fill="#263238"/>
<path opacity="0.4" d="M198.892 386.019L205.779 403.269L211.124 402.279L200.888 385.44L198.892 386.019Z" fill="black"/>
<path d="M288.651 338.736C287.544 339.105 216.369 319.161 187.586 311.067C180.026 308.941 171.92 310.168 165.327 314.435L164.98 314.659C155.303 320.923 150.593 332.583 153.206 343.811C154.865 350.94 159.307 357.102 165.548 360.926C184.529 372.555 224.699 397.018 225.927 396.542C227.537 395.918 277.703 394.617 277.703 394.617L217.351 351.213L246.063 369.769L288.651 338.736Z" fill="#263238"/>
<path d="M229.229 317.077L244.359 309.25L259.196 318.551L314.744 320.366L322.784 347.409L242.385 328.771C242.385 328.771 227.751 330.065 226.655 326.776C225.559 323.488 229.229 317.077 229.229 317.077Z" fill="#FFBE9D"/>
<path d="M274.738 360.415L267.26 384.972L268.19 392.456C281.815 406.19 303.526 407.654 318.871 395.872C328.199 388.71 333.646 377.6 333.594 365.839L333.481 340.18L274.738 360.415Z" fill="#263238"/>
<path d="M210.803 346.449C221.425 354.372 230.106 360.701 230.191 360.586C230.277 360.471 221.736 353.955 211.114 346.032C200.492 338.109 191.812 331.78 191.726 331.895C191.64 332.01 200.181 338.526 210.803 346.449Z" fill="#455A64"/>
<path d="M235.929 316.796C240.06 315.473 243.374 314.289 243.33 314.152C243.286 314.015 239.901 314.978 235.77 316.301C231.639 317.625 228.325 318.809 228.369 318.945C228.413 319.082 231.797 318.12 235.929 316.796Z" fill="#EB996E"/>
<path d="M244.47 318.764C244.477 318.84 243.486 318.988 241.893 319.248C240.3 319.507 238.106 319.899 235.709 320.449C233.311 321.002 231.167 321.607 229.62 322.07C228.073 322.532 227.117 322.831 227.091 322.759C227.067 322.696 227.979 322.274 229.505 321.72C231.03 321.165 233.176 320.498 235.592 319.941C238.008 319.387 240.23 319.05 241.844 318.883C243.459 318.716 244.464 318.697 244.47 318.764Z" fill="#EB996E"/>
<path d="M234.871 324.908C239.503 323.989 243.235 323.131 243.207 322.99C243.179 322.849 239.402 323.479 234.77 324.398C230.138 325.316 226.406 326.175 226.434 326.316C226.462 326.457 230.239 325.826 234.871 324.908Z" fill="#EB996E"/>
<path d="M223.575 280.798L237.531 326.719C237.691 327.244 238.157 327.618 238.704 327.659L276.735 330.513C277.429 330.565 277.966 331.143 277.966 331.839V334.213C277.966 334.957 277.355 335.557 276.611 335.543L172.65 333.589C172.108 333.579 171.626 333.24 171.432 332.733L153.149 284.834C152.826 283.988 153.425 283.073 154.329 283.031L222.24 279.854C222.848 279.827 223.398 280.215 223.575 280.798Z" fill="#455A64"/>
<path d="M194.28 300.584C193.541 300.778 192.368 301.822 192.224 302.919C192.079 304.016 192.669 305.134 193.567 305.78C194.662 306.568 196.247 306.674 197.368 305.922C198.488 305.17 198.984 303.683 198.405 302.085C197.945 300.817 195.624 299.93 194.28 300.584Z" fill="#E0E0E0"/>
<path d="M211.124 402.279L200.136 384.202L280.938 320.874C285.964 316.751 292.112 314.231 298.586 313.641C318.685 311.81 335.567 328.567 333.887 348.679L332.596 364.129L278.961 381.364L211.124 402.279Z" fill="#263238"/>
<path d="M314.744 359.359C314.75 359.366 314.677 359.433 314.53 359.558C314.359 359.699 314.141 359.878 313.87 360.102C313.252 360.595 312.391 361.282 311.297 362.156C310.733 362.601 310.109 363.094 309.429 363.631C308.747 364.172 307.944 364.673 307.114 365.259C306.275 365.835 305.379 366.449 304.43 367.099C303.953 367.422 303.47 367.766 302.959 368.096C302.438 368.41 301.903 368.732 301.355 369.061C299.159 370.372 296.789 371.873 294.103 373.23C292.771 373.927 291.412 374.687 289.976 375.397C288.528 376.083 287.038 376.79 285.511 377.514C279.359 380.318 272.47 383.138 265.084 385.65C250.326 390.736 236.68 394.397 226.908 397.36C224.458 398.081 222.249 398.755 220.315 399.367C218.377 399.965 216.708 400.482 215.356 400.941C214.025 401.373 212.979 401.713 212.228 401.957C211.892 402.06 211.622 402.143 211.41 402.209C211.225 402.263 211.128 402.287 211.125 402.278C211.122 402.27 211.212 402.229 211.392 402.159C211.6 402.081 211.864 401.982 212.193 401.858C212.936 401.592 213.973 401.221 215.291 400.749C216.634 400.259 218.295 399.715 220.226 399.089C222.153 398.45 224.356 397.75 226.8 397.007C236.552 393.952 250.179 390.235 264.912 385.158C272.286 382.65 279.163 379.85 285.31 377.078C286.836 376.363 288.325 375.665 289.773 374.987C291.208 374.286 292.567 373.536 293.9 372.85C296.588 371.513 298.96 370.035 301.163 368.748C301.712 368.425 302.249 368.109 302.772 367.801C303.285 367.477 303.769 367.139 304.249 366.823C305.203 366.186 306.104 365.584 306.949 365.021C307.785 364.448 308.595 363.96 309.284 363.432C309.973 362.909 310.604 362.43 311.176 361.996C312.295 361.156 313.175 360.496 313.806 360.022C314.091 359.815 314.319 359.649 314.499 359.518C314.654 359.406 314.738 359.352 314.744 359.359Z" fill="#455A64"/>
<path d="M316.704 367.811C316.717 367.844 316.427 367.995 315.889 368.238C315.352 368.485 314.561 368.806 313.571 369.174C311.593 369.912 308.801 370.786 305.647 371.466C302.492 372.142 299.586 372.492 297.48 372.632C296.427 372.703 295.573 372.735 294.982 372.731C294.392 372.73 294.065 372.713 294.064 372.677C294.061 372.597 295.36 372.5 297.447 372.266C299.534 372.033 302.407 371.628 305.538 370.958C308.667 370.283 311.453 369.472 313.451 368.827C315.45 368.182 316.674 367.737 316.704 367.811Z" fill="#455A64"/>
<path d="M277.704 323.913C277.792 324.027 260.498 337.616 239.082 354.262C217.658 370.914 200.225 384.316 200.136 384.202C200.048 384.088 217.338 370.502 238.762 353.85C260.179 337.204 277.616 323.799 277.704 323.913Z" fill="#455A64"/>
<path d="M273.034 391.113C269.158 389.046 264.807 390.268 261.099 391.518C258.631 392.35 256.066 393.667 253.559 392.962C251.746 392.452 250.398 390.983 249.013 389.705C243.429 384.554 235.728 381.745 228.127 382.221C225.968 382.356 223.858 383.225 222.391 384.814C218.584 388.937 221.456 394.303 224.857 397.77C230.863 403.891 239.041 407.836 247.57 408.727C254.659 409.467 264.407 408.488 271.597 405.409C276.029 403.511 278.304 398.282 275.978 394.059C275.299 392.83 274.309 391.793 273.034 391.113Z" fill="#DE6A1E"/>
<g opacity="0.4">
<path opacity="0.4" d="M273.026 394.413C269.15 392.346 264.799 393.568 261.09 394.818C258.622 395.65 256.057 396.967 253.55 396.262C251.737 395.752 250.389 394.283 249.004 393.005C243.419 387.854 235.719 385.045 228.117 385.521C225.958 385.656 223.848 386.525 222.381 388.114C221.538 389.027 221.038 390.003 220.783 391.004C221.347 393.483 223.015 395.902 224.847 397.77C230.853 403.891 239.031 407.836 247.56 408.727C254.649 409.467 264.397 408.487 271.586 405.409C274.251 404.268 276.125 401.921 276.7 399.315C276.55 398.65 276.316 397.993 275.967 397.359C275.29 396.129 274.3 395.093 273.026 394.413Z" fill="black"/>
</g>
<path d="M276.701 399.316C276.63 399.34 276.649 398.369 275.751 397.02C275.3 396.361 274.63 395.619 273.677 394.992C272.739 394.358 271.524 393.809 270.114 393.628C267.236 393.29 263.902 394.501 260.197 395.504C258.366 395.989 256.366 396.73 254.177 396.456C253.107 396.317 252.035 395.962 251.08 395.384C250.127 394.813 249.262 394.108 248.418 393.38C245.226 390.264 241.439 388.313 237.819 387.082C236.008 386.474 234.229 386.074 232.545 385.858C230.86 385.636 229.274 385.608 227.854 385.83C226.436 386.051 225.204 386.517 224.226 387.096C223.251 387.687 222.527 388.37 222.003 388.98C220.975 390.226 220.627 391.078 220.572 391.046C220.572 391.046 220.846 390.164 221.847 388.851C222.358 388.208 223.081 387.482 224.074 386.847C225.07 386.224 226.337 385.717 227.795 385.466C229.253 385.213 230.887 385.221 232.598 385.428C234.313 385.629 236.126 386.02 237.97 386.625C239.816 387.226 241.691 388.047 243.534 389.081C244.445 389.611 245.374 390.162 246.242 390.844C247.105 391.52 247.921 392.262 248.758 392.985C249.594 393.708 250.439 394.394 251.344 394.938C252.243 395.485 253.233 395.813 254.241 395.95C256.269 396.218 258.214 395.525 260.071 395.041C263.758 394.076 267.151 392.868 270.159 393.263C273.145 393.739 275.068 395.532 275.92 396.91C276.357 397.615 276.551 398.237 276.637 398.661C276.711 399.088 276.714 399.316 276.701 399.316Z" fill="#263238"/>
<path d="M276.701 399.316C276.63 399.34 276.649 398.369 275.751 397.02C275.3 396.361 274.63 395.619 273.677 394.992C272.739 394.358 271.524 393.809 270.114 393.628C267.236 393.29 263.902 394.501 260.197 395.504C258.366 395.989 256.366 396.73 254.177 396.456C253.107 396.317 252.035 395.962 251.08 395.384C250.127 394.813 249.262 394.108 248.418 393.38C245.226 390.264 241.439 388.313 237.819 387.082C236.008 386.474 234.229 386.074 232.545 385.858C230.86 385.636 229.274 385.608 227.854 385.83C226.436 386.051 225.204 386.517 224.226 387.096C223.251 387.687 222.527 388.37 222.003 388.98C220.975 390.226 220.627 391.078 220.572 391.046C220.572 391.046 220.846 390.164 221.847 388.851C222.358 388.208 223.081 387.482 224.074 386.847C225.07 386.224 226.337 385.717 227.795 385.466C229.253 385.213 230.887 385.221 232.598 385.428C234.313 385.629 236.126 386.02 237.97 386.625C239.816 387.226 241.691 388.047 243.534 389.081C244.445 389.611 245.374 390.162 246.242 390.844C247.105 391.52 247.921 392.262 248.758 392.985C249.594 393.708 250.439 394.394 251.344 394.938C252.243 395.485 253.233 395.813 254.241 395.95C256.269 396.218 258.214 395.525 260.071 395.041C263.758 394.076 267.151 392.868 270.159 393.263C273.145 393.739 275.068 395.532 275.92 396.91C276.357 397.615 276.551 398.237 276.637 398.661C276.711 399.088 276.714 399.316 276.701 399.316Z" fill="#263238"/>
<path d="M228.631 398.383C228.595 398.325 229.343 397.783 230.616 397.008C231.888 396.232 233.692 395.235 235.751 394.267C237.811 393.3 239.73 392.546 241.139 392.061C242.548 391.576 243.442 391.345 243.464 391.41C243.489 391.481 242.639 391.834 241.271 392.405C239.902 392.975 238.019 393.777 235.974 394.738C233.93 395.7 232.111 396.638 230.799 397.328C229.485 398.018 228.671 398.448 228.631 398.383Z" fill="#263238"/>
<path d="M237.517 398.323C233.274 400.375 229.885 402.143 229.947 402.272C230.01 402.401 233.5 400.843 237.744 398.791C241.987 396.739 245.376 394.971 245.314 394.842C245.251 394.713 241.761 396.271 237.517 398.323Z" fill="#263238"/>
<path d="M236.781 398.457C241.799 401.618 245.929 404.083 246.005 403.961C246.082 403.84 242.076 401.178 237.058 398.017C232.041 394.855 227.911 392.391 227.834 392.512C227.758 392.634 231.764 395.295 236.781 398.457Z" fill="#263238"/>
<path d="M248.344 399.919C248.297 399.977 247.537 399.443 246.322 398.567C245.107 397.691 243.431 396.481 241.555 395.18C239.678 393.879 237.956 392.735 236.71 391.904C235.464 391.073 234.697 390.549 234.735 390.485C234.77 390.425 235.604 390.838 236.905 391.592C238.205 392.345 239.967 393.446 241.852 394.753C243.736 396.06 245.385 397.323 246.547 398.276C247.708 399.229 248.388 399.865 248.344 399.919Z" fill="#263238"/>
</svg>
