<svg width="332" height="94" viewBox="0 0 332 94" fill="none" xmlns="http://www.w3.org/2000/svg">
<path d="M128.496 28.26C128.496 31.1427 127.469 33.412 125.414 35.068C123.359 36.724 120.523 37.552 116.904 37.552C113.224 37.552 109.697 36.5247 106.324 34.47L108.302 29.318C111.185 31.25 114.113 32.216 117.088 32.216C118.897 32.216 120.277 31.8327 121.228 31.066C122.179 30.2993 122.654 29.364 122.654 28.26C122.654 27.1253 122.179 26.1747 121.228 25.408C120.308 24.6107 118.437 23.6907 115.616 22.648C112.58 21.544 110.403 20.256 109.084 18.784C107.796 17.2813 107.152 15.518 107.152 13.494C107.152 10.918 108.133 8.71 110.096 6.87C112.059 5.03 114.696 4.11 118.008 4.11C121.412 4.11 124.387 4.846 126.932 6.318L125.092 11.378C122.516 9.93667 120.109 9.216 117.87 9.216C116.245 9.216 115.003 9.61467 114.144 10.412C113.316 11.1787 112.902 12.16 112.902 13.356C112.902 14.368 113.377 15.2573 114.328 16.024C115.279 16.76 116.904 17.542 119.204 18.37C122.7 19.7193 125.123 21.1607 126.472 22.694C127.821 24.1967 128.496 26.052 128.496 28.26ZM133.093 9.906V4.662H160.279V9.906H149.653V37H143.903V9.906H133.093ZM187.575 37V29.272H172.119V37H166.369V18.554C166.369 13.678 167.519 10.0593 169.819 7.698C172.119 5.306 175.431 4.11 179.755 4.11C184.079 4.11 187.422 5.306 189.783 7.698C192.144 10.09 193.325 13.7087 193.325 18.554V37H187.575ZM172.119 18.554V24.764C174.02 24.7333 179.172 24.718 187.575 24.718V18.6C187.575 12.436 184.999 9.354 179.847 9.354C177.455 9.354 175.569 10.1053 174.189 11.608C172.809 13.1107 172.119 15.426 172.119 18.554ZM204.058 37V4.662H214.408C218.579 4.662 221.768 5.70467 223.976 7.79C226.215 9.87533 227.334 12.666 227.334 16.162C227.334 18.094 226.828 20.0413 225.816 22.004C224.804 23.936 223.302 25.3927 221.308 26.374C221.83 26.834 222.458 27.5853 223.194 28.628C223.961 29.6707 224.712 30.468 225.448 31.02C226.184 31.572 227.135 31.848 228.3 31.848H229.588V36.908C228.791 37.092 227.764 37.184 226.506 37.184C225.004 37.184 223.7 36.9233 222.596 36.402C221.523 35.8807 220.68 35.2213 220.066 34.424C219.453 33.596 218.916 32.768 218.456 31.94C217.996 31.0813 217.475 30.238 216.892 29.41C216.31 28.582 215.681 27.9687 215.006 27.57C214.638 27.6007 214.071 27.616 213.304 27.616H209.762V37H204.058ZM213.994 9.906H209.762V22.556H213.994C216.509 22.556 218.334 21.9733 219.468 20.808C220.603 19.6427 221.17 18.094 221.17 16.162C221.17 11.9913 218.778 9.906 213.994 9.906ZM233.152 9.906V4.662H260.338V9.906H249.712V37H243.962V9.906H233.152ZM267.012 23.614V4.662H272.716V23.614C272.716 29.4407 275.277 32.354 280.398 32.354C285.642 32.354 288.264 29.4253 288.264 23.568V4.662H293.968V23.614C293.968 28.2753 292.757 31.7713 290.334 34.102C287.911 36.4327 284.599 37.598 280.398 37.598C276.197 37.598 272.915 36.448 270.554 34.148C268.193 31.8173 267.012 28.306 267.012 23.614ZM313.487 27.616H310.405V37H304.701V4.662H314.591C318.762 4.662 321.951 5.70467 324.159 7.79C326.398 9.87533 327.517 12.666 327.517 16.162C327.517 19.6887 326.352 22.4793 324.021 24.534C321.69 26.5887 318.179 27.616 313.487 27.616ZM314.177 9.906H310.405V22.556H314.177C316.692 22.556 318.516 21.9733 319.651 20.808C320.786 19.6427 321.353 18.094 321.353 16.162C321.353 11.9913 318.961 9.906 314.177 9.906Z" fill="black"/>
<path d="M108.716 83V50.662H119.066C123.083 50.662 126.089 51.4287 128.082 52.962C130.106 54.4647 131.118 56.55 131.118 59.218C131.118 62.714 129.232 65.1367 125.46 66.486C129.815 67.7433 131.992 70.1967 131.992 73.846C131.992 76.6673 130.781 78.906 128.358 80.562C125.935 82.1873 122.838 83 119.066 83H108.716ZM117.962 68.786H114.42V77.756H119.342C121.611 77.756 123.252 77.342 124.264 76.514C125.307 75.6553 125.828 74.5667 125.828 73.248C125.828 71.9907 125.215 70.9327 123.988 70.074C122.761 69.2153 120.753 68.786 117.962 68.786ZM119.342 55.906H114.42V64.692H118.514C120.691 64.7227 122.347 64.278 123.482 63.358C124.617 62.4073 125.184 61.2573 125.184 59.908C125.184 58.712 124.709 57.746 123.758 57.01C122.807 56.274 121.335 55.906 119.342 55.906ZM162.113 83V75.272H146.657V83H140.907V64.554C140.907 59.678 142.057 56.0593 144.357 53.698C146.657 51.306 149.969 50.11 154.293 50.11C158.617 50.11 161.96 51.306 164.321 53.698C166.683 56.09 167.863 59.7087 167.863 64.554V83H162.113ZM146.657 64.554V70.764C148.559 70.7333 153.711 70.718 162.113 70.718V64.6C162.113 58.436 159.537 55.354 154.385 55.354C151.993 55.354 150.107 56.1053 148.727 57.608C147.347 59.1107 146.657 61.426 146.657 64.554ZM178.596 83V50.662H184.3V66.486L198.054 50.662H205L190.096 67.682L205.736 83H198.606L184.3 69.154V83H178.596ZM212.593 83V50.662H233.615V55.906H218.297V64.968H232.189V70.028H218.297V77.756H233.615V83H212.593ZM243.446 83V50.662H253.796C257.966 50.662 261.156 51.7047 263.364 53.79C265.602 55.8753 266.722 58.666 266.722 62.162C266.722 64.094 266.216 66.0413 265.204 68.004C264.192 69.936 262.689 71.3927 260.696 72.374C261.217 72.834 261.846 73.5853 262.582 74.628C263.348 75.6707 264.1 76.468 264.836 77.02C265.572 77.572 266.522 77.848 267.688 77.848H268.976V82.908C268.178 83.092 267.151 83.184 265.894 83.184C264.391 83.184 263.088 82.9233 261.984 82.402C260.91 81.8807 260.067 81.2213 259.454 80.424C258.84 79.596 258.304 78.768 257.844 77.94C257.384 77.0813 256.862 76.238 256.28 75.41C255.697 74.582 255.068 73.9687 254.394 73.57C254.026 73.6007 253.458 73.616 252.692 73.616H249.15V83H243.446ZM253.382 55.906H249.15V68.556H253.382C255.896 68.556 257.721 67.9733 258.856 66.808C259.99 65.6427 260.558 64.094 260.558 62.162C260.558 57.9913 258.166 55.906 253.382 55.906ZM274.694 57.93V50.662H280.444V57.93C280.444 61.058 281.134 63.3733 282.514 64.876C283.894 66.3787 285.78 67.13 288.172 67.13C293.324 67.13 295.9 64.048 295.9 57.884V50.662H301.65V57.93C301.65 66.394 298.078 71.1473 290.932 72.19V83H285.274V72.19C278.221 71.2087 274.694 66.4553 274.694 57.93Z" fill="#DE6A1E"/>
<path d="M72.1961 72.1961C70.1564 74.2362 67.9021 76.0497 65.4723 77.605C61.0623 80.4299 56.1369 82.354 50.9798 83.2666C49.6925 83.4934 48.384 83.6579 47.0542 83.7599C46.0453 83.8355 45.0272 83.8739 44 83.875C41.1162 83.8764 38.2407 83.5664 35.4234 82.9503C34.1292 82.6667 32.8596 82.3212 31.6147 81.9139C27.8951 80.6984 24.3755 78.94 21.1698 76.6958C20.087 75.9396 19.0455 75.1317 18.0452 74.2723C15.0798 71.7276 12.5025 68.7629 10.395 65.4724C9.68688 64.3672 9.03318 63.2248 8.43391 62.0452C6.66071 58.5597 5.41368 54.8308 4.73344 50.9798C4.50657 49.6908 4.34214 48.3822 4.24016 47.0542C4.16454 46.0453 4.12615 45.0272 4.125 44C4.12357 41.1162 4.4336 38.2407 5.04969 35.4235C5.33329 34.1292 5.67875 32.8596 6.0861 31.6147C7.30166 27.8951 9.06002 24.3755 11.3042 21.1698C12.0605 20.0871 12.8683 19.0455 13.7277 18.0452C16.2724 15.0798 19.2371 12.5025 22.5277 10.395C23.6328 9.68685 24.7752 9.03316 25.9548 8.43392C31.5451 5.5924 37.729 4.11576 44 4.125V44L72.1961 72.1961Z" fill="#FDE69A"/>
<path d="M35.1587 19.0609L32.6167 20.1128L30.6281 15.3089C30.2174 14.3242 29.5843 13.4481 28.7782 12.7491C27.9722 12.0501 27.0152 11.5473 25.9823 11.2801L22.5276 10.395C23.6328 9.68685 24.7752 9.03315 25.9548 8.43391L26.6647 8.61607C28.1105 8.99025 29.45 9.69409 30.5783 10.6724C31.7067 11.6508 32.5932 12.8771 33.1684 14.2553L35.1587 19.0609Z" fill="#DE6A1E"/>
<path d="M26.2866 24.3426L24.3427 26.2866L20.6663 22.6102C19.9098 21.8575 18.9893 21.2903 17.9769 20.9531C16.9645 20.6158 15.8878 20.5176 14.8311 20.6662L11.3042 21.1698C12.0605 20.087 12.8683 19.0455 13.7277 18.0452L14.4427 17.9437C15.9218 17.7359 17.4291 17.8736 18.8461 18.3459C20.2632 18.8183 21.5515 19.6125 22.6102 20.6662L26.2866 24.3426Z" fill="#DE6A1E"/>
<path d="M20.1128 32.6167L19.0609 35.157L14.2553 33.1684C13.269 32.7624 12.202 32.5904 11.138 32.6659C10.074 32.7413 9.042 33.0622 8.12281 33.6033L5.04968 35.4235C5.33328 34.1292 5.67875 32.8596 6.08609 31.6147L6.72203 31.2383C8.00889 30.4802 9.45385 30.0304 10.9436 29.9243C12.4334 29.8181 13.9275 30.0584 15.3089 30.6264L20.1128 32.6167Z" fill="#DE6A1E"/>
<path d="M17.5759 42.625V45.375H12.375C11.3081 45.3775 10.2563 45.6271 9.30209 46.1042C8.34785 46.5813 7.5171 47.273 6.875 48.125L4.73344 50.9798C4.50656 49.6908 4.34214 48.3822 4.24016 47.0542L4.675 46.475C5.57395 45.2822 6.737 44.3138 8.07293 43.6459C9.40887 42.9779 10.8814 42.6285 12.375 42.625H17.5759Z" fill="#DE6A1E"/>
<path d="M20.1128 55.3833L15.3089 57.3718C14.3242 57.7826 13.4481 58.4157 12.7491 59.2218C12.0501 60.0278 11.5473 60.9848 11.2801 62.0177L10.395 65.4724C9.68687 64.3672 9.03317 63.2248 8.4339 62.0452L8.61609 61.3353C8.99032 59.8893 9.69436 58.5496 10.673 57.4212C11.6517 56.2928 12.8784 55.4065 14.257 54.8316L19.0609 52.843L20.1128 55.3833Z" fill="#DE6A1E"/>
<path d="M22.6102 67.3337C21.8572 68.0899 21.2898 69.0104 20.9525 70.0229C20.6152 71.0353 20.5173 72.1122 20.6663 73.1689L21.1698 76.6958C20.087 75.9396 19.0455 75.1317 18.0452 74.2723L17.9438 73.5573C17.7359 72.0781 17.8736 70.5709 18.3459 69.1539C18.8183 67.7369 19.6125 66.4485 20.6663 65.3899L24.3427 61.7135L26.2866 63.6574L22.6102 67.3337Z" fill="#DE6A1E"/>
<path d="M35.4234 82.9503C34.1292 82.6667 32.8596 82.3212 31.6147 81.9139L31.2383 81.278C30.48 79.9912 30.0303 78.5461 29.9245 77.0562C29.8186 75.5664 30.0595 74.0722 30.6281 72.6911L32.6167 67.8872L35.1587 68.9391L33.1684 73.7447C32.762 74.731 32.5898 75.798 32.6652 76.8621C32.7407 77.9261 33.0618 78.9582 33.6033 79.8772L35.4234 82.9503Z" fill="#DE6A1E"/>
<path d="M50.9798 83.2666C49.6925 83.4934 48.384 83.6578 47.0542 83.7599L46.475 83.325C45.2822 82.426 44.3138 81.263 43.6459 79.9271C42.9779 78.5911 42.6285 77.1186 42.625 75.625V70.4258H45.375V75.625C45.3775 76.6919 45.6271 77.7437 46.1042 78.6979C46.5813 79.6522 47.273 80.4829 48.125 81.125L50.9798 83.2666Z" fill="#DE6A1E"/>
<path d="M65.4723 77.605C64.3642 78.3158 63.2209 78.9703 62.0469 79.5661L61.3353 79.3839C59.8895 79.0097 58.55 78.3059 57.4216 77.3276C56.2933 76.3492 55.4068 75.1229 54.8316 73.7447L52.8412 68.9391L55.3833 67.8872L57.3719 72.6911C57.7826 73.6758 58.4158 74.552 59.2218 75.2509C60.0278 75.9499 60.9848 76.4527 62.0177 76.7199L65.4723 77.605Z" fill="#DE6A1E"/>
<path d="M83.875 41.6814V45.375L75.625 43.725L49.5 38.5L72.875 15.125C75.2699 17.5202 77.3298 20.2283 78.9989 23.1756C79.5489 24.145 80.0542 25.1373 80.5148 26.1525C80.6884 26.5358 80.8557 26.9214 81.0167 27.3092C82.1275 29.9939 82.924 32.7981 83.3903 35.6658C83.5691 36.7658 83.6985 37.8755 83.7788 38.995C83.8423 39.8853 83.875 40.7825 83.875 41.6814Z" fill="#FDE69A"/>
<path d="M80.5148 26.1525C79.932 26.9955 79.1526 27.6839 78.244 28.1583C77.3355 28.6326 76.3251 28.8786 75.3002 28.875H71.5V26.125H75.3002C75.9691 26.1273 76.6254 25.942 77.1944 25.5902C77.7634 25.2384 78.2224 24.7341 78.5194 24.1347L78.9989 23.1756C79.5489 24.145 80.0542 25.1373 80.5148 26.1525Z" fill="#DE6A1E"/>
<path d="M83.7788 38.995C82.3795 39.98 80.7101 40.5089 78.9989 40.5092C78.3314 40.5091 77.6665 40.4271 77.0189 40.2652L73.9578 39.5003L74.6247 36.8328L77.6858 37.5977C78.6062 37.8254 79.5698 37.812 80.4835 37.5588C81.3972 37.3056 82.2303 36.8211 82.9022 36.1522L83.3903 35.6658C83.5691 36.7658 83.6986 37.8755 83.7788 38.995Z" fill="#DE6A1E"/>
<path d="M50.875 26.125V11H52.25C54.3846 11 56.4899 11.497 58.3992 12.4516C60.3085 13.4063 61.9692 14.7923 63.25 16.5L50.875 26.125Z" fill="#FDE69A"/>
<path d="M60.5 53.625C61.2594 53.625 61.875 53.0094 61.875 52.25C61.875 51.4906 61.2594 50.875 60.5 50.875C59.7406 50.875 59.125 51.4906 59.125 52.25C59.125 53.0094 59.7406 53.625 60.5 53.625Z" fill="#FDE69A"/>
<path d="M59.125 46.75C59.8844 46.75 60.5 46.1344 60.5 45.375C60.5 44.6156 59.8844 44 59.125 44C58.3656 44 57.75 44.6156 57.75 45.375C57.75 46.1344 58.3656 46.75 59.125 46.75Z" fill="#FDE69A"/>
<path d="M70.125 61.875C70.8844 61.875 71.5 61.2594 71.5 60.5C71.5 59.7406 70.8844 59.125 70.125 59.125C69.3656 59.125 68.75 59.7406 68.75 60.5C68.75 61.2594 69.3656 61.875 70.125 61.875Z" fill="#FDE69A"/>
<path d="M73.3824 48.982C72.2434 47.843 70.3969 47.843 69.258 48.9819C68.119 50.1208 68.1191 51.9674 69.258 53.1063L70.6327 54.481C71.7717 55.62 73.6182 55.62 74.7571 54.4811C75.8961 53.3422 75.896 51.4956 74.7571 50.3567L73.3824 48.982Z" fill="#FDE69A"/>
<path d="M66.3627 66.3626C62.6851 70.0401 58.1574 72.754 53.1806 74.2637C48.2037 75.7734 42.9314 76.0324 37.8305 75.0178C32.7297 74.0032 27.9578 71.7463 23.9375 68.4469C19.9172 65.1476 16.7727 60.9077 14.7824 56.1028C12.7921 51.2979 12.0175 46.0763 12.5273 40.9006C13.037 35.7248 14.8153 30.7547 17.7047 26.4303C20.5941 22.106 24.5054 18.561 29.092 16.1094C33.6787 13.6577 38.7992 12.375 44 12.375V44L66.3627 66.3626Z" fill="#FDB15D"/>
<path d="M21.0197 53.2191L22.9639 51.2749L27.0883 55.3992L25.1441 57.3435L21.0197 53.2191Z" fill="#DE6A1E"/>
<path d="M23.7701 47.72L25.7143 45.7757L29.8387 49.9001L27.8944 51.8443L23.7701 47.72Z" fill="#DE6A1E"/>
<path d="M32.0214 27.0981L33.9657 25.1538L38.09 29.2782L36.1458 31.2224L32.0214 27.0981Z" fill="#DE6A1E"/>
<path d="M34.7716 21.5989L36.7159 19.6547L40.8402 23.779L38.896 25.7233L34.7716 21.5989Z" fill="#DE6A1E"/>
<path d="M44.3913 62.8457L46.3355 60.9014L50.4599 65.0258L48.5156 66.97L44.3913 62.8457Z" fill="#DE6A1E"/>
<path d="M47.1416 57.3465L49.0859 55.4023L53.2102 59.5266L51.266 61.4709L47.1416 57.3465Z" fill="#DE6A1E"/>
<path d="M33.3932 66.3964L37.5175 62.2721L39.4618 64.2163L35.3374 68.3407L33.3932 66.3964Z" fill="#DE6A1E"/>
<path d="M30.644 60.8969L34.7684 56.7726L36.7126 58.7168L32.5883 62.8412L30.644 60.8969Z" fill="#DE6A1E"/>
<path d="M22.3968 38.8994L26.5211 34.775L28.4654 36.7192L24.341 40.8436L22.3968 38.8994Z" fill="#DE6A1E"/>
<path d="M19.6476 33.3999L23.772 29.2755L25.7162 31.2198L21.5919 35.3441L19.6476 33.3999Z" fill="#DE6A1E"/>
<path d="M75.625 40.5419V43.725L49.5 38.5L67.375 20.625C72.6571 25.9074 75.6247 33.0716 75.625 40.5419Z" fill="#FDB15D"/>
<path d="M65.0161 36.153L69.1405 32.0286L71.0847 33.9728L66.9604 38.0972L65.0161 36.153Z" fill="#DE6A1E"/>
<path d="M63.6418 30.6537L67.7662 26.5293L69.7104 28.4735L65.586 32.5979L63.6418 30.6537Z" fill="#DE6A1E"/>
</svg>
