<svg width="25" height="26" viewBox="0 0 25 26" fill="none" xmlns="http://www.w3.org/2000/svg">
<g clip-path="url(#clip0)">
<path d="M22.6965 18.3783H2.30342L0.19483 21.324C-0.284359 21.9935 0.175071 22.9448 0.977526 22.9448H24.0225C24.8249 22.9448 25.2843 21.9935 24.8052 21.324L22.6965 18.3783Z" fill="#455A64"/>
<path d="M9.50945 14.3006L8.89673 16.8561H16.1033L15.4905 14.3006C15.2703 13.3821 14.4809 12.7407 13.5707 12.7407H11.4292C10.5191 12.7406 9.72967 13.3821 9.50945 14.3006Z" fill="url(#paint0_linear)"/>
<path d="M12.5 11.2184C13.2933 11.2184 13.9365 10.5496 13.9365 9.72449C13.9365 8.8994 13.2933 8.23053 12.5 8.23053C11.7066 8.23053 11.0635 8.8994 11.0635 9.72449C11.0635 10.5496 11.7066 11.2184 12.5 11.2184Z" fill="url(#paint1_linear)"/>
<path d="M8.08935 13.9323C8.363 12.7909 9.14223 11.8957 10.1421 11.4772C9.80135 10.9828 9.59996 10.3779 9.59996 9.72449C9.59996 8.06138 10.901 6.70837 12.5001 6.70837C14.0992 6.70837 15.4002 8.06143 15.4002 9.72449C15.4002 10.3778 15.1987 10.9828 14.858 11.4772C15.858 11.8957 16.6371 12.7909 16.9108 13.9323L17.6117 16.8561H22.6966V5.08473C22.6966 3.96386 21.8228 3.05518 20.7451 3.05518H4.25496C3.1772 3.05518 2.30347 3.96386 2.30347 5.08473V16.8561H7.3935L8.08935 13.9323Z" fill="#455A64"/>
</g>
<defs>
<linearGradient id="paint0_linear" x1="16.1033" y1="14.7984" x2="8.89673" y2="14.7984" gradientUnits="userSpaceOnUse">
<stop stop-color="#DE6A1E"/>
<stop offset="1" stop-color="#FDB15D"/>
</linearGradient>
<linearGradient id="paint1_linear" x1="13.9365" y1="9.72449" x2="11.0635" y2="9.72449" gradientUnits="userSpaceOnUse">
<stop stop-color="#DE6A1E"/>
<stop offset="1" stop-color="#FDB15D"/>
</linearGradient>
<clipPath id="clip0">
<rect width="25" height="26" fill="white"/>
</clipPath>
</defs>
</svg>
