<svg width="104" height="104" viewBox="0 0 104 104" fill="none" xmlns="http://www.w3.org/2000/svg">
<g clip-path="url(#clip0)">
<path d="M94.4177 73.5133H9.58235L0.810616 85.2963C-1.18281 87.974 0.728419 91.7793 4.06663 91.7793H99.9336C103.272 91.7793 105.183 87.974 103.19 85.2963L94.4177 73.5133Z" fill="#5A5A5A"/>
<path d="M39.5592 57.2024L37.0103 67.4246H66.9894L64.4405 57.2024C63.5243 53.5285 60.2403 50.9627 56.454 50.9627H47.5453C43.7593 50.9625 40.4753 53.5285 39.5592 57.2024V57.2024Z" fill="#5A5A5A"/>
<path d="M52 44.8738C55.3003 44.8738 57.9758 42.1984 57.9758 38.898C57.9758 35.5977 55.3003 32.9222 52 32.9222C48.6996 32.9222 46.0242 35.5977 46.0242 38.898C46.0242 42.1984 48.6996 44.8738 52 44.8738Z" fill="#5A5A5A"/>
<path d="M33.6514 55.7293C34.7898 51.1636 38.0314 47.5829 42.191 45.9089C40.7733 43.9313 39.9356 41.5115 39.9356 38.898C39.9356 32.2455 45.3478 26.8335 52 26.8335C58.6523 26.8335 64.0645 32.2457 64.0645 38.898C64.0645 41.5113 63.2265 43.9313 61.8091 45.9089C65.9688 47.5829 69.2102 51.1636 70.3486 55.7293L73.2645 67.4246H94.4175V20.339C94.4175 15.8555 90.7828 12.2207 86.2993 12.2207H17.7004C13.2169 12.2207 9.58215 15.8555 9.58215 20.339V67.4246H30.7567L33.6514 55.7293Z" fill="#5A5A5A"/>
</g>
<defs>
<clipPath id="clip0">
<rect width="104" height="104" fill="white"/>
</clipPath>
</defs>
</svg>
