<svg width="189" height="189" viewBox="0 0 189 189" fill="none" xmlns="http://www.w3.org/2000/svg">
<path d="M155.058 155.058C150.677 159.439 145.835 163.334 140.617 166.674C131.145 172.741 120.567 176.874 109.491 178.834C106.726 179.321 103.916 179.674 101.06 179.893C98.8928 180.056 96.7062 180.138 94.5 180.141C88.3064 180.144 82.1305 179.478 76.0799 178.155C73.3003 177.546 70.5736 176.804 67.8997 175.929C59.9111 173.318 52.3519 169.542 45.4671 164.722C43.1415 163.098 40.9045 161.363 38.7561 159.517C32.3873 154.051 26.8519 147.684 22.3256 140.617C20.8048 138.243 19.4008 135.79 18.1137 133.256C14.3054 125.77 11.6271 117.762 10.1661 109.491C9.67888 106.722 9.32573 103.912 9.10671 101.06C8.94429 98.8928 8.86185 96.7062 8.85939 94.5C8.8563 88.3064 9.52216 82.1306 10.8454 76.08C11.4544 73.3003 12.1964 70.5736 13.0713 67.8997C15.682 59.9111 19.4585 52.352 24.2784 45.4671C25.9026 43.1416 27.6376 40.9046 29.4833 38.7561C34.9487 32.3873 41.3161 26.8519 48.3833 22.3257C50.7569 20.8048 53.2104 19.4008 55.7439 18.1138C67.7503 12.011 81.0317 8.83958 94.5 8.85941V94.5L155.058 155.058Z" fill="#FDE69A"/>
<path d="M75.5112 40.9377L70.0516 43.1969L65.7806 32.8794C64.8986 30.7646 63.5387 28.8828 61.8076 27.3816C60.0765 25.8804 58.0211 24.8005 55.8028 24.2267L48.3831 22.3256C50.7566 20.8047 53.2102 19.4008 55.7437 18.1138L57.2683 18.505C60.3734 19.3086 63.2504 20.8203 65.6737 22.9215C68.0971 25.0228 70.0011 27.6565 71.2365 30.6165L75.5112 40.9377Z" fill="#DE6A1E"/>
<path d="M56.4565 52.2812L52.2816 56.4562L44.3856 48.5603C42.761 46.9438 40.784 45.7257 38.6097 45.0013C36.4354 44.277 34.1228 44.0661 31.8533 44.3853L24.2786 45.4669C25.9028 43.1413 27.6377 40.9044 29.4834 38.7559L31.0191 38.5381C34.1959 38.0917 37.433 38.3874 40.4765 39.4019C43.5199 40.4163 46.287 42.1221 48.5606 44.3853L56.4565 52.2812Z" fill="#DE6A1E"/>
<path d="M43.1967 70.052L40.9376 75.5079L30.6164 71.2369C28.498 70.365 26.2064 69.9955 23.9213 70.1575C21.6362 70.3196 19.4196 71.0087 17.4454 72.1708L10.8452 76.0801C11.4543 73.3005 12.1963 70.5737 13.0711 67.8999L14.437 67.0915C17.2008 65.4633 20.3042 64.4973 23.5038 64.2693C26.7035 64.0413 29.9124 64.5575 32.8792 65.7773L43.1967 70.052Z" fill="#DE6A1E"/>
<path d="M37.7486 91.5469V97.4531H26.5784C24.287 97.4584 22.028 97.9945 19.9786 99.0192C17.9291 100.044 16.1449 101.529 14.7659 103.359L10.1664 109.491C9.6791 106.722 9.32596 103.912 9.10693 101.06L10.0409 99.8156C11.9716 97.2538 14.4695 95.174 17.3387 93.7394C20.2079 92.3048 23.3705 91.5543 26.5784 91.5469H37.7486Z" fill="#DE6A1E"/>
<path d="M43.1966 118.948L32.8792 123.219C30.7644 124.101 28.8826 125.461 27.3814 127.192C25.8802 128.923 24.8003 130.979 24.2265 133.197L22.3254 140.617C20.8046 138.243 19.4006 135.79 18.1135 133.256L18.5048 131.732C19.3086 128.626 20.8207 125.749 22.9226 123.325C25.0245 120.902 27.6592 118.998 30.62 117.763L40.9375 113.492L43.1966 118.948Z" fill="#DE6A1E"/>
<path d="M48.5604 144.614C46.9432 146.239 45.7246 148.215 45.0002 150.39C44.2758 152.564 44.0654 154.877 44.3854 157.147L45.467 164.722C43.1414 163.097 40.9044 161.362 38.756 159.517L38.5382 157.981C38.0918 154.804 38.3875 151.567 39.402 148.524C40.4165 145.48 42.1222 142.713 44.3854 140.44L52.2813 132.544L56.4563 136.719L48.5604 144.614Z" fill="#DE6A1E"/>
<path d="M76.0798 178.155C73.3001 177.545 70.5734 176.803 67.8996 175.929L67.0912 174.563C65.4627 171.799 64.4969 168.696 64.2695 165.496C64.0421 162.296 64.5594 159.087 65.7807 156.121L70.0517 145.803L75.5113 148.062L71.2366 158.383C70.3638 160.502 69.9939 162.793 70.1559 165.079C70.318 167.364 71.0076 169.581 72.1706 171.554L76.0798 178.155Z" fill="#DE6A1E"/>
<path d="M109.491 178.834C106.726 179.321 103.916 179.674 101.06 179.893L99.8156 178.959C97.2538 177.029 95.174 174.531 93.7394 171.662C92.3048 168.792 91.5543 165.63 91.5469 162.422V151.255H97.4531V162.422C97.4584 164.713 97.9945 166.972 99.0192 169.022C100.044 171.071 101.529 172.855 103.359 174.234L109.491 178.834Z" fill="#DE6A1E"/>
<path d="M140.616 166.674C138.236 168.201 135.781 169.607 133.259 170.886L131.731 170.495C128.626 169.691 125.749 168.18 123.326 166.078C120.902 163.977 118.998 161.343 117.763 158.383L113.488 148.062L118.948 145.803L123.219 156.121C124.101 158.235 125.461 160.117 127.192 161.618C128.923 163.12 130.978 164.199 133.197 164.773L140.616 166.674Z" fill="#DE6A1E"/>
<path d="M180.141 89.5203V97.4531L162.422 93.9093L106.312 82.6875L156.516 32.4844C161.659 37.6286 166.083 43.4448 169.668 49.7749C170.849 51.8569 171.935 53.988 172.924 56.1684C173.297 56.9917 173.656 57.8198 174.002 58.6528C176.388 64.4187 178.098 70.4413 179.1 76.6004C179.484 78.9628 179.762 81.3462 179.934 83.7506C180.07 85.6628 180.141 87.5897 180.141 89.5203V89.5203Z" fill="#FDE69A"/>
<path d="M172.924 56.1686C171.672 57.9792 169.998 59.4577 168.047 60.4765C166.095 61.4952 163.925 62.0235 161.724 62.0158H153.562V56.1095H161.724C163.161 56.1144 164.57 55.7165 165.793 54.9609C167.015 54.2053 168 53.1224 168.638 51.8349L169.668 49.775C170.849 51.857 171.935 53.9882 172.924 56.1686V56.1686Z" fill="#DE6A1E"/>
<path d="M179.934 83.7507C176.929 85.8663 173.344 87.0021 169.668 87.0028C168.235 87.0026 166.807 86.8266 165.416 86.4787L158.842 84.836L160.274 79.1069L166.848 80.7496C168.825 81.2386 170.894 81.2099 172.857 80.6661C174.819 80.1223 176.608 79.0818 178.052 77.6451L179.1 76.6005C179.484 78.9629 179.762 81.3463 179.934 83.7507Z" fill="#DE6A1E"/>
<path d="M109.266 56.1094V23.625H112.219C116.803 23.625 121.325 24.6924 125.426 26.7427C129.526 28.793 133.093 31.7698 135.844 35.4375L109.266 56.1094Z" fill="#FDE69A"/>
<path d="M129.938 115.172C131.568 115.172 132.891 113.85 132.891 112.219C132.891 110.588 131.568 109.266 129.938 109.266C128.307 109.266 126.984 110.588 126.984 112.219C126.984 113.85 128.307 115.172 129.938 115.172Z" fill="#FDE69A"/>
<path d="M126.984 100.406C128.615 100.406 129.938 99.0841 129.938 97.4531C129.938 95.8222 128.615 94.5 126.984 94.5C125.353 94.5 124.031 95.8222 124.031 97.4531C124.031 99.0841 125.353 100.406 126.984 100.406Z" fill="#FDE69A"/>
<path d="M150.609 132.891C152.24 132.891 153.562 131.568 153.562 129.938C153.562 128.307 152.24 126.984 150.609 126.984C148.978 126.984 147.656 128.307 147.656 129.938C147.656 131.568 148.978 132.891 150.609 132.891Z" fill="#FDE69A"/>
<path d="M157.605 105.2C155.159 102.754 151.193 102.754 148.747 105.2C146.301 107.646 146.301 111.612 148.747 114.058L151.699 117.01C154.146 119.456 158.112 119.456 160.558 117.01C163.004 114.564 163.004 110.598 160.557 108.152L157.605 105.2Z" fill="#FDE69A"/>
<path d="M142.529 142.529C134.631 150.427 124.906 156.256 114.217 159.498C103.529 162.741 92.2049 163.297 81.2497 161.118C70.2944 158.939 60.0456 154.091 51.4112 147.005C42.7767 139.919 36.0231 130.813 31.7485 120.494C27.474 110.174 25.8104 98.9594 26.9052 87.8433C28 76.7272 31.8193 66.0526 38.0249 56.7652C44.2305 47.4777 52.6308 39.864 62.4817 34.5985C72.3327 29.333 83.3301 26.5782 94.5 26.5781V94.5L142.529 142.529Z" fill="#FDB15D"/>
<path d="M45.1443 114.3L49.32 110.124L58.178 118.982L54.0023 123.158L45.1443 114.3Z" fill="#DE6A1E"/>
<path d="M51.0515 102.49L55.2272 98.314L64.0852 107.172L59.9095 111.348L51.0515 102.49Z" fill="#DE6A1E"/>
<path d="M68.7732 58.1995L72.9489 54.0237L81.8069 62.8817L77.6312 67.0575L68.7732 58.1995Z" fill="#DE6A1E"/>
<path d="M74.6802 46.3888L78.8559 42.2131L87.7139 51.0711L83.5382 55.2468L74.6802 46.3888Z" fill="#DE6A1E"/>
<path d="M95.3401 134.976L99.5158 130.8L108.374 139.658L104.198 143.834L95.3401 134.976Z" fill="#DE6A1E"/>
<path d="M101.247 123.165L105.423 118.989L114.281 127.847L110.105 132.023L101.247 123.165Z" fill="#DE6A1E"/>
<path d="M71.7195 142.601L80.5775 133.743L84.7532 137.919L75.8952 146.777L71.7195 142.601Z" fill="#DE6A1E"/>
<path d="M65.8152 130.79L74.6732 121.932L78.8489 126.108L69.9909 134.966L65.8152 130.79Z" fill="#DE6A1E"/>
<path d="M48.1023 83.5454L56.9603 74.6874L61.136 78.8631L52.278 87.7211L48.1023 83.5454Z" fill="#DE6A1E"/>
<path d="M42.1978 71.7339L51.0558 62.8759L55.2315 67.0516L46.3735 75.9096L42.1978 71.7339Z" fill="#DE6A1E"/>
<path d="M162.422 87.0729V93.9093L106.312 82.6875L144.703 44.2969C156.048 55.6421 162.421 71.0288 162.422 87.0729V87.0729Z" fill="#FDB15D"/>
<path d="M139.637 77.6466L148.495 68.7886L152.671 72.9643L143.813 81.8223L139.637 77.6466Z" fill="#DE6A1E"/>
<path d="M136.686 65.8356L145.544 56.9776L149.719 61.1533L140.861 70.0113L136.686 65.8356Z" fill="#DE6A1E"/>
</svg>
