<svg width="1440" height="1024" viewBox="0 0 1440 1024" fill="none" xmlns="http://www.w3.org/2000/svg">
<g clip-path="url(#clip0)">
<path fill-rule="evenodd" clip-rule="evenodd" d="M1090.46 593.307L1077.21 588.085C1072.69 586.102 1068.15 585.954 1064.42 587.666C1060.88 589.299 1058.3 592.45 1056.98 596.782L1049.87 620.024C1047.67 627.241 1043 632.852 1036.74 635.816C1030.29 638.863 1022.7 638.879 1015.35 635.852L1001.02 629.948C996.47 628.072 991.943 628.049 988.272 629.895C984.716 631.684 982.116 635.169 980.961 639.713L978.83 648.077C976.774 656.142 971.848 662.301 964.953 665.422C957.787 668.675 949.467 668.238 941.533 664.204C936.756 661.771 931.914 661.375 927.892 663.086C924.177 664.669 921.485 667.868 920.118 672.344L913.429 694.235C911.223 701.453 906.553 707.067 900.287 710.032C893.837 713.078 886.249 713.094 878.912 710.064L863.01 703.513C858.643 701.719 854.272 701.622 850.685 703.255C847.272 704.804 844.744 707.785 843.362 711.864L843.249 712.169L837.293 726.867L827.08 722.679L832.977 708.122C835.343 701.267 839.997 695.968 846.11 693.182C852.485 690.279 859.964 690.317 867.176 693.288L883.071 699.842C887.508 701.67 891.945 701.738 895.563 700.029C899.05 698.379 901.588 695.244 902.89 690.971L909.585 669.076C911.898 661.499 916.865 655.754 923.571 652.908C930.623 649.902 938.766 650.418 946.491 654.348C951.391 656.835 956.326 657.193 960.394 655.348C964.185 653.623 966.941 650.064 968.151 645.315L970.288 636.947C972.249 629.259 976.869 623.244 983.317 620.009C989.871 616.713 997.64 616.609 1005.19 619.722L1019.52 625.627C1023.96 627.461 1028.39 627.522 1032.01 625.813C1035.5 624.164 1038.03 621.032 1039.34 616.755L1046.44 593.517C1048.68 586.198 1053.42 580.557 1059.81 577.614C1066.38 574.59 1074.08 574.699 1081.5 577.913L1094.46 583.021L1090.46 593.307Z" fill="#FDB15D"/>
</g>
<g clip-path="url(#clip1)">
<path fill-rule="evenodd" clip-rule="evenodd" d="M650.462 332.307L637.213 327.085C632.687 325.102 628.146 324.954 624.423 326.666C620.877 328.299 618.298 331.45 616.98 335.782L609.872 359.024C607.665 366.241 603.002 371.852 596.736 374.816C590.286 377.863 582.698 377.879 575.354 374.852L561.025 368.948C556.47 367.072 551.943 367.049 548.272 368.895C544.716 370.684 542.116 374.169 540.961 378.713L538.83 387.077C536.774 395.142 531.848 401.301 524.953 404.422C517.787 407.675 509.467 407.238 501.533 403.204C496.756 400.771 491.914 400.375 487.892 402.086C484.177 403.669 481.485 406.868 480.118 411.344L473.429 433.235C471.223 440.453 466.553 446.067 460.287 449.032C453.837 452.078 446.249 452.094 438.912 449.064L423.01 442.513C418.643 440.719 414.272 440.622 410.685 442.255C407.272 443.804 404.744 446.785 403.362 450.864L403.249 451.169L397.293 465.867L387.08 461.679L392.977 447.122C395.343 440.267 399.997 434.968 406.11 432.182C412.485 429.279 419.964 429.317 427.176 432.288L443.071 438.842C447.508 440.67 451.945 440.738 455.563 439.029C459.05 437.379 461.588 434.244 462.89 429.971L469.585 408.076C471.898 400.499 476.865 394.754 483.571 391.908C490.623 388.902 498.766 389.418 506.491 393.348C511.391 395.835 516.326 396.193 520.394 394.348C524.185 392.623 526.941 389.064 528.151 384.315L530.288 375.947C532.249 368.259 536.869 362.244 543.317 359.009C549.871 355.713 557.64 355.609 565.191 358.722L579.52 364.627C583.96 366.461 588.393 366.522 592.011 364.813C595.498 363.164 598.03 360.032 599.339 355.755L606.441 332.517C608.68 325.198 613.425 319.557 619.81 316.614C626.381 313.59 634.082 313.699 641.501 316.913L654.461 322.021L650.462 332.307Z" fill="#FDB15D"/>
</g>
<g clip-path="url(#clip2)">
<path fill-rule="evenodd" clip-rule="evenodd" d="M248.462 892.307L235.213 887.085C230.687 885.102 226.146 884.954 222.422 886.666C218.877 888.299 216.298 891.45 214.98 895.782L207.872 919.024C205.665 926.241 201.002 931.852 194.736 934.816C188.286 937.863 180.698 937.879 173.354 934.852L159.025 928.948C154.47 927.072 149.943 927.049 146.272 928.895C142.716 930.684 140.116 934.169 138.961 938.713L136.83 947.077C134.774 955.142 129.848 961.301 122.953 964.422C115.787 967.675 107.467 967.238 99.5331 963.204C94.7555 960.771 89.9141 960.375 85.8919 962.086C82.1765 963.669 79.485 966.868 78.1179 971.344L71.4293 993.235C69.2228 1000.45 64.553 1006.07 58.2871 1009.03C51.837 1012.08 44.2491 1012.09 36.9114 1009.06L21.0101 1002.51C16.643 1000.72 12.2718 1000.62 8.68449 1002.26C5.27171 1003.8 2.74351 1006.78 1.36219 1010.86L1.24902 1011.17L-4.70707 1025.87L-14.9202 1021.68L-9.023 1007.12C-6.65682 1000.27 -2.00333 994.968 4.10968 992.182C10.485 989.279 17.9639 989.317 25.1761 992.288L41.0712 998.842C45.5078 1000.67 49.9445 1000.74 53.5626 999.029C57.0495 997.379 59.5876 994.244 60.8899 989.971L67.5847 968.076C69.898 960.499 74.8648 954.754 81.5707 951.908C88.6231 948.902 96.7657 949.418 104.491 953.348C109.391 955.835 114.326 956.193 118.394 954.348C122.185 952.623 124.941 949.064 126.151 944.315L128.288 935.947C130.248 928.259 134.869 922.244 141.317 919.009C147.871 915.713 155.639 915.609 163.191 918.722L177.52 924.627C181.96 926.461 186.393 926.522 190.011 924.813C193.498 923.164 196.03 920.032 197.339 915.755L204.44 892.517C206.679 885.198 211.425 879.557 217.81 876.614C224.381 873.59 232.082 873.699 239.501 876.913L252.461 882.021L248.462 892.307Z" fill="#FDB15D"/>
</g>
<g clip-path="url(#clip3)">
<path fill-rule="evenodd" clip-rule="evenodd" d="M1401.46 -16.6933L1388.21 -21.9152C1383.69 -23.8983 1379.15 -24.046 1375.42 -22.3343C1371.88 -20.7005 1369.3 -17.55 1367.98 -13.2178L1360.87 10.0235C1358.67 17.2412 1354 22.8519 1347.74 25.8164C1341.29 28.8626 1333.7 28.8786 1326.35 25.8521L1312.02 19.9477C1307.47 18.0721 1302.94 18.0487 1299.27 19.8953C1295.72 21.6835 1293.12 25.169 1291.96 29.7127L1289.83 38.0773C1287.77 46.1424 1282.85 52.3012 1275.95 55.4222C1268.79 58.6749 1260.47 58.2377 1252.53 54.2043C1247.76 51.7711 1242.91 51.3753 1238.89 53.0858C1235.18 54.6687 1232.49 57.8678 1231.12 62.344L1224.43 84.2354C1222.22 91.4531 1217.55 97.0674 1211.29 100.032C1204.84 103.078 1197.25 103.094 1189.91 100.064L1174.01 93.513C1169.64 91.7192 1165.27 91.6224 1161.68 93.2554C1158.27 94.8042 1155.74 97.7848 1154.36 101.864L1154.25 102.169L1148.29 116.867L1138.08 112.679L1143.98 98.122C1146.34 91.2668 1151 85.9678 1157.11 83.1824C1163.49 80.2787 1170.96 80.3173 1178.18 83.2875L1194.07 89.8421C1198.51 91.6703 1202.94 91.7375 1206.56 90.0289C1210.05 88.3794 1212.59 85.2442 1213.89 80.9707L1220.58 59.0756C1222.9 51.4987 1227.86 45.7544 1234.57 42.9078C1241.62 39.9025 1249.77 40.4177 1257.49 44.3482C1262.39 46.8349 1267.33 47.193 1271.39 45.3483C1275.18 43.6229 1277.94 40.0639 1279.15 35.3149L1281.29 26.9467C1283.25 19.2594 1287.87 13.2439 1294.32 10.0086C1300.87 6.71252 1308.64 6.60873 1316.19 9.72217L1330.52 15.6266C1334.96 17.4609 1339.39 17.522 1343.01 15.8134C1346.5 14.1639 1349.03 11.0323 1350.34 6.75516L1357.44 -16.4825C1359.68 -23.8016 1364.42 -29.4429 1370.81 -32.3857C1377.38 -35.4102 1385.08 -35.3015 1392.5 -32.0872L1405.46 -26.9794L1401.46 -16.6933Z" fill="#FDB15D"/>
</g>
<g clip-path="url(#clip4)">
<path d="M325.025 269.025C356.505 269.025 382.025 243.505 382.025 212.025C382.025 180.545 356.505 155.025 325.025 155.025C293.545 155.025 268.025 180.545 268.025 212.025C268.025 243.505 293.545 269.025 325.025 269.025Z" stroke="white" stroke-width="14.05"/>
</g>
<g clip-path="url(#clip5)">
<path d="M41.0249 703.025C72.5051 703.025 98.0249 677.505 98.0249 646.025C98.0249 614.545 72.5051 589.025 41.0249 589.025C9.54467 589.025 -15.9751 614.545 -15.9751 646.025C-15.9751 677.505 9.54467 703.025 41.0249 703.025Z" stroke="white" stroke-width="14.05"/>
</g>
<g clip-path="url(#clip6)">
<path d="M720.025 665.025C751.505 665.025 777.025 639.505 777.025 608.025C777.025 576.545 751.505 551.025 720.025 551.025C688.545 551.025 663.025 576.545 663.025 608.025C663.025 639.505 688.545 665.025 720.025 665.025Z" stroke="white" stroke-width="14.05"/>
</g>
<g clip-path="url(#clip7)">
<path d="M1167.03 354.025C1198.51 354.025 1224.03 328.505 1224.03 297.025C1224.03 265.545 1198.51 240.025 1167.03 240.025C1135.54 240.025 1110.03 265.545 1110.03 297.025C1110.03 328.505 1135.54 354.025 1167.03 354.025Z" stroke="white" stroke-width="14.05"/>
</g>
<g clip-path="url(#clip8)">
<path d="M1241.03 931.025C1272.51 931.025 1298.03 905.505 1298.03 874.025C1298.03 842.545 1272.51 817.025 1241.03 817.025C1209.54 817.025 1184.03 842.545 1184.03 874.025C1184.03 905.505 1209.54 931.025 1241.03 931.025Z" stroke="white" stroke-width="14.05"/>
</g>
<g clip-path="url(#clip9)">
<path d="M1440.03 646.025C1471.51 646.025 1497.03 620.505 1497.03 589.025C1497.03 557.545 1471.51 532.025 1440.03 532.025C1408.54 532.025 1383.03 557.545 1383.03 589.025C1383.03 620.505 1408.54 646.025 1440.03 646.025Z" stroke="white" stroke-width="14.05"/>
</g>
<g clip-path="url(#clip10)">
<path d="M497.025 1097.03C528.505 1097.03 554.025 1071.51 554.025 1040.03C554.025 1008.54 528.505 983.025 497.025 983.025C465.545 983.025 440.025 1008.54 440.025 1040.03C440.025 1071.51 465.545 1097.03 497.025 1097.03Z" stroke="white" stroke-width="14.05"/>
</g>
<defs>
<clipPath id="clip0">
<rect x="819" y="708.701" width="301.402" height="45.8189" transform="rotate(-30 819 708.701)" fill="#FDB15D"/>
</clipPath>
<clipPath id="clip1">
<rect x="379" y="447.701" width="301.402" height="45.8189" transform="rotate(-30 379 447.701)" fill="#FDB15D"/>
</clipPath>
<clipPath id="clip2">
<rect x="-23" y="1007.7" width="301.402" height="45.8189" transform="rotate(-30 -23 1007.7)" fill="#FDB15D"/>
</clipPath>
<clipPath id="clip3">
<rect x="1130" y="98.7011" width="301.402" height="45.8189" transform="rotate(-30 1130 98.7011)" fill="#FDB15D"/>
</clipPath>
<clipPath id="clip4">
<rect x="261" y="148" width="128.05" height="128.05" fill="#FDB15D"/>
</clipPath>
<clipPath id="clip5">
<rect x="-23" y="582" width="128.05" height="128.05" fill="#FDB15D"/>
</clipPath>
<clipPath id="clip6">
<rect x="656" y="544" width="128.05" height="128.05" fill="#FDB15D"/>
</clipPath>
<clipPath id="clip7">
<rect x="1103" y="233" width="128.05" height="128.05" fill="#FDB15D"/>
</clipPath>
<clipPath id="clip8">
<rect x="1177" y="810" width="128.05" height="128.05" fill="#FDB15D"/>
</clipPath>
<clipPath id="clip9">
<rect x="1376" y="525" width="128.05" height="128.05" fill="#FDB15D"/>
</clipPath>
<clipPath id="clip10">
<rect x="433" y="976" width="128.05" height="128.05" fill="#FDB15D"/>
</clipPath>
</defs>
</svg>
