<svg width="1440" height="1024" viewBox="0 0 1440 1024" fill="none" xmlns="http://www.w3.org/2000/svg">
<g clip-path="url(#clip0)">
<rect width="1440" height="1024" fill="white"/>
<g clip-path="url(#clip1)">
<path fill-rule="evenodd" clip-rule="evenodd" d="M1652.72 -52C1415.09 -37.8984 1202.03 418.792 610.132 417.416C-66.9841 415.843 470.996 898.475 -422 1052.2L1720.71 1100.21L1652.72 -52Z" fill="url(#paint0_linear)"/>
<g clip-path="url(#clip2)">
<path d="M169.025 390.025C200.505 390.025 226.025 364.505 226.025 333.025C226.025 301.545 200.505 276.025 169.025 276.025C137.545 276.025 112.025 301.545 112.025 333.025C112.025 364.505 137.545 390.025 169.025 390.025Z" stroke="#FDB15D" stroke-width="14.05"/>
</g>
<g clip-path="url(#clip3)">
<path d="M429.025 69.025C460.505 69.025 486.025 43.5053 486.025 12.025C486.025 -19.4552 460.505 -44.975 429.025 -44.975C397.545 -44.975 372.025 -19.4552 372.025 12.025C372.025 43.5053 397.545 69.025 429.025 69.025Z" stroke="#FDB15D" stroke-width="14.05"/>
</g>
<g clip-path="url(#clip4)">
<path fill-rule="evenodd" clip-rule="evenodd" d="M1492.46 209.307L1479.21 204.085C1474.69 202.102 1470.15 201.954 1466.42 203.666C1462.88 205.299 1460.3 208.45 1458.98 212.782L1451.87 236.024C1449.67 243.241 1445 248.852 1438.74 251.816C1432.29 254.863 1424.7 254.879 1417.35 251.852L1403.02 245.948C1398.47 244.072 1393.94 244.049 1390.27 245.895C1386.72 247.684 1384.12 251.169 1382.96 255.713L1380.83 264.077C1378.77 272.142 1373.85 278.301 1366.95 281.422C1359.79 284.675 1351.47 284.238 1343.53 280.204C1338.76 277.771 1333.91 277.375 1329.89 279.086C1326.18 280.669 1323.49 283.868 1322.12 288.344L1315.43 310.235C1313.22 317.453 1308.55 323.067 1302.29 326.032C1295.84 329.078 1288.25 329.094 1280.91 326.064L1265.01 319.513C1260.64 317.719 1256.27 317.622 1252.68 319.255C1249.27 320.804 1246.74 323.785 1245.36 327.864L1245.25 328.169L1239.29 342.867L1229.08 338.679L1234.98 324.122C1237.34 317.267 1242 311.968 1248.11 309.182C1254.49 306.279 1261.96 306.317 1269.18 309.288L1285.07 315.842C1289.51 317.67 1293.94 317.738 1297.56 316.029C1301.05 314.379 1303.59 311.244 1304.89 306.971L1311.58 285.076C1313.9 277.499 1318.86 271.754 1325.57 268.908C1332.62 265.902 1340.77 266.418 1348.49 270.348C1353.39 272.835 1358.33 273.193 1362.39 271.348C1366.18 269.623 1368.94 266.064 1370.15 261.315L1372.29 252.947C1374.25 245.259 1378.87 239.244 1385.32 236.009C1391.87 232.713 1399.64 232.609 1407.19 235.722L1421.52 241.627C1425.96 243.461 1430.39 243.522 1434.01 241.813C1437.5 240.164 1440.03 237.032 1441.34 232.755L1448.44 209.517C1450.68 202.198 1455.42 196.557 1461.81 193.614C1468.38 190.59 1476.08 190.699 1483.5 193.913L1496.46 199.021L1492.46 209.307Z" fill="white"/>
</g>
</g>
<g clip-path="url(#clip5)">
<path fill-rule="evenodd" clip-rule="evenodd" d="M1090.46 593.307L1077.21 588.085C1072.69 586.102 1068.15 585.954 1064.42 587.666C1060.88 589.299 1058.3 592.45 1056.98 596.782L1049.87 620.024C1047.67 627.241 1043 632.852 1036.74 635.816C1030.29 638.863 1022.7 638.879 1015.35 635.852L1001.02 629.948C996.47 628.072 991.943 628.049 988.272 629.895C984.716 631.684 982.116 635.169 980.961 639.713L978.83 648.077C976.774 656.142 971.848 662.301 964.953 665.422C957.787 668.675 949.467 668.238 941.533 664.204C936.756 661.771 931.914 661.375 927.892 663.086C924.177 664.669 921.485 667.868 920.118 672.344L913.429 694.235C911.223 701.453 906.553 707.067 900.287 710.032C893.837 713.078 886.249 713.094 878.912 710.064L863.01 703.513C858.643 701.719 854.272 701.622 850.685 703.255C847.272 704.804 844.744 707.785 843.362 711.864L843.249 712.169L837.293 726.867L827.08 722.679L832.977 708.122C835.343 701.267 839.997 695.968 846.11 693.182C852.485 690.279 859.964 690.317 867.176 693.288L883.071 699.842C887.508 701.67 891.945 701.738 895.563 700.029C899.05 698.379 901.588 695.244 902.89 690.971L909.585 669.076C911.898 661.499 916.865 655.754 923.571 652.908C930.623 649.902 938.766 650.418 946.491 654.348C951.391 656.835 956.326 657.193 960.395 655.348C964.185 653.623 966.941 650.064 968.151 645.315L970.288 636.947C972.249 629.259 976.869 623.244 983.317 620.009C989.871 616.713 997.64 616.609 1005.19 619.722L1019.52 625.627C1023.96 627.461 1028.39 627.522 1032.01 625.813C1035.5 624.164 1038.03 621.032 1039.34 616.755L1046.44 593.517C1048.68 586.198 1053.42 580.557 1059.81 577.614C1066.38 574.59 1074.08 574.699 1081.5 577.913L1094.46 583.021L1090.46 593.307Z" fill="white"/>
</g>
<g clip-path="url(#clip6)">
<path fill-rule="evenodd" clip-rule="evenodd" d="M704.462 160.307L691.213 155.085C686.687 153.102 682.146 152.954 678.423 154.666C674.877 156.299 672.298 159.45 670.98 163.782L663.872 187.024C661.665 194.241 657.002 199.852 650.736 202.816C644.286 205.863 636.698 205.879 629.354 202.852L615.025 196.948C610.47 195.072 605.943 195.049 602.272 196.895C598.716 198.684 596.116 202.169 594.961 206.713L592.83 215.077C590.774 223.142 585.848 229.301 578.953 232.422C571.787 235.675 563.467 235.238 555.533 231.204C550.756 228.771 545.914 228.375 541.892 230.086C538.177 231.669 535.485 234.868 534.118 239.344L527.429 261.235C525.223 268.453 520.553 274.067 514.287 277.032C507.837 280.078 500.249 280.094 492.912 277.064L477.01 270.513C472.643 268.719 468.272 268.622 464.685 270.255C461.272 271.804 458.744 274.785 457.362 278.864L457.249 279.169L451.293 293.867L441.08 289.679L446.977 275.122C449.343 268.267 453.997 262.968 460.11 260.182C466.485 257.279 473.964 257.317 481.176 260.288L497.071 266.842C501.508 268.67 505.945 268.738 509.563 267.029C513.05 265.379 515.588 262.244 516.89 257.971L523.585 236.076C525.898 228.499 530.865 222.754 537.571 219.908C544.623 216.902 552.766 217.418 560.491 221.348C565.391 223.835 570.326 224.193 574.395 222.348C578.185 220.623 580.941 217.064 582.151 212.315L584.288 203.947C586.249 196.259 590.869 190.244 597.317 187.009C603.871 183.713 611.64 183.609 619.191 186.722L633.52 192.627C637.96 194.461 642.393 194.522 646.011 192.813C649.498 191.164 652.03 188.032 653.339 183.755L660.441 160.517C662.68 153.198 667.425 147.557 673.81 144.614C680.381 141.59 688.082 141.699 695.501 144.913L708.461 150.021L704.462 160.307Z" fill="#FDB15D"/>
</g>
<g clip-path="url(#clip7)">
<path fill-rule="evenodd" clip-rule="evenodd" d="M369.462 860.307L356.213 855.085C351.687 853.102 347.146 852.954 343.422 854.666C339.877 856.299 337.298 859.45 335.98 863.782L328.872 887.024C326.665 894.241 322.002 899.852 315.736 902.816C309.286 905.863 301.698 905.879 294.354 902.852L280.025 896.948C275.47 895.072 270.943 895.049 267.272 896.895C263.716 898.684 261.116 902.169 259.961 906.713L257.83 915.077C255.774 923.142 250.848 929.301 243.953 932.422C236.787 935.675 228.467 935.238 220.533 931.204C215.755 928.771 210.914 928.375 206.892 930.086C203.176 931.669 200.485 934.868 199.118 939.344L192.429 961.235C190.223 968.453 185.553 974.067 179.287 977.032C172.837 980.078 165.249 980.094 157.911 977.064L142.01 970.513C137.643 968.719 133.272 968.622 129.684 970.255C126.272 971.804 123.744 974.785 122.362 978.864L122.249 979.169L116.293 993.867L106.08 989.679L111.977 975.122C114.343 968.267 118.997 962.968 125.11 960.182C131.485 957.279 138.964 957.317 146.176 960.288L162.071 966.842C166.508 968.67 170.944 968.738 174.563 967.029C178.05 965.379 180.588 962.244 181.89 957.971L188.585 936.076C190.898 928.499 195.865 922.754 202.571 919.908C209.623 916.902 217.766 917.418 225.491 921.348C230.391 923.835 235.326 924.193 239.394 922.348C243.185 920.623 245.941 917.064 247.151 912.315L249.288 903.947C251.248 896.259 255.869 890.244 262.317 887.009C268.871 883.713 276.639 883.609 284.191 886.722L298.52 892.627C302.96 894.461 307.393 894.522 311.011 892.813C314.498 891.164 317.03 888.032 318.339 883.755L325.44 860.517C327.679 853.198 332.425 847.557 338.81 844.614C345.38 841.59 353.082 841.699 360.501 844.913L373.461 850.021L369.462 860.307Z" fill="white"/>
</g>
<g clip-path="url(#clip8)">
<path d="M41.0249 703.025C72.5051 703.025 98.0249 677.505 98.0249 646.025C98.0249 614.545 72.5051 589.025 41.0249 589.025C9.54467 589.025 -15.9751 614.545 -15.9751 646.025C-15.9751 677.505 9.54467 703.025 41.0249 703.025Z" stroke="white" stroke-width="14.05"/>
</g>
<g clip-path="url(#clip9)">
<path d="M528.025 696.025C559.505 696.025 585.025 670.505 585.025 639.025C585.025 607.545 559.505 582.025 528.025 582.025C496.545 582.025 471.025 607.545 471.025 639.025C471.025 670.505 496.545 696.025 528.025 696.025Z" stroke="white" stroke-width="14.05"/>
</g>
<g clip-path="url(#clip10)">
<path d="M1025.03 182.025C1056.51 182.025 1082.03 156.505 1082.03 125.025C1082.03 93.5448 1056.51 68.025 1025.03 68.025C993.545 68.025 968.025 93.5448 968.025 125.025C968.025 156.505 993.545 182.025 1025.03 182.025Z" stroke="#FDB15D" stroke-width="14.05"/>
</g>
<g clip-path="url(#clip11)">
<path d="M1241.03 931.025C1272.51 931.025 1298.03 905.505 1298.03 874.025C1298.03 842.545 1272.51 817.025 1241.03 817.025C1209.54 817.025 1184.03 842.545 1184.03 874.025C1184.03 905.505 1209.54 931.025 1241.03 931.025Z" stroke="white" stroke-width="14.05"/>
</g>
<g clip-path="url(#clip12)">
<path d="M639.025 1097.03C670.505 1097.03 696.025 1071.51 696.025 1040.03C696.025 1008.54 670.505 983.025 639.025 983.025C607.545 983.025 582.025 1008.54 582.025 1040.03C582.025 1071.51 607.545 1097.03 639.025 1097.03Z" stroke="white" stroke-width="14.05"/>
</g>
</g>
<defs>
<linearGradient id="paint0_linear" x1="1720.71" y1="524.103" x2="-422" y2="524.103" gradientUnits="userSpaceOnUse">
<stop stop-color="#FDB15D"/>
<stop offset="1" stop-color="#FEE698"/>
</linearGradient>
<clipPath id="clip0">
<rect width="1440" height="1024" fill="white"/>
</clipPath>
<clipPath id="clip1">
<rect width="2029" height="1096" transform="matrix(1 0 0 -1 -422 1044)" fill="white"/>
</clipPath>
<clipPath id="clip2">
<rect x="105" y="269" width="128.05" height="128.05" fill="white"/>
</clipPath>
<clipPath id="clip3">
<rect x="365" y="-52" width="128.05" height="128.05" fill="white"/>
</clipPath>
<clipPath id="clip4">
<rect x="1221" y="324.701" width="301.402" height="45.8189" transform="rotate(-30 1221 324.701)" fill="white"/>
</clipPath>
<clipPath id="clip5">
<rect x="819" y="708.701" width="301.402" height="45.8189" transform="rotate(-30 819 708.701)" fill="white"/>
</clipPath>
<clipPath id="clip6">
<rect x="433" y="275.701" width="301.402" height="45.8189" transform="rotate(-30 433 275.701)" fill="white"/>
</clipPath>
<clipPath id="clip7">
<rect x="98" y="975.701" width="301.402" height="45.8189" transform="rotate(-30 98 975.701)" fill="white"/>
</clipPath>
<clipPath id="clip8">
<rect x="-23" y="582" width="128.05" height="128.05" fill="white"/>
</clipPath>
<clipPath id="clip9">
<rect x="464" y="575" width="128.05" height="128.05" fill="white"/>
</clipPath>
<clipPath id="clip10">
<rect x="961" y="61" width="128.05" height="128.05" fill="white"/>
</clipPath>
<clipPath id="clip11">
<rect x="1177" y="810" width="128.05" height="128.05" fill="white"/>
</clipPath>
<clipPath id="clip12">
<rect x="575" y="976" width="128.05" height="128.05" fill="white"/>
</clipPath>
</defs>
</svg>
