<svg width="1445" height="953" viewBox="0 0 1445 953" fill="none" xmlns="http://www.w3.org/2000/svg">
<g opacity="0.8">
<g clip-path="url(#clip0)">
<path d="M1444.15 0.331177H0.148438V962.731H1444.15V0.331177Z" fill="url(#paint0_linear)"/>
<path opacity="0.17" fill-rule="evenodd" clip-rule="evenodd" d="M1503.82 435.781C1488.43 407.311 1348.84 329.246 1289.03 337.491C1229.21 345.737 1228.87 441.652 1174.91 447.277C1120.94 452.902 1055 407.896 978.302 412.125C901.604 416.355 883.583 510.93 853.151 560.778C822.718 610.628 688.872 544.638 605.721 587.251C522.571 629.861 542.869 728.276 500.011 772.359C457.153 816.442 420.598 772.619 359.028 812.804C297.459 852.986 254.88 989.683 254.88 989.683L1503.82 979.939V435.781Z" fill="url(#paint1_linear)"/>
<path opacity="0.17" fill-rule="evenodd" clip-rule="evenodd" d="M1498.32 473.404C1477.86 448.324 1326.1 397.81 1268.89 417.123C1211.68 436.436 1229.34 530.712 1177.39 546.354C1125.44 561.995 1052.22 530.149 977.677 548.68C903.133 567.211 903.169 663.487 882.628 718.156C862.087 772.826 718.236 733.1 644.553 790.541C570.871 847.984 609.267 940.849 575.436 992.183C541.608 1043.52 497.479 1007.33 444.54 1058.34C391.6 1109.35 375.416 1251.6 375.416 1251.6L1600.38 1007.91L1498.32 473.404Z" fill="url(#paint2_linear)"/>
<path opacity="0.17" fill-rule="evenodd" clip-rule="evenodd" d="M-200.781 454.314C-185.388 482.785 -45.7991 560.85 14.0161 552.604C73.8314 544.359 74.1756 448.444 128.138 442.819C182.1 437.193 248.043 482.2 324.741 477.97C401.439 473.74 419.46 379.165 449.892 329.318C480.325 279.468 614.171 345.457 697.322 302.845C780.472 260.232 760.174 161.819 803.032 117.737C845.888 73.654 882.445 117.477 944.015 77.2918C1005.58 37.1092 1048.16 -99.5876 1048.16 -99.5876L-200.781 -89.8433V454.314Z" fill="url(#paint3_linear)"/>
<path opacity="0.17" fill-rule="evenodd" clip-rule="evenodd" d="M-195.273 416.69C-174.813 441.77 -23.0587 492.284 34.1502 472.971C91.3591 453.66 73.7061 359.381 125.656 343.74C177.607 328.098 250.822 359.944 325.366 341.413C399.911 322.882 399.875 226.606 420.415 171.937C440.956 117.268 584.808 156.993 658.49 99.5522C732.173 42.109 693.777 -50.7554 727.607 -102.09C761.435 -153.424 805.564 -117.233 858.503 -168.245C911.443 -219.257 927.628 -361.51 927.628 -361.51L-297.334 -117.815L-195.273 416.69Z" fill="url(#paint4_linear)"/>
</g>
</g>
<defs>
<linearGradient id="paint0_linear" x1="1444.15" y1="481.531" x2="0.148453" y2="481.531" gradientUnits="userSpaceOnUse">
<stop stop-color="#FDB15D"/>
<stop offset="1" stop-color="#FEE698"/>
</linearGradient>
<linearGradient id="paint1_linear" x1="1503.82" y1="663.284" x2="254.88" y2="663.284" gradientUnits="userSpaceOnUse">
<stop stop-color="#DE6A1E"/>
<stop offset="1" stop-color="#FDB15D"/>
</linearGradient>
<linearGradient id="paint2_linear" x1="1600.38" y1="832.211" x2="375.416" y2="832.211" gradientUnits="userSpaceOnUse">
<stop stop-color="#DE6A1E"/>
<stop offset="1" stop-color="#FDB15D"/>
</linearGradient>
<linearGradient id="paint3_linear" x1="1048.16" y1="226.812" x2="-200.781" y2="226.812" gradientUnits="userSpaceOnUse">
<stop stop-color="#DE6A1E"/>
<stop offset="1" stop-color="#FDB15D"/>
</linearGradient>
<linearGradient id="paint4_linear" x1="927.627" y1="57.8818" x2="-297.334" y2="57.8818" gradientUnits="userSpaceOnUse">
<stop stop-color="#DE6A1E"/>
<stop offset="1" stop-color="#FDB15D"/>
</linearGradient>
<clipPath id="clip0">
<rect width="1445" height="953" fill="white"/>
</clipPath>
</defs>
</svg>
