<svg width="1440" height="973" viewBox="0 0 1440 973" fill="none" xmlns="http://www.w3.org/2000/svg">
<path d="M1445.15 10.3312H1.14868V972.731H1445.15V10.3312Z" fill="url(#paint0_linear)"/>
<path opacity="0.17" fill-rule="evenodd" clip-rule="evenodd" d="M1504.82 445.781C1489.43 417.311 1349.84 339.246 1290.03 347.491C1230.21 355.737 1229.87 451.652 1175.91 457.277C1121.94 462.902 1056 417.896 979.302 422.125C902.604 426.355 884.583 520.93 854.151 570.778C823.718 620.628 689.872 554.638 606.721 597.251C523.571 639.861 543.869 738.276 501.011 782.359C458.153 826.442 421.598 782.619 360.028 822.804C298.459 862.986 255.88 999.683 255.88 999.683L1504.82 989.939V445.781Z" fill="url(#paint1_linear)"/>
<path opacity="0.17" fill-rule="evenodd" clip-rule="evenodd" d="M1499.32 483.404C1478.86 458.324 1327.1 407.81 1269.89 427.123C1212.68 446.436 1230.34 540.712 1178.39 556.354C1126.44 571.995 1053.22 540.149 978.677 558.68C904.133 577.211 904.169 673.487 883.628 728.156C863.087 782.826 719.236 743.1 645.553 800.541C571.871 857.984 610.267 950.849 576.436 1002.18C542.608 1053.52 498.479 1017.33 445.54 1068.34C392.6 1119.35 376.416 1261.6 376.416 1261.6L1601.38 1017.91L1499.32 483.404Z" fill="url(#paint2_linear)"/>
<path opacity="0.17" fill-rule="evenodd" clip-rule="evenodd" d="M-199.781 464.314C-184.388 492.785 -44.7994 570.85 15.0159 562.604C74.8312 554.359 75.1753 458.444 129.138 452.819C183.1 447.193 249.043 492.2 325.741 487.97C402.439 483.741 420.46 389.165 450.892 339.318C481.324 289.468 615.171 355.457 698.321 312.845C781.472 270.232 761.174 171.819 804.032 127.737C846.887 83.654 883.445 127.477 945.014 87.2918C1006.58 47.1092 1049.16 -89.5876 1049.16 -89.5876L-199.781 -79.8433V464.314V464.314Z" fill="url(#paint3_linear)"/>
<path opacity="0.17" fill-rule="evenodd" clip-rule="evenodd" d="M-194.273 426.69C-173.813 451.77 -22.0587 502.284 35.1502 482.971C92.3591 463.66 74.7061 369.381 126.656 353.74C178.607 338.098 251.822 369.944 326.366 351.413C400.911 332.882 400.875 236.606 421.415 181.937C441.956 127.268 585.808 166.993 659.49 109.552C733.173 52.109 694.777 -40.7554 728.607 -92.0898C762.435 -143.424 806.564 -107.233 859.503 -158.245C912.443 -209.257 928.628 -351.51 928.628 -351.51L-296.334 -107.815L-194.273 426.69Z" fill="url(#paint4_linear)"/>
<defs>
<linearGradient id="paint0_linear" x1="1445.15" y1="491.531" x2="1.1487" y2="491.531" gradientUnits="userSpaceOnUse">
<stop stop-color="#FDB15D"/>
<stop offset="1" stop-color="#FEE698"/>
</linearGradient>
<linearGradient id="paint1_linear" x1="1504.82" y1="673.284" x2="255.88" y2="673.284" gradientUnits="userSpaceOnUse">
<stop stop-color="#DE6A1E"/>
<stop offset="1" stop-color="#FDB15D"/>
</linearGradient>
<linearGradient id="paint2_linear" x1="1601.38" y1="842.211" x2="376.416" y2="842.211" gradientUnits="userSpaceOnUse">
<stop stop-color="#DE6A1E"/>
<stop offset="1" stop-color="#FDB15D"/>
</linearGradient>
<linearGradient id="paint3_linear" x1="1049.16" y1="236.812" x2="-199.781" y2="236.812" gradientUnits="userSpaceOnUse">
<stop stop-color="#DE6A1E"/>
<stop offset="1" stop-color="#FDB15D"/>
</linearGradient>
<linearGradient id="paint4_linear" x1="928.627" y1="67.8818" x2="-296.334" y2="67.8818" gradientUnits="userSpaceOnUse">
<stop stop-color="#DE6A1E"/>
<stop offset="1" stop-color="#FDB15D"/>
</linearGradient>
</defs>
</svg>
