<svg width="392" height="49" viewBox="0 0 392 49" fill="none" xmlns="http://www.w3.org/2000/svg">
<path d="M88.736 31.16C88.736 33.416 87.932 35.192 86.324 36.488C84.716 37.784 82.496 38.432 79.664 38.432C76.784 38.432 74.024 37.628 71.384 36.02L72.932 31.988C75.188 33.5 77.48 34.256 79.808 34.256C81.224 34.256 82.304 33.956 83.048 33.356C83.792 32.756 84.164 32.024 84.164 31.16C84.164 30.272 83.792 29.528 83.048 28.928C82.328 28.304 80.864 27.584 78.656 26.768C76.28 25.904 74.576 24.896 73.544 23.744C72.536 22.568 72.032 21.188 72.032 19.604C72.032 17.588 72.8 15.86 74.336 14.42C75.872 12.98 77.936 12.26 80.528 12.26C83.192 12.26 85.52 12.836 87.512 13.988L86.072 17.948C84.056 16.82 82.172 16.256 80.42 16.256C79.148 16.256 78.176 16.568 77.504 17.192C76.856 17.792 76.532 18.56 76.532 19.496C76.532 20.288 76.904 20.984 77.648 21.584C78.392 22.16 79.664 22.772 81.464 23.42C84.2 24.476 86.096 25.604 87.152 26.804C88.208 27.98 88.736 29.432 88.736 31.16ZM90.534 16.796V12.692H111.81V16.796H103.494V38H98.994V16.796H90.534ZM131.372 38V31.952H119.276V38H114.776V23.564C114.776 19.748 115.676 16.916 117.476 15.068C119.276 13.196 121.868 12.26 125.252 12.26C128.636 12.26 131.252 13.196 133.1 15.068C134.948 16.94 135.872 19.772 135.872 23.564V38H131.372ZM119.276 23.564V28.424C120.764 28.4 124.796 28.388 131.372 28.388V23.6C131.372 18.776 129.356 16.364 125.324 16.364C123.452 16.364 121.976 16.952 120.896 18.128C119.816 19.304 119.276 21.116 119.276 23.564ZM142.472 38V12.692H150.572C153.836 12.692 156.332 13.508 158.06 15.14C159.812 16.772 160.688 18.956 160.688 21.692C160.688 23.204 160.292 24.728 159.5 26.264C158.708 27.776 157.532 28.916 155.972 29.684C156.38 30.044 156.872 30.632 157.448 31.448C158.048 32.264 158.636 32.888 159.212 33.32C159.788 33.752 160.532 33.968 161.444 33.968H162.452V37.928C161.828 38.072 161.024 38.144 160.04 38.144C158.864 38.144 157.844 37.94 156.98 37.532C156.14 37.124 155.48 36.608 155 35.984C154.52 35.336 154.1 34.688 153.74 34.04C153.38 33.368 152.972 32.708 152.516 32.06C152.06 31.412 151.568 30.932 151.04 30.62C150.752 30.644 150.308 30.656 149.708 30.656H146.936V38H142.472ZM150.248 16.796H146.936V26.696H150.248C152.216 26.696 153.644 26.24 154.532 25.328C155.42 24.416 155.864 23.204 155.864 21.692C155.864 18.428 153.992 16.796 150.248 16.796ZM163.441 16.796V12.692H184.717V16.796H176.401V38H171.901V16.796H163.441ZM188.14 27.524V12.692H192.604V27.524C192.604 32.084 194.608 34.364 198.616 34.364C202.72 34.364 204.772 32.072 204.772 27.488V12.692H209.236V27.524C209.236 31.172 208.288 33.908 206.392 35.732C204.496 37.556 201.904 38.468 198.616 38.468C195.328 38.468 192.76 37.568 190.912 35.768C189.064 33.944 188.14 31.196 188.14 27.524ZM222.712 30.656H220.3V38H215.836V12.692H223.576C226.84 12.692 229.336 13.508 231.064 15.14C232.816 16.772 233.692 18.956 233.692 21.692C233.692 24.452 232.78 26.636 230.956 28.244C229.132 29.852 226.384 30.656 222.712 30.656ZM223.252 16.796H220.3V26.696H223.252C225.22 26.696 226.648 26.24 227.536 25.328C228.424 24.416 228.868 23.204 228.868 21.692C228.868 18.428 226.996 16.796 223.252 16.796Z" fill="#455A64"/>
<path d="M249.874 38V12.692H257.974C261.118 12.692 263.47 13.292 265.03 14.492C266.614 15.668 267.406 17.3 267.406 19.388C267.406 22.124 265.93 24.02 262.978 25.076C266.386 26.06 268.09 27.98 268.09 30.836C268.09 33.044 267.142 34.796 265.246 36.092C263.35 37.364 260.926 38 257.974 38H249.874ZM257.11 26.876H254.338V33.896H258.19C259.966 33.896 261.25 33.572 262.042 32.924C262.858 32.252 263.266 31.4 263.266 30.368C263.266 29.384 262.786 28.556 261.826 27.884C260.866 27.212 259.294 26.876 257.11 26.876ZM258.19 16.796H254.338V23.672H257.542C259.246 23.696 260.542 23.348 261.43 22.628C262.318 21.884 262.762 20.984 262.762 19.928C262.762 18.992 262.39 18.236 261.646 17.66C260.902 17.084 259.75 16.796 258.19 16.796ZM289.863 38V31.952H277.767V38H273.267V23.564C273.267 19.748 274.167 16.916 275.967 15.068C277.767 13.196 280.359 12.26 283.743 12.26C287.127 12.26 289.743 13.196 291.591 15.068C293.439 16.94 294.363 19.772 294.363 23.564V38H289.863ZM277.767 23.564V28.424C279.255 28.4 283.287 28.388 289.863 28.388V23.6C289.863 18.776 287.847 16.364 283.815 16.364C281.943 16.364 280.467 16.952 279.387 18.128C278.307 19.304 277.767 21.116 277.767 23.564ZM300.963 38V12.692H305.427V25.076L316.191 12.692H321.627L309.963 26.012L322.203 38H316.623L305.427 27.164V38H300.963ZM325.769 38V12.692H342.221V16.796H330.233V23.888H341.105V27.848H330.233V33.896H342.221V38H325.769ZM348.115 38V12.692H356.215C359.479 12.692 361.975 13.508 363.703 15.14C365.455 16.772 366.331 18.956 366.331 21.692C366.331 23.204 365.935 24.728 365.143 26.264C364.351 27.776 363.175 28.916 361.615 29.684C362.023 30.044 362.515 30.632 363.091 31.448C363.691 32.264 364.279 32.888 364.855 33.32C365.431 33.752 366.175 33.968 367.087 33.968H368.095V37.928C367.471 38.072 366.667 38.144 365.683 38.144C364.507 38.144 363.487 37.94 362.623 37.532C361.783 37.124 361.123 36.608 360.643 35.984C360.163 35.336 359.743 34.688 359.383 34.04C359.023 33.368 358.615 32.708 358.159 32.06C357.703 31.412 357.211 30.932 356.683 30.62C356.395 30.644 355.951 30.656 355.351 30.656H352.579V38H348.115ZM355.891 16.796H352.579V26.696H355.891C357.859 26.696 359.287 26.24 360.175 25.328C361.063 24.416 361.507 23.204 361.507 21.692C361.507 18.428 359.635 16.796 355.891 16.796ZM370.77 18.38V12.692H375.27V18.38C375.27 20.828 375.81 22.64 376.89 23.816C377.97 24.992 379.446 25.58 381.318 25.58C385.35 25.58 387.366 23.168 387.366 18.344V12.692H391.866V18.38C391.866 25.004 389.07 28.724 383.478 29.54V38H379.05V29.54C373.53 28.772 370.77 25.052 370.77 18.38Z" fill="#DE6A1E"/>
<path d="M40.2001 40.2001C39.0644 41.336 37.8091 42.3458 36.4562 43.2118C34.0006 44.7848 31.258 45.8562 28.3865 46.3643C27.6697 46.4906 26.9411 46.5822 26.2006 46.639C25.6389 46.6811 25.072 46.7025 24.5 46.7031C22.8942 46.7039 21.2931 46.5313 19.7244 46.1882C19.0038 46.0303 18.2968 45.8379 17.6036 45.6111C15.5325 44.9343 13.5727 43.9552 11.7878 42.7056C11.1848 42.2845 10.6049 41.8347 10.0479 41.3562C8.39671 39.9392 6.96161 38.2884 5.78813 36.4562C5.39383 35.8408 5.02984 35.2047 4.69616 34.5479C3.70881 32.6071 3.01444 30.5307 2.63567 28.3865C2.50934 27.6687 2.41778 26.9401 2.361 26.2006C2.31889 25.6388 2.29752 25.0719 2.29688 24.5C2.29608 22.8942 2.46871 21.2931 2.81176 19.7244C2.96967 19.0037 3.16203 18.2968 3.38885 17.6036C4.0657 15.5325 5.04478 13.5727 6.2944 11.7877C6.71549 11.1848 7.1653 10.6048 7.64381 10.0478C9.06077 8.39666 10.7116 6.96157 12.5438 5.78809C13.1592 5.39378 13.7953 5.02979 14.4521 4.69612C17.5649 3.11391 21.0082 2.2917 24.5 2.29684V24.5L40.2001 40.2001Z" fill="#FDE69A"/>
<path d="M19.5769 10.6135L18.1615 11.1992L17.0542 8.52429C16.8255 7.97601 16.4729 7.48814 16.0241 7.09893C15.5753 6.70973 15.0425 6.42977 14.4673 6.28099L12.5437 5.78813C13.1591 5.39382 13.7952 5.02983 14.452 4.69617L14.8473 4.79759C15.6523 5.00595 16.3982 5.39785 17.0265 5.94262C17.6548 6.48738 18.1484 7.17021 18.4687 7.93762L19.5769 10.6135Z" fill="#DE6A1E"/>
<path d="M14.6369 13.5544L13.5545 14.6368L11.5074 12.5898C11.0862 12.1707 10.5736 11.8549 10.0099 11.6671C9.44619 11.4793 8.84664 11.4246 8.25826 11.5073L6.29443 11.7877C6.71553 11.1848 7.16533 10.6049 7.64385 10.0479L8.04197 9.9914C8.8656 9.87568 9.70485 9.95233 10.4939 10.2153C11.2829 10.4784 12.0003 10.9206 12.5898 11.5073L14.6369 13.5544Z" fill="#DE6A1E"/>
<path d="M11.1992 18.1616L10.6135 19.5761L7.93763 18.4688C7.38841 18.2427 6.79429 18.1469 6.20186 18.1889C5.60942 18.2309 5.03476 18.4096 4.52294 18.7109L2.81177 19.7244C2.96968 19.0038 3.16204 18.2968 3.38886 17.6036L3.74296 17.394C4.45951 16.9719 5.26409 16.7215 6.09362 16.6624C6.92316 16.6033 7.75512 16.7371 8.52429 17.0533L11.1992 18.1616Z" fill="#DE6A1E"/>
<path d="M9.78669 23.7344V25.2656H6.89071C6.29666 25.267 5.711 25.406 5.17966 25.6716C4.64832 25.9373 4.18575 26.3225 3.82821 26.7969L2.63575 28.3865C2.50942 27.6687 2.41787 26.9401 2.36108 26.2006L2.60321 25.8781C3.10376 25.2139 3.75137 24.6747 4.49524 24.3028C5.23912 23.9309 6.05904 23.7363 6.89071 23.7344H9.78669Z" fill="#DE6A1E"/>
<path d="M11.1991 30.8384L8.52417 31.9457C7.97589 32.1744 7.48803 32.527 7.09883 32.9758C6.70963 33.4246 6.42966 33.9574 6.28089 34.5326L5.78802 36.4562C5.39372 35.8408 5.02973 35.2047 4.69604 34.5479L4.79749 34.1526C5.00587 33.3474 5.39789 32.6015 5.94284 31.9732C6.48779 31.3449 7.17084 30.8513 7.93847 30.5312L10.6134 29.424L11.1991 30.8384Z" fill="#DE6A1E"/>
<path d="M12.5897 37.4926C12.1704 37.9137 11.8545 38.4262 11.6667 38.99C11.4789 39.5538 11.4243 40.1534 11.5073 40.7418L11.7877 42.7056C11.1848 42.2845 10.6048 41.8347 10.0478 41.3562L9.99134 40.958C9.87562 40.1344 9.95227 39.2952 10.2153 38.5061C10.4783 37.7171 10.9205 36.9997 11.5073 36.4103L13.5544 34.3632L14.6368 35.4456L12.5897 37.4926Z" fill="#DE6A1E"/>
<path d="M19.7244 46.1883C19.0037 46.0303 18.2968 45.838 17.6036 45.6112L17.394 45.2571C16.9718 44.5405 16.7214 43.7359 16.6625 42.9063C16.6035 42.0767 16.7376 41.2448 17.0543 40.4758L18.1616 37.8008L19.577 38.3866L18.4688 41.0624C18.2425 41.6116 18.1466 42.2057 18.1886 42.7982C18.2306 43.3907 18.4094 43.9654 18.7109 44.4771L19.7244 46.1883Z" fill="#DE6A1E"/>
<path d="M28.3865 46.3643C27.6697 46.4907 26.9411 46.5822 26.2006 46.639L25.8781 46.3969C25.2139 45.8963 24.6747 45.2487 24.3028 44.5048C23.9309 43.761 23.7363 42.9411 23.7344 42.1094V39.2144H25.2656V42.1094C25.267 42.7034 25.406 43.2891 25.6716 43.8204C25.9373 44.3518 26.3225 44.8143 26.7969 45.1719L28.3865 46.3643Z" fill="#DE6A1E"/>
<path d="M36.4561 43.2119C35.839 43.6077 35.2024 43.9721 34.5487 44.3039L34.1525 44.2024C33.3475 43.9941 32.6016 43.6022 31.9733 43.0574C31.345 42.5126 30.8514 41.8298 30.5311 41.0624L29.4229 38.3866L30.8383 37.8008L31.9456 40.4758C32.1743 41.024 32.5268 41.5119 32.9756 41.9011C33.4245 42.2903 33.9573 42.5703 34.5324 42.719L36.4561 43.2119Z" fill="#DE6A1E"/>
<path d="M46.7031 23.209V25.2656L42.1094 24.3469L27.5625 21.4375L40.5781 8.42188C41.9116 9.75557 43.0587 11.2635 43.988 12.9046C44.2943 13.4444 44.5756 13.9969 44.8321 14.5622C44.9288 14.7756 45.0219 14.9903 45.1116 15.2063C45.7301 16.7011 46.1736 18.2626 46.4332 19.8594C46.5328 20.4718 46.6049 21.0898 46.6495 21.7131C46.6849 22.2089 46.7031 22.7084 46.7031 23.209V23.209Z" fill="#FDE69A"/>
<path d="M44.8321 14.5622C44.5076 15.0316 44.0736 15.4149 43.5677 15.679C43.0618 15.9432 42.4992 16.0801 41.9285 16.0781H39.8125V14.5469H41.9285C42.301 14.5481 42.6664 14.445 42.9832 14.2491C43.3001 14.0532 43.5557 13.7724 43.721 13.4386L43.988 12.9046C44.2943 13.4444 44.5756 13.9969 44.8321 14.5622V14.5622Z" fill="#DE6A1E"/>
<path d="M46.6496 21.7131C45.8705 22.2616 44.941 22.5561 43.9881 22.5563C43.6165 22.5562 43.2462 22.5106 42.8856 22.4204L41.1812 21.9945L41.5525 20.5092L43.257 20.9351C43.7695 21.0619 44.306 21.0544 44.8148 20.9134C45.3235 20.7724 45.7874 20.5027 46.1615 20.1302L46.4333 19.8594C46.5329 20.4719 46.605 21.0898 46.6496 21.7131Z" fill="#DE6A1E"/>
<path d="M28.3281 14.5469V6.125H29.0938C30.2823 6.125 31.4546 6.40173 32.5177 6.93329C33.5808 7.46485 34.5056 8.23662 35.2188 9.1875L28.3281 14.5469Z" fill="#FDE69A"/>
<path d="M33.6875 29.8594C34.1103 29.8594 34.4531 29.5166 34.4531 29.0938C34.4531 28.6709 34.1103 28.3281 33.6875 28.3281C33.2647 28.3281 32.9219 28.6709 32.9219 29.0938C32.9219 29.5166 33.2647 29.8594 33.6875 29.8594Z" fill="#FDE69A"/>
<path d="M32.9219 26.0312C33.3447 26.0312 33.6875 25.6885 33.6875 25.2656C33.6875 24.8428 33.3447 24.5 32.9219 24.5C32.499 24.5 32.1562 24.8428 32.1562 25.2656C32.1562 25.6885 32.499 26.0312 32.9219 26.0312Z" fill="#FDE69A"/>
<path d="M39.0469 34.4531C39.4697 34.4531 39.8125 34.1103 39.8125 33.6875C39.8125 33.2647 39.4697 32.9219 39.0469 32.9219C38.624 32.9219 38.2812 33.2647 38.2812 33.6875C38.2812 34.1103 38.624 34.4531 39.0469 34.4531Z" fill="#FDE69A"/>
<path d="M40.8606 27.2741C40.2264 26.6399 39.1982 26.6399 38.564 27.274C37.9299 27.9082 37.9299 28.9364 38.5641 29.5706L39.3295 30.3361C39.9637 30.9702 40.9919 30.9703 41.6261 30.3361C42.2602 29.7019 42.2602 28.6737 41.626 28.0395L40.8606 27.2741Z" fill="#FDE69A"/>
<path d="M36.9519 36.9519C34.9042 38.9996 32.3831 40.5107 29.6119 41.3514C26.8407 42.192 23.905 42.3362 21.0647 41.7713C18.2245 41.2063 15.5674 39.9496 13.3288 38.1125C11.0903 36.2754 9.33932 33.9145 8.2311 31.2391C7.12288 28.5636 6.69158 25.6561 6.97542 22.7742C7.25925 19.8922 8.24945 17.1248 9.85831 14.7169C11.4672 12.309 13.645 10.3351 16.199 8.96999C18.7529 7.60486 21.6041 6.89065 24.5 6.89062V24.5L36.9519 36.9519Z" fill="#FDB15D"/>
<path d="M11.7041 29.6334L12.7867 28.5508L15.0832 30.8473L14.0006 31.9299L11.7041 29.6334Z" fill="#DE6A1E"/>
<path d="M13.2356 26.5714L14.3182 25.4888L16.6147 27.7853L15.5321 28.8679L13.2356 26.5714Z" fill="#DE6A1E"/>
<path d="M17.8301 15.0887L18.9127 14.0061L21.2092 16.3026L20.1266 17.3852L17.8301 15.0887Z" fill="#DE6A1E"/>
<path d="M19.3616 12.0267L20.4442 10.9441L22.7407 13.2406L21.6581 14.3232L19.3616 12.0267Z" fill="#DE6A1E"/>
<path d="M24.7178 34.9937L25.8004 33.9111L28.0969 36.2076L27.0143 37.2902L24.7178 34.9937Z" fill="#DE6A1E"/>
<path d="M26.2493 31.9316L27.3319 30.849L29.6284 33.1455L28.5458 34.2281L26.2493 31.9316Z" fill="#DE6A1E"/>
<path d="M18.594 36.9708L20.8905 34.6743L21.9731 35.7568L19.6766 38.0534L18.594 36.9708Z" fill="#DE6A1E"/>
<path d="M17.0632 33.9086L19.3597 31.6121L20.4423 32.6946L18.1458 34.9912L17.0632 33.9086Z" fill="#DE6A1E"/>
<path d="M12.4709 21.6599L14.7675 19.3633L15.8501 20.4459L13.5535 22.7424L12.4709 21.6599Z" fill="#DE6A1E"/>
<path d="M10.9402 18.5977L13.2367 16.3012L14.3193 17.3838L12.0228 19.6803L10.9402 18.5977Z" fill="#DE6A1E"/>
<path d="M42.1094 22.5744V24.3469L27.5625 21.4375L37.5156 11.4844C40.4568 14.4257 42.1092 18.4149 42.1094 22.5744V22.5744Z" fill="#FDB15D"/>
<path d="M36.2021 20.1306L38.4987 17.8341L39.5813 18.9167L37.2847 21.2132L36.2021 20.1306Z" fill="#DE6A1E"/>
<path d="M35.437 17.0685L37.7335 14.772L38.8161 15.8546L36.5196 18.1511L35.437 17.0685Z" fill="#DE6A1E"/>
</svg>
