<svg width="138" height="108" viewBox="0 0 138 108" fill="none" xmlns="http://www.w3.org/2000/svg">
<path d="M19.3904 78.5527C19.3904 80.0567 18.8544 81.2407 17.7824 82.1047C16.7104 82.9687 15.2304 83.4007 13.3424 83.4007C11.4224 83.4007 9.58241 82.8647 7.82241 81.7927L8.85441 79.1047C10.3584 80.1127 11.8864 80.6167 13.4384 80.6167C14.3824 80.6167 15.1024 80.4167 15.5984 80.0167C16.0944 79.6167 16.3424 79.1287 16.3424 78.5527C16.3424 77.9607 16.0944 77.4647 15.5984 77.0647C15.1184 76.6487 14.1424 76.1687 12.6704 75.6247C11.0864 75.0487 9.95041 74.3767 9.26241 73.6087C8.59041 72.8247 8.25441 71.9047 8.25441 70.8487C8.25441 69.5047 8.76641 68.3527 9.79041 67.3927C10.8144 66.4327 12.1904 65.9527 13.9184 65.9527C15.6944 65.9527 17.2464 66.3367 18.5744 67.1047L17.6144 69.7447C16.2704 68.9927 15.0144 68.6167 13.8464 68.6167C12.9984 68.6167 12.3504 68.8247 11.9024 69.2407C11.4704 69.6407 11.2544 70.1527 11.2544 70.7767C11.2544 71.3047 11.5024 71.7687 11.9984 72.1687C12.4944 72.5527 13.3424 72.9607 14.5424 73.3927C16.3664 74.0967 17.6304 74.8487 18.3344 75.6487C19.0384 76.4327 19.3904 77.4007 19.3904 78.5527ZM22.9891 68.9767V66.2407H37.1731V68.9767H31.6291V83.1127H28.6291V68.9767H22.9891ZM52.6143 83.1127V79.0807H44.5503V83.1127H41.5503V73.4887C41.5503 70.9447 42.1503 69.0567 43.3503 67.8247C44.5503 66.5767 46.2783 65.9527 48.5343 65.9527C50.7903 65.9527 52.5343 66.5767 53.7663 67.8247C54.9983 69.0727 55.6143 70.9607 55.6143 73.4887V83.1127H52.6143ZM44.5503 73.4887V76.7287C45.5423 76.7127 48.2303 76.7047 52.6143 76.7047V73.5127C52.6143 70.2967 51.2703 68.6887 48.5823 68.6887C47.3343 68.6887 46.3503 69.0807 45.6303 69.8647C44.9103 70.6487 44.5503 71.8567 44.5503 73.4887ZM62.4142 83.1127V66.2407H67.8142C69.9902 66.2407 71.6542 66.7847 72.8062 67.8727C73.9742 68.9607 74.5582 70.4167 74.5582 72.2407C74.5582 73.2487 74.2942 74.2647 73.7662 75.2887C73.2382 76.2967 72.4542 77.0567 71.4142 77.5687C71.6862 77.8087 72.0142 78.2007 72.3982 78.7447C72.7982 79.2887 73.1902 79.7047 73.5742 79.9927C73.9582 80.2807 74.4542 80.4247 75.0622 80.4247H75.7342V83.0647C75.3182 83.1607 74.7822 83.2087 74.1262 83.2087C73.3422 83.2087 72.6622 83.0727 72.0862 82.8007C71.5262 82.5287 71.0862 82.1847 70.7662 81.7687C70.4462 81.3367 70.1662 80.9047 69.9262 80.4727C69.6862 80.0247 69.4142 79.5847 69.1102 79.1527C68.8062 78.7207 68.4782 78.4007 68.1262 78.1927C67.9342 78.2087 67.6382 78.2167 67.2382 78.2167H65.3902V83.1127H62.4142ZM67.5982 68.9767H65.3902V75.5767H67.5982C68.9102 75.5767 69.8622 75.2727 70.4542 74.6647C71.0462 74.0567 71.3422 73.2487 71.3422 72.2407C71.3422 70.0647 70.0942 68.9767 67.5982 68.9767ZM78.7938 68.9767V66.2407H92.9778V68.9767H87.4338V83.1127H84.4338V68.9767H78.7938ZM97.6597 76.1287V66.2407H100.636V76.1287C100.636 79.1687 101.972 80.6887 104.644 80.6887C107.38 80.6887 108.748 79.1607 108.748 76.1047V66.2407H111.724V76.1287C111.724 78.5607 111.092 80.3847 109.828 81.6007C108.564 82.8167 106.836 83.4247 104.644 83.4247C102.452 83.4247 100.74 82.8247 99.5077 81.6247C98.2757 80.4087 97.6597 78.5767 97.6597 76.1287ZM123.108 78.2167H121.5V83.1127H118.524V66.2407H123.684C125.86 66.2407 127.524 66.7847 128.676 67.8727C129.844 68.9607 130.428 70.4167 130.428 72.2407C130.428 74.0807 129.82 75.5367 128.604 76.6087C127.388 77.6807 125.556 78.2167 123.108 78.2167ZM123.468 68.9767H121.5V75.5767H123.468C124.78 75.5767 125.732 75.2727 126.324 74.6647C126.916 74.0567 127.212 73.2487 127.212 72.2407C127.212 70.0647 125.964 68.9767 123.468 68.9767Z" fill="black"/>
<path d="M16.2774 107.113V90.2407H21.6774C23.7734 90.2407 25.3414 90.6407 26.3814 91.4407C27.4374 92.2247 27.9654 93.3127 27.9654 94.7047C27.9654 96.5287 26.9814 97.7927 25.0134 98.4967C27.2854 99.1527 28.4214 100.433 28.4214 102.337C28.4214 103.809 27.7894 104.977 26.5254 105.841C25.2614 106.689 23.6454 107.113 21.6774 107.113H16.2774ZM21.1014 99.6967H19.2534V104.377H21.8214C23.0054 104.377 23.8614 104.161 24.3894 103.729C24.9334 103.281 25.2054 102.713 25.2054 102.025C25.2054 101.369 24.8854 100.817 24.2454 100.369C23.6054 99.9207 22.5574 99.6967 21.1014 99.6967ZM21.8214 92.9767H19.2534V97.5607H21.3894C22.5254 97.5767 23.3894 97.3447 23.9814 96.8647C24.5734 96.3687 24.8694 95.7687 24.8694 95.0647C24.8694 94.4407 24.6214 93.9367 24.1254 93.5527C23.6294 93.1687 22.8614 92.9767 21.8214 92.9767ZM45.3369 107.113V103.081H37.2729V107.113H34.2729V97.4887C34.2729 94.9447 34.8729 93.0567 36.0729 91.8247C37.2729 90.5767 39.0009 89.9527 41.2569 89.9527C43.5129 89.9527 45.2569 90.5767 46.4889 91.8247C47.7209 93.0727 48.3369 94.9607 48.3369 97.4887V107.113H45.3369ZM37.2729 97.4887V100.729C38.2649 100.713 40.9529 100.705 45.3369 100.705V97.5127C45.3369 94.2967 43.9929 92.6887 41.3049 92.6887C40.0569 92.6887 39.0729 93.0807 38.3529 93.8647C37.6329 94.6487 37.2729 95.8567 37.2729 97.4887ZM55.1368 107.113V90.2407H58.1128V98.4967L65.2888 90.2407H68.9128L61.1368 99.1207L69.2968 107.113H65.5768L58.1128 99.8887V107.113H55.1368ZM74.0743 107.113V90.2407H85.0423V92.9767H77.0503V97.7047H84.2983V100.345H77.0503V104.377H85.0423V107.113H74.0743ZM91.3712 107.113V90.2407H96.7712C98.9472 90.2407 100.611 90.7847 101.763 91.8727C102.931 92.9607 103.515 94.4167 103.515 96.2407C103.515 97.2487 103.251 98.2647 102.723 99.2887C102.195 100.297 101.411 101.057 100.371 101.569C100.643 101.809 100.971 102.201 101.355 102.745C101.755 103.289 102.147 103.705 102.531 103.993C102.915 104.281 103.411 104.425 104.019 104.425H104.691V107.065C104.275 107.161 103.739 107.209 103.083 107.209C102.299 107.209 101.619 107.073 101.043 106.801C100.483 106.529 100.043 106.185 99.7232 105.769C99.4032 105.337 99.1232 104.905 98.8832 104.473C98.6432 104.025 98.3712 103.585 98.0672 103.153C97.7632 102.721 97.4352 102.401 97.0832 102.193C96.8912 102.209 96.5952 102.217 96.1952 102.217H94.3472V107.113H91.3712ZM96.5552 92.9767H94.3472V99.5767H96.5552C97.8672 99.5767 98.8192 99.2727 99.4112 98.6647C100.003 98.0567 100.299 97.2487 100.299 96.2407C100.299 94.0647 99.0512 92.9767 96.5552 92.9767ZM108.875 94.0327V90.2407H111.875V94.0327C111.875 95.6647 112.235 96.8727 112.955 97.6567C113.675 98.4407 114.659 98.8327 115.907 98.8327C118.595 98.8327 119.939 97.2247 119.939 94.0087V90.2407H122.939V94.0327C122.939 98.4487 121.075 100.929 117.347 101.473V107.113H114.395V101.473C110.715 100.961 108.875 98.4807 108.875 94.0327Z" fill="#DE6A1E"/>
<path d="M87.6829 47.0407C86.3313 48.37 84.8376 49.5516 83.2276 50.565C80.3055 52.4056 77.0418 53.6593 73.6247 54.2539C72.7717 54.4017 71.9046 54.5088 71.0235 54.5753C70.355 54.6245 69.6804 54.6496 68.9998 54.6503C67.0889 54.6512 65.1836 54.4492 63.3169 54.0478C62.4593 53.863 61.618 53.6379 60.7931 53.3725C58.3285 52.5805 55.9964 51.4348 53.8722 49.9725C53.1548 49.4798 52.4646 48.9535 51.8018 48.3935C49.8369 46.7354 48.1291 44.8037 46.7327 42.6597C46.2635 41.9396 45.8303 41.1953 45.4333 40.4267C44.2583 38.1557 43.432 35.726 42.9813 33.2168C42.831 32.3769 42.722 31.5243 42.6544 30.659C42.6043 30.0017 42.5789 29.3383 42.5781 28.669C42.5772 26.79 42.7826 24.9164 43.1908 23.0808C43.3787 22.2375 43.6077 21.4103 43.8776 20.5991C44.683 18.1756 45.8481 15.8823 47.3352 13.7936C47.8363 13.0881 48.3715 12.4094 48.941 11.7576C50.6271 9.8255 52.5916 8.14621 54.772 6.77305C55.5042 6.31164 56.2612 5.88571 57.0428 5.49527C60.747 3.64382 64.8446 2.6817 68.9998 2.68771V28.669L87.6829 47.0407Z" fill="#FDE69A"/>
<path d="M63.1415 12.4195L61.4571 13.1049L60.1394 9.9748C59.8673 9.33322 59.4478 8.76233 58.9137 8.3069C58.3796 7.85147 57.7455 7.52386 57.0611 7.34977L54.772 6.77305C55.5043 6.31164 56.2612 5.88572 57.0429 5.49527L57.5132 5.61396C58.4712 5.85776 59.3588 6.31636 60.1065 6.95382C60.8541 7.59129 61.4415 8.39031 61.8227 9.2883L63.1415 12.4195Z" fill="#DE6A1E"/>
<path d="M57.2629 15.8609L55.9749 17.1275L53.5388 14.7321C53.0376 14.2417 52.4277 13.8721 51.7569 13.6524C51.086 13.4326 50.3726 13.3687 49.6724 13.4655L47.3354 13.7936C47.8365 13.0881 48.3718 12.4095 48.9412 11.7577L49.415 11.6916C50.3951 11.5562 51.3938 11.6459 52.3328 11.9536C53.2717 12.2614 54.1254 12.7789 54.8269 13.4655L57.2629 15.8609Z" fill="#DE6A1E"/>
<path d="M53.1719 21.252L52.4749 22.9072L49.2907 21.6115C48.6371 21.347 47.9301 21.2349 47.2251 21.284C46.5201 21.3332 45.8363 21.5422 45.2272 21.8948L43.1909 23.0808C43.3788 22.2375 43.6077 21.4103 43.8777 20.5991L44.299 20.3539C45.1517 19.8599 46.1092 19.5669 47.0963 19.4977C48.0835 19.4285 49.0735 19.5851 49.9888 19.9552L53.1719 21.252Z" fill="#DE6A1E"/>
<path d="M51.491 27.7731V29.5649H48.0448C47.3379 29.5665 46.6409 29.7291 46.0086 30.04C45.3763 30.3509 44.8259 30.8016 44.4004 31.3567L42.9814 33.2168C42.8311 32.3769 42.7221 31.5243 42.6545 30.659L42.9427 30.2816C43.5383 29.5044 44.309 28.8735 45.1942 28.4382C46.0794 28.003 47.0551 27.7753 48.0448 27.7731H51.491Z" fill="#DE6A1E"/>
<path d="M53.1719 36.086L49.9888 37.3817C49.3364 37.6493 48.7558 38.0619 48.2927 38.5871C47.8295 39.1122 47.4964 39.7358 47.3193 40.4088L46.7328 42.6597C46.2636 41.9396 45.8304 41.1953 45.4333 40.4267L45.5541 39.9641C45.802 39.022 46.2685 38.1491 46.917 37.4139C47.5655 36.6786 48.3783 36.1011 49.2918 35.7265L52.4749 34.4308L53.1719 36.086Z" fill="#DE6A1E"/>
<path d="M54.8267 43.8726C54.3278 44.3653 53.9518 44.965 53.7283 45.6247C53.5048 46.2844 53.4399 46.9861 53.5386 47.6746L53.8723 49.9726C53.1549 49.4799 52.4647 48.9535 51.8019 48.3935L51.7347 47.9277C51.597 46.9639 51.6882 45.9818 52.0012 45.0585C52.3142 44.1352 52.8404 43.2958 53.5386 42.606L55.9747 40.2106L57.2627 41.4772L54.8267 43.8726Z" fill="#DE6A1E"/>
<path d="M63.3168 54.0478C62.4592 53.863 61.618 53.6379 60.793 53.3725L60.5436 52.9582C60.0412 52.1197 59.7432 51.1782 59.6731 50.2074C59.6029 49.2367 59.7625 48.2631 60.1393 47.3632L61.457 44.2332L63.1414 44.9185L61.8226 48.0497C61.5533 48.6923 61.4392 49.3876 61.4892 50.0809C61.5392 50.7742 61.7519 51.4467 62.1107 52.0455L63.3168 54.0478Z" fill="#DE6A1E"/>
<path d="M73.6249 54.2539C72.7719 54.4017 71.9048 54.5088 71.0237 54.5753L70.6399 54.2919C69.8495 53.7062 69.2079 52.9484 68.7653 52.0779C68.3227 51.2075 68.0912 50.248 68.0889 49.2749V45.8872H69.9111V49.2749C69.9127 49.97 70.0781 50.6553 70.3942 51.2771C70.7104 51.8988 71.1687 52.4401 71.7332 52.8585L73.6249 54.2539Z" fill="#DE6A1E"/>
<path d="M83.2279 50.565C82.4936 51.0281 81.7361 51.4546 80.9582 51.8428L80.4867 51.7241C79.5287 51.4803 78.6411 51.0217 77.8934 50.3842C77.1458 49.7467 76.5584 48.9477 76.1772 48.0497L74.8584 44.9185L76.5428 44.2332L77.8604 47.3633C78.1326 48.0048 78.5521 48.5757 79.0862 49.0311C79.6203 49.4866 80.2544 49.8142 80.9388 49.9883L83.2279 50.565Z" fill="#DE6A1E"/>
<path d="M95.4216 27.1583V29.5649L89.955 28.4898L72.6443 25.0854L88.1328 9.85498C89.7197 11.4156 91.0847 13.1801 92.1906 15.1005C92.5551 15.7321 92.8899 16.3787 93.1951 17.0401C93.3101 17.2899 93.421 17.5411 93.5276 17.7938C94.2637 19.5431 94.7914 21.3702 95.1004 23.2387C95.2189 23.9554 95.3047 24.6785 95.3578 25.4079C95.3999 25.988 95.4216 26.5726 95.4216 27.1583V27.1583Z" fill="#FDE69A"/>
<path d="M93.195 17.0402C92.8088 17.5895 92.2924 18.038 91.6903 18.3471C91.0883 18.6562 90.4188 18.8164 89.7397 18.8141H87.2217V17.0223H89.7397C90.183 17.0237 90.6178 16.903 90.9949 16.6738C91.3719 16.4446 91.676 16.116 91.8728 15.7254L92.1905 15.1005C92.555 15.7322 92.8898 16.3787 93.195 17.0402V17.0402Z" fill="#DE6A1E"/>
<path d="M95.3578 25.4079C94.4306 26.0497 93.3245 26.3943 92.1906 26.3945C91.7483 26.3945 91.3077 26.3411 90.8787 26.2355L88.8503 25.7372L89.2922 23.9991L91.3205 24.4975C91.9304 24.6458 92.5689 24.6371 93.1743 24.4721C93.7798 24.3071 94.3318 23.9915 94.777 23.5556L95.1004 23.2387C95.2189 23.9554 95.3047 24.6785 95.3578 25.4079Z" fill="#DE6A1E"/>
<path d="M73.5554 17.0222V7.16727H74.4665C75.8809 7.16727 77.2759 7.49109 78.541 8.1131C79.8061 8.73511 80.9066 9.63821 81.7553 10.7509L73.5554 17.0222Z" fill="#FDE69A"/>
<path d="M79.9331 34.9404C80.4362 34.9404 80.8442 34.5393 80.8442 34.0445C80.8442 33.5497 80.4362 33.1486 79.9331 33.1486C79.4299 33.1486 79.022 33.5497 79.022 34.0445C79.022 34.5393 79.4299 34.9404 79.9331 34.9404Z" fill="#FDE69A"/>
<path d="M79.0219 30.4608C79.5251 30.4608 79.933 30.0597 79.933 29.5649C79.933 29.0701 79.5251 28.669 79.0219 28.669C78.5187 28.669 78.1108 29.0701 78.1108 29.5649C78.1108 30.0597 78.5187 30.4608 79.0219 30.4608Z" fill="#FDE69A"/>
<path d="M86.3108 40.3158C86.8139 40.3158 87.2218 39.9147 87.2218 39.4199C87.2218 38.9251 86.8139 38.524 86.3108 38.524C85.8076 38.524 85.3997 38.9251 85.3997 39.4199C85.3997 39.9147 85.8076 40.3158 86.3108 40.3158Z" fill="#FDE69A"/>
<path d="M88.469 31.9151C87.7143 31.173 86.4907 31.173 85.7361 31.9151C84.9814 32.6572 84.9814 33.8603 85.7361 34.6024L86.647 35.4981C87.4017 36.2402 88.6252 36.2403 89.3799 35.4982C90.1345 34.7561 90.1345 33.5529 89.3798 32.8108L88.469 31.9151Z" fill="#FDE69A"/>
<path d="M83.8176 43.2398C81.3808 45.636 78.3807 47.4042 75.083 48.3879C71.7852 49.3716 68.2917 49.5403 64.9118 48.8792C61.5319 48.2182 58.37 46.7476 55.7061 44.5979C53.0422 42.4481 50.9586 39.6855 49.6398 36.5548C48.3211 33.4241 47.8078 30.0219 48.1456 26.6495C48.4833 23.2772 49.6617 20.0388 51.5762 17.2212C53.4908 14.4036 56.0824 12.0938 59.1216 10.4964C62.1608 8.89894 65.5537 8.0632 68.9998 8.06317V28.669L83.8176 43.2398Z" fill="#FDB15D"/>
<path d="M53.7729 34.6759L55.0612 33.4091L57.7941 36.0964L56.5058 37.3632L53.7729 34.6759Z" fill="#DE6A1E"/>
<path d="M55.5952 31.0928L56.8835 29.826L59.6164 32.5133L58.3281 33.7801L55.5952 31.0928Z" fill="#DE6A1E"/>
<path d="M61.0627 17.6562L62.351 16.3894L65.0839 19.0767L63.7956 20.3436L61.0627 17.6562Z" fill="#DE6A1E"/>
<path d="M62.885 14.0732L64.1733 12.8064L66.9061 15.4937L65.6179 16.7605L62.885 14.0732Z" fill="#DE6A1E"/>
<path d="M69.259 40.9482L70.5473 39.6814L73.2802 42.3687L71.9919 43.6355L69.259 40.9482Z" fill="#DE6A1E"/>
<path d="M71.0815 37.3652L72.3698 36.0984L75.1027 38.7857L73.8144 40.0525L71.0815 37.3652Z" fill="#DE6A1E"/>
<path d="M61.9717 43.2618L64.7045 40.5745L65.9928 41.8414L63.26 44.5286L61.9717 43.2618Z" fill="#DE6A1E"/>
<path d="M60.1501 39.6785L62.883 36.9912L64.1713 38.258L61.4384 40.9453L60.1501 39.6785Z" fill="#DE6A1E"/>
<path d="M54.6853 25.3456L57.4182 22.6583L58.7064 23.9251L55.9736 26.6125L54.6853 25.3456Z" fill="#DE6A1E"/>
<path d="M52.8638 21.7623L55.5966 19.075L56.8849 20.3418L54.1521 23.0291L52.8638 21.7623Z" fill="#DE6A1E"/>
<path d="M89.955 26.4158V28.4898L72.6443 25.0854L84.4885 13.4386C87.9885 16.8805 89.9548 21.5484 89.955 26.4158V26.4158Z" fill="#FDB15D"/>
<path d="M82.9253 23.5562L85.6581 20.8688L86.9464 22.1357L84.2136 24.823L82.9253 23.5562Z" fill="#DE6A1E"/>
<path d="M82.0149 19.973L84.7477 17.2857L86.036 18.5525L83.3032 21.2398L82.0149 19.973Z" fill="#DE6A1E"/>
</svg>
